ply
format ascii 1.0
element vertex 256
comment vertices
property float x
property float y
property float z
end_header
1.21486234664916992 0.277651190757751465 -1.28528118133544922
2.54567575454711914 4.10552597045898438 -0.700192451477050781
1.57852351665496826 -2.1996452808380127 -1.32463979721069336
0.378756105899810791 -0.606776058673858643 -1.51736998558044434
-0.316091597080230713 1.10724353790283203 -0.980779170989990234
2.69892334938049316 1.46066403388977051 -0.339712411165237427
3.59458780288696289 3.16275548934936523 -0.616577804088592529
2.66781735420227051 -0.468235194683074951 -1.13981735706329346
0.587663412094116211 1.07835352420806885 -0.509830296039581299
1.08928442001342773 0.150874853134155273 -1.57084941864013672
2.96737241744995117 3.24728894233703613 -0.797123908996582031
2.34183287620544434 0.910382211208343506 -1.16997146606445312
2.72081875801086426 0.262865155935287476 -0.848007798194885254
2.70523715019226074 3.83979487419128418 -0.664064109325408936
0.973412096500396729 0.788140237331390381 -1.28350448608398438
2.18472123146057129 0.0132772475481033325 -1.26074337959289551
1.74483633041381836 0.74136054515838623 -1.279998779296875
2.36819958686828613 -1.58018982410430908 -1.32325875759124756
1.44527673721313477 0.862848103046417236 -1.0772252082824707
0.976920723915100098 -1.49933052062988281 -1.41472434997558594
1.06527650356292725 -0.564747035503387451 -1.51724207401275635
1.37070012092590332 0.548907339572906494 -1.33290219306945801
1.55926382541656494 0.707439780235290527 -1.15329122543334961
1.94877099990844727 -1.61509954929351807 -1.36905908584594727
3.21209168434143066 3.22634267807006836 -0.633743226528167725
2.09755492210388184 0.348153531551361084 -1.38098454475402832
2.5911717414855957 0.900283277034759521 -0.47295302152633667
1.87821102142333984 0.352797776460647583 -1.30287706851959229
0.425954818725585938 -0.215809673070907593 -1.29115879535675049
2.35042738914489746 -1.10787606239318848 -1.31320905685424805
1.51746225357055664 0.299113273620605469 -1.40867280960083008
2.56426072120666504 3.9278404712677002 -0.730724334716796875
3.31216549873352051 3.1700139045715332 -0.762040436267852783
1.42196238040924072 -1.87098360061645508 -1.4972846508026123
2.71609044075012207 0.10373273491859436 -1.07334530353546143
1.27878153324127197 0.409587562084197998 -1.31219220161437988
0.623893082141876221 0.719520270824432373 -1.28080880641937256
0.998073399066925049 -0.439395129680633545 -1.54816436767578125
1.64085674285888672 -0.159193068742752075 -1.49513387680053711
0.864667117595672607 0.0821532607078552246 -1.54432332515716553
-0.0616303868591785431 1.07548916339874268 -0.829667806625366211
0.798812806606292725 -1.69292712211608887 -1.49567806720733643
2.71391105651855469 0.790943443775177002 -0.346288353204727173
2.57125163078308105 4.0007472038269043 -0.847517430782318115
1.70338320732116699 -1.81701111793518066 -1.59583330154418945
1.35478889942169189 0.502537548542022705 -1.24872946739196777
1.2599104642868042 0.562021255493164062 -1.44927537441253662
1.62524139881134033 0.174095809459686279 -1.30584573745727539
1.78355777263641357 -0.0657849311828613281 -1.26803708076477051
2.22102522850036621 -1.69943416118621826 -1.34141182899475098
2.56535172462463379 -1.3417365550994873 -1.17907774448394775
1.23987388610839844 0.538990974426269531 -1.27968287467956543
0.141441404819488525 1.03652381896972656 -0.997784197330474854
2.57918310165405273 3.82567882537841797 -0.697862923145294189
2.73269772529602051 -0.452710777521133423 -1.02045559883117676
2.15218710899353027 -0.104594767093658447 -1.49628531932830811
1.95121872425079346 0.166930019855499268 -1.30560052394866943
2.00800800323486328 -0.014844745397567749 -1.32668745517730713
2.3595421314239502 -1.08332633972167969 -1.38981318473815918
1.36367249488830566 0.264832139015197754 -1.3057020902633667
1.00343966484069824 -0.468043774366378784 -1.50386202335357666
1.25510454177856445 -0.622987031936645508 -1.57417023181915283
1.49401044845581055 0.485348224639892578 -1.1925586462020874
0.816185653209686279 -1.41635990142822266 -1.38420867919921875
1.38083720207214355 0.576907038688659668 -1.3001396656036377
2.74550628662109375 1.33836007118225098 -0.359423905611038208
2.00784397125244141 0.265319287776947021 -1.33263981342315674
1.17025506496429443 -1.53334081172943115 -1.54380130767822266
1.31494855880737305 0.28826981782913208 -1.36957788467407227
2.63806772232055664 3.75338172912597656 -0.725886404514312744
2.01529502868652344 0.0694946125149726868 -1.33046329021453857
2.57567310333251953 3.8308556079864502 -0.733512818813323975
1.29682433605194092 -1.6717066764831543 -1.40603625774383545
3.45290374755859375 3.17645907402038574 -0.749385476112365723
2.31976604461669922 -1.11875343322753906 -1.29678547382354736
2.54565238952636719 4.11085128784179688 -0.58727794885635376
2.15857410430908203 0.491783052682876587 -1.278664231300354
1.9932715892791748 0.0462825745344161987 -1.33404743671417236
2.98570561408996582 -0.272260576486587524 -1.1785510778427124
1.09528005123138428 -0.605929136276245117 -1.55519008636474609
1.45333230495452881 0.0481812059879302979 -1.33694839477539062
0.839316427707672119 0.667467951774597168 -1.58818137645721436
1.17336487770080566 -0.510795712471008301 -1.47032523155212402
2.74521827697753906 -0.309100896120071411 -1.02537953853607178
1.05674445629119873 -0.504826128482818604 -1.48504137992858887
2.74894452095031738 -0.610477030277252197 -1.25952839851379395
2.0965571403503418 -1.37893390655517578 -1.29194247722625732
3.15874886512756348 3.177154541015625 -0.772184133529663086
1.45674669742584229 0.217814773321151733 -1.25353431701660156
3.09163856506347656 3.57857728004455566 -0.755535364151000977
3.31211686134338379 3.19680309295654297 -0.702652096748352051
2.46416831016540527 -1.0240250825881958 -1.32269108295440674
1.31904149055480957 0.571634352207183838 -1.29698324203491211
2.72518730163574219 1.52126657962799072 -0.406452178955078125
0.930934667587280273 -1.58655691146850586 -1.5354011058807373
1.11435890197753906 -0.538252174854278564 -1.58526110649108887
1.02945435047149658 0.129744768142700195 -1.55356526374816895
2.65292549133300781 -1.01266169548034668 -1.199005126953125
1.7437598705291748 0.380196422338485718 -1.28992795944213867
1.46394157409667969 -2.30228471755981445 -1.35059106349945068
2.13311195373535156 0.12164461612701416 -1.56647491455078125
2.71112203598022461 0.553642332553863525 -0.702205896377563477
2.34921813011169434 -1.014076828956604 -1.31943094730377197
2.71976351737976074 0.263326495885848999 -1.07441568374633789
2.19313979148864746 0.836039543151855469 -1.2641150951385498
2.06224298477172852 -0.0300216227769851685 -1.31447792053222656
1.22811150550842285 -0.491452276706695557 -1.51718831062316895
0.867272377014160156 0.463239550590515137 -1.34042131900787354
1.39023721218109131 0.743233859539031982 -1.34305107593536377
-0.0704139173030853271 1.0473942756652832 -0.996188104152679443
3.15180230140686035 3.21960711479187012 -0.665216147899627686
1.26733303070068359 0.468345016241073608 -1.28360879421234131
1.99644887447357178 -1.67668509483337402 -1.40298354625701904
2.33574819564819336 -1.05925333499908447 -1.4144134521484375
0.945786714553833008 -1.64160466194152832 -1.33212065696716309
2.0955955982208252 0.267271280288696289 -1.37302207946777344
2.55847835540771484 4.14379405975341797 -0.739675760269165039
0.725866496562957764 1.07998561859130859 -0.700988113880157471
1.26358366012573242 0.548389554023742676 -1.28769588470458984
1.22031378746032715 0.517534255981445312 -1.31139886379241943
1.12301397323608398 0.401663541793823242 -1.41789078712463379
2.16350722312927246 0.174973875284194946 -1.32357203960418701
2.72773170471191406 -0.143355369567871094 -1.1052926778793335
1.16154026985168457 -0.653419315814971924 -1.56484639644622803
1.03906106948852539 -0.487983763217926025 -1.54658830165863037
1.67420017719268799 0.315015792846679688 -1.27410626411437988
1.0393364429473877 1.19850587844848633 -0.387330830097198486
1.10040056705474854 -1.60385560989379883 -1.41878938674926758
1.34956574440002441 0.637816727161407471 -1.3015754222869873
2.05144262313842773 0.357262194156646729 -1.26734578609466553
2.4993133544921875 -0.997906923294067383 -1.30360651016235352
1.29898571968078613 -0.730488777160644531 -1.61563670635223389
1.54321348667144775 0.392296135425567627 -1.18731236457824707
2.56390857696533203 3.94663238525390625 -0.831380784511566162
2.67235565185546875 -0.771605014801025391 -1.30378532409667969
1.05000460147857666 0.0663098394870758057 -1.54774785041809082
2.55798149108886719 -1.25321197509765625 -1.17621231079101562
2.10692453384399414 0.425056099891662598 -1.30306339263916016
2.57935118675231934 3.9716954231262207 -0.768487930297851562
1.99045324325561523 0.295124202966690063 -1.32014858722686768
1.94225144386291504 0.130956888198852539 -1.37455630302429199
1.36572623252868652 -0.500905275344848633 -1.53236091136932373
1.32562088966369629 -0.0112115740776062012 -1.47479259967803955
-0.233208909630775452 0.667876005172729492 -0.998711884021759033
1.32815861701965332 0.123221516609191895 -1.25940120220184326
1.40574347972869873 0.524565637111663818 -1.28659021854400635
2.09402847290039062 0.263122797012329102 -1.26244044303894043
0.529300332069396973 0.138662457466125488 -1.54554498195648193
0.646421670913696289 1.09578800201416016 -0.733745992183685303
1.40169477462768555 0.171716630458831787 -1.27453327178955078
2.6168971061706543 3.77522110939025879 -0.729295134544372559
2.70569801330566406 0.0901904106140136719 -1.10542893409729004
2.11706233024597168 0.297175616025924683 -1.40583443641662598
1.58002352714538574 -0.0702492445707321167 -1.54014396667480469
1.4651484489440918 0.0559236407279968262 -1.23778605461120605
2.46240091323852539 -1.56142807006835938 -1.220497727394104
1.8344886302947998 0.00375784002244472504 -1.3395075798034668
3.07004070281982422 -0.256611615419387817 -1.31649577617645264
1.10561084747314453 0.225658580660820007 -1.41283011436462402
1.34666132926940918 0.571397721767425537 -1.26372635364532471
0.726551651954650879 -1.67300295829772949 -1.42623186111450195
2.65053844451904297 0.480488210916519165 -0.813254714012145996
2.60201478004455566 -0.83990633487701416 -1.35232079029083252
1.41585874557495117 0.424271076917648315 -1.39357590675354004
1.86142516136169434 0.30451357364654541 -1.31063330173492432
2.38839173316955566 -1.06359100341796875 -1.35303390026092529
1.56421530246734619 0.546320199966430664 -1.29706966876983643
1.23188698291778564 0.490502089262008667 -1.30671429634094238
2.55756425857543945 4.03705310821533203 -0.512685239315032959
1.2682807445526123 0.557477951049804688 -1.2756885290145874
1.08136975765228271 -0.437004715204238892 -1.50454473495483398
0.936814844608306885 -1.48101210594177246 -1.40893769264221191
2.23850584030151367 -0.934008657932281494 -1.59326708316802979
1.46409213542938232 0.125113368034362793 -1.28055918216705322
-0.231176882982254028 1.0694420337677002 -0.948177337646484375
1.18685591220855713 -0.0366434454917907715 -1.57422101497650146
1.49130439758300781 0.191495656967163086 -1.29043745994567871
1.4269176721572876 0.998481333255767822 -0.899011373519897461
1.30150210857391357 -0.221871614456176758 -1.34942460060119629
2.70117282867431641 0.222898125648498535 -0.851314544677734375
1.53546643257141113 0.319486856460571289 -1.2536313533782959
2.5680384635925293 3.89861559867858887 -0.674782335758209229
1.58624839782714844 0.327685445547103882 -1.27360415458679199
2.697418212890625 -0.222398549318313599 -0.859220325946807861
3.3965003490447998 3.17636227607727051 -0.679022848606109619
1.28967881202697754 0.514841914176940918 -1.32390010356903076
3.50062108039855957 3.30004405975341797 -0.604355692863464355
2.7408144474029541 3.7690732479095459 -0.676395833492279053
1.91169536113739014 0.116107463836669922 -1.58652305603027344
1.09591913223266602 -0.57356572151184082 -1.50969147682189941
2.42400050163269043 -1.38171374797821045 -1.32100367546081543
2.0659332275390625 0.163425162434577942 -1.40141570568084717
2.60951781272888184 3.81738638877868652 -0.757907450199127197
2.32850337028503418 -1.09062075614929199 -1.28858816623687744
2.3743584156036377 -1.04604625701904297 -1.28550302982330322
1.30570864677429199 0.34339451789855957 -1.24688661098480225
3.24090719223022461 3.21121931076049805 -0.672613441944122314
0.918988347053527832 -1.3324044942855835 -1.35992872714996338
2.15147805213928223 0.507120132446289062 -1.34147953987121582
-0.278361797332763672 1.06020152568817139 -0.954665660858154297
1.33810997009277344 0.520736813545227051 -1.28920567035675049
3.05822277069091797 3.20125985145568848 -0.736686229705810547
2.71824002265930176 0.518034994602203369 -0.472101271152496338
1.29782843589782715 0.482658654451370239 -1.30321049690246582
2.03690290451049805 -2.13976502418518066 -1.53755688667297363
1.67423117160797119 -2.26047325134277344 -1.43014860153198242
0.0457903072237968445 1.06703448295593262 -0.727930188179016113
2.46573686599731445 -1.59240615367889404 -1.26930809020996094
2.72812914848327637 1.21652543544769287 -0.415456563234329224
1.21607506275177002 0.653262138366699219 -1.29843831062316895
1.39668238162994385 -1.63443624973297119 -1.38715505599975586
1.9646073579788208 -1.65155410766601562 -1.38604879379272461
3.34272098541259766 3.34222412109375 -0.661386072635650635
2.75015974044799805 -0.0996809005737304688 -0.984412312507629395
2.1734764575958252 0.0616409778594970703 -1.42366266250610352
2.60421252250671387 3.84526467323303223 -0.770014464855194092
2.58160734176635742 3.90021634101867676 -0.743406116962432861
1.70889723300933838 -0.134270399808883667 -1.30842244625091553
2.05948114395141602 0.234443068504333496 -1.29088330268859863
2.54599142074584961 -0.710116028785705566 -1.17091238498687744
2.69848465919494629 1.59202086925506592 -0.413444966077804565
1.30787348747253418 0.460850656032562256 -1.24801397323608398
1.01574599742889404 -1.48757660388946533 -1.38159716129302979
2.10242605209350586 0.254837006330490112 -1.32281780242919922
1.07241439819335938 -0.536388874053955078 -1.50680017471313477
1.84225344657897949 0.608580708503723145 -1.24441707134246826
2.6960906982421875 1.58571851253509521 -0.423739999532699585
0.233540758490562439 0.370721757411956787 -1.13272643089294434
1.20398235321044922 -0.414748847484588623 -1.55329465866088867
2.73247528076171875 -0.303642332553863525 -1.08513569831848145
2.70735406875610352 -0.146764308214187622 -1.04216563701629639
1.18002939224243164 0.209066599607467651 -1.54294991493225098
2.50766611099243164 0.0368207022547721863 -0.999017477035522461
1.29859018325805664 0.626020073890686035 -1.4006035327911377
1.94503271579742432 0.0487161427736282349 -1.34820973873138428
3.31374597549438477 3.17943644523620605 -0.690919101238250732
1.44625318050384521 0.677074909210205078 -1.57654404640197754
2.7484738826751709 0.175579488277435303 -0.962588667869567871
-0.145367532968521118 -0.0667763352394104004 -1.02744770050048828
2.72044491767883301 1.43190956115722656 -0.337507188320159912
2.56048035621643066 -0.945447206497192383 -1.25879049301147461
1.22215437889099121 1.15792763233184814 -0.719000339508056641
1.27185690402984619 0.145691260695457458 -1.44064545631408691
2.71783614158630371 -0.368378818035125732 -1.14418673515319824
1.95058619976043701 0.0438349545001983643 -1.36883413791656494
0.958525478839874268 -0.590883851051330566 -1.52057397365570068
1.87865209579467773 0.312841415405273438 -1.34989345073699951
1.18587291240692139 0.460443973541259766 -1.33824646472930908
2.99614381790161133 3.25440144538879395 -0.776705145835876465
1.16021478176116943 0.244976475834846497 -1.35308361053466797
0.621775805950164795 -0.467124283313751221 -1.52874505519866943
2.71790719032287598 0.00304213166236877441 -1.02384757995605469
1.01421165466308594 -1.61061382293701172 -1.39782023429870605
3.08879494667053223 3.22238612174987793 -0.745569527149200439
3.17887163162231445 3.20834183692932129 -0.719951391220092773
2.55225753784179688 4.07125139236450195 -0.515157759189605713
