ply
format ascii 1.0
element vertex 65
comment vertices
property float x
property float y
property float z
end_header
1.02178812026977539 -1.47116971015930176 0.238187521696090698
2.02292251586914062 -0.583976149559020996 0.454258203506469727
1.01795411109924316 -1.50894248485565186 0.25407099723815918
1.90665280818939209 -2.03945255279541016 0.308767110109329224
0.542289376258850098 -0.341703087091445923 0.426295816898345947
0.189411774277687073 -0.74776756763458252 0.517760217189788818
-0.0652475655078887939 -0.754652738571166992 0.487746626138687134
0.844994783401489258 -0.373775959014892578 0.363300561904907227
1.03077197074890137 -1.47020637989044189 0.238745912909507751
1.91048109531402588 -2.04070568084716797 0.310616850852966309
0.971889257431030273 -0.460830092430114746 0.28343510627746582
2.02407717704772949 -0.563499391078948975 0.437409937381744385
0.913712084293365479 -0.457550674676895142 0.302069664001464844
1.07170474529266357 -0.390236705541610718 0.321878969669342041
-0.0695020779967308044 -0.804826259613037109 0.479564636945724487
-0.0715360641479492188 -0.797153651714324951 0.502075850963592529
0.705231308937072754 -0.551196157932281494 0.39242282509803772
1.00088465213775635 -0.431243717670440674 0.306260108947753906
1.03826630115509033 -1.47641670703887939 0.229683920741081238
0.909060955047607422 -0.4571361243724823 0.317144840955734253
0.980157852172851562 -1.5523686408996582 0.269819557666778564
0.105109319090843201 -0.860247373580932617 0.513592004776000977
1.90674257278442383 -2.00504016876220703 0.31245499849319458
2.02540254592895508 -0.567336559295654297 0.44692915678024292
1.02631938457489014 -1.47153842449188232 0.225552424788475037
-0.116928622126579285 -0.965789318084716797 0.46712881326675415
2.01538944244384766 -0.590169310569763184 0.435051172971725464
0.163361057639122009 -0.690416336059570312 0.495488435029983521
1.03770947456359863 -1.46985983848571777 0.229053348302841187
1.16050386428833008 -0.390054374933242798 0.287159442901611328
1.01486885547637939 -0.904519736766815186 0.269205927848815918
0.00270479172468185425 -0.842611491680145264 0.51132965087890625
1.91410923004150391 -2.01993989944458008 0.311723381280899048
1.02470147609710693 -1.49522781372070312 0.246339812874794006
-0.105748169124126434 -0.982802510261535645 0.442930102348327637
1.16554355621337891 -0.409799039363861084 0.309658199548721313
-0.0887039601802825928 -0.864430665969848633 0.457988381385803223
1.08039331436157227 -0.37183612585067749 0.279180049896240234
1.04071903228759766 -1.48217153549194336 0.227686241269111633
2.02743649482727051 -0.576469063758850098 0.442126274108886719
1.0226215124130249 -1.49080538749694824 0.236517220735549927
1.04681694507598877 -0.380967050790786743 0.292724907398223877
1.00708699226379395 -1.26606965065002441 0.247594550251960754
0.598282217979431152 -0.284382641315460205 0.4088917076587677
-0.165160536766052246 -1.19687092304229736 0.480834305286407471
0.00484227389097213745 -0.84579932689666748 0.504680156707763672
1.05337536334991455 -0.434489965438842773 0.322799354791641235
0.274148404598236084 -0.780365586280822754 0.518999278545379639
-0.0895984768867492676 -0.985877454280853271 0.456936657428741455
-0.110102467238903046 -1.1476137638092041 0.449052900075912476
1.90204548835754395 -2.0925135612487793 0.311792492866516113
1.01584112644195557 -1.46636819839477539 0.236908316612243652
1.01982557773590088 -1.46549224853515625 0.22303655743598938
0.959870815277099609 -0.512202262878417969 0.351751923561096191
0.122810974717140198 -0.726634621620178223 0.503570258617401123
-0.076539941132068634 -0.768207550048828125 0.498203933238983154
0.122757188975811005 -0.7563895583152771 0.499739944934844971
1.03367912769317627 -0.90815967321395874 0.26808398962020874
1.89758646488189697 -2.07898807525634766 0.31869816780090332
1.90526068210601807 -2.03235149383544922 0.313830554485321045
1.08214008808135986 -0.386674374341964722 0.280469715595245361
1.05411064624786377 -0.378431856632232666 0.288135021924972534
-0.0212889797985553741 -0.822064399719238281 0.483409583568572998
-0.115878850221633911 -1.16561698913574219 0.432221293449401855
0.643370449542999268 -0.588476181030273438 0.418429940938949585
