ply
format ascii 1.0
element vertex 256
comment vertices
property float x
property float y
property float z
end_header
-0.258785009384155273 -1.2419276237487793 0.43316689133644104
-2.62517189979553223 2.11320829391479492 0.904844880104064941
3.13689446449279785 -0.771814167499542236 0.276452541351318359
0.2526530921459198 0.873103857040405273 0.888761222362518311
1.71282505989074707 0.144678384065628052 0.553537249565124512
1.2997366189956665 -2.13717365264892578 0.424937963485717773
-1.12644219398498535 2.28257870674133301 0.84340667724609375
2.15756464004516602 -0.519680261611938477 0.527031660079956055
1.14714670181274414 -1.45224857330322266 0.17840304970741272
-1.66344654560089111 1.94487130641937256 0.993460595607757568
0.535147786140441895 -0.60085594654083252 0.49476248025894165
1.38156068325042725 0.308373808860778809 0.705522716045379639
-2.27517366409301758 1.93251919746398926 0.987437546253204346
1.70755434036254883 -1.24936079978942871 0.20366610586643219
0.206594809889793396 -0.890676736831665039 0.158965229988098145
0.962644875049591064 0.548472821712493896 0.563921511173248291
2.32483077049255371 -0.637548208236694336 0.452916532754898071
0.10541495680809021 0.0495693683624267578 0.319858461618423462
-1.04190778732299805 -1.83624672889709473 0.492506116628646851
-0.861160159111022949 -1.53223943710327148 0.744280040264129639
1.09120059013366699 0.563379168510437012 0.930121719837188721
0.705290079116821289 -0.902843832969665527 0.354879021644592285
1.97116231918334961 -0.664515912532806396 0.409716397523880005
-1.38709104061126709 1.92662191390991211 1.02659201622009277
2.77587008476257324 -1.81018257141113281 0.351767480373382568
-0.396903663873672485 -1.04068148136138916 0.642095565795898438
0.982487678527832031 -1.62023520469665527 0.268186569213867188
-2.29464912414550781 1.97505950927734375 0.915817856788635254
1.77967190742492676 -2.06391263008117676 0.351685315370559692
1.65332305431365967 0.0412745364010334015 0.690013408660888672
-1.27582967281341553 2.1902167797088623 0.855240046977996826
0.690919399261474609 -0.346848368644714355 0.463413357734680176
0.183730125427246094 -0.85543513298034668 0.384547442197799683
2.35051226615905762 -0.993939399719238281 0.362260043621063232
-0.372912347316741943 -1.07039046287536621 0.232638180255889893
0.560555994510650635 -1.23379325866699219 0.413843095302581787
-0.540654182434082031 -1.516571044921875 0.45183601975440979
-0.0541132092475891113 -0.771583437919616699 0.438323497772216797
0.822190523147583008 -0.436448961496353149 0.310423731803894043
1.01920104026794434 -1.47979271411895752 0.212287694215774536
0.84686124324798584 -0.822989702224731445 0.126492887735366821
1.15160846710205078 0.584640920162200928 0.823358356952667236
2.26932740211486816 -0.0322991982102394104 0.45998084545135498
1.80884194374084473 -2.07924532890319824 0.404442846775054932
-2.2342219352722168 1.88816821575164795 0.957954645156860352
1.50252020359039307 -1.38018894195556641 0.171736881136894226
-0.0533719398081302643 -0.438806593418121338 0.839073836803436279
-0.852181971073150635 -1.88918530941009521 0.702399373054504395
-2.52029943466186523 2.03507328033447266 0.938350856304168701
-0.24550241231918335 -0.914067268371582031 0.463357627391815186
1.24854958057403564 -0.768943488597869873 0.313916802406311035
2.38376593589782715 -0.552095770835876465 0.453246146440505981
0.921310007572174072 -0.578897953033447266 0.160075277090072632
2.05594944953918457 -0.566655099391937256 0.392665058374404907
0.345348924398422241 0.783524394035339355 0.955946445465087891
0.935055971145629883 -0.583089947700500488 0.367632240056991577
1.08263683319091797 -0.471782565116882324 0.422709435224533081
-0.0774169415235519409 -0.865633785724639893 0.500030457973480225
2.8640131950378418 -1.61702573299407959 0.214023172855377197
-1.08254480361938477 2.08035182952880859 0.935090303421020508
1.84663999080657959 -0.260984033346176147 0.460792601108551025
-0.881512463092803955 -1.63267219066619873 0.698939502239227295
0.269323885440826416 -0.475532054901123047 0.418636560440063477
-0.0997264981269836426 -0.844213366508483887 0.585201799869537354
0.75705796480178833 -0.602186143398284912 0.400664627552032471
0.652691125869750977 -0.823816955089569092 0.335843503475189209
1.28638160228729248 0.565324306488037109 0.88754582405090332
1.65761923789978027 0.0973924845457077026 0.710131704807281494
-1.86787629127502441 1.82503867149353027 0.916832983493804932
0.45297849178314209 -0.694608151912689209 0.53258514404296875
1.20646047592163086 0.422047704458236694 0.772590458393096924
-0.0932655930519104004 0.0875837802886962891 0.0738414376974105835
-0.780920624732971191 -1.64289307594299316 0.455517888069152832
1.03125524520874023 -0.585002005100250244 0.226452529430389404
-0.592691421508789062 -1.16141080856323242 0.743369936943054199
1.48774218559265137 0.225582852959632874 0.784771323204040527
0.94233626127243042 -1.42333590984344482 0.222652256488800049
2.51341700553894043 -0.919929265975952148 0.400447607040405273
-2.04060769081115723 1.78996777534484863 1.03459930419921875
-1.39479994773864746 1.8882749080657959 0.92736053466796875
0.939333796501159668 -0.570407748222351074 0.456500411033630371
0.8692513108253479 -1.74269711971282959 0.211283072829246521
0.168046340346336365 -0.997410356998443604 0.379326581954956055
0.885192513465881348 -1.07234084606170654 0.427523791790008545
1.95011687278747559 -1.95568931102752686 0.299644440412521362
2.02673125267028809 -0.536851704120635986 0.443426907062530518
1.66275763511657715 -0.933169186115264893 0.146200418472290039
1.7561955451965332 -2.21101927757263184 0.366226077079772949
-2.14910006523132324 1.89413583278656006 0.988144397735595703
-1.49095118045806885 2.0380244255065918 0.923177242279052734
1.73657453060150146 0.0728930383920669556 0.646934568881988525
1.01337671279907227 -1.44498145580291748 0.227223396301269531
0.82976984977722168 0.733444571495056152 0.866721034049987793
1.8914257287979126 -0.137222617864608765 0.67647242546081543
-1.30420315265655518 2.09402942657470703 0.875758707523345947
-0.147054553031921387 -1.08485257625579834 0.46175876259803772
2.0618741512298584 -0.480849385261535645 0.352937817573547363
3.01557707786560059 -1.30475890636444092 0.336911678314208984
2.22228622436523438 -1.48516404628753662 0.366855412721633911
-2.4587099552154541 2.0179297924041748 0.932030320167541504
0.120819121599197388 -0.718982875347137451 0.340697109699249268
0.667258262634277344 -0.889827966690063477 0.194710254669189453
-2.05030369758605957 1.8859100341796875 1.03802061080932617
0.989370048046112061 -1.3995063304901123 0.227868303656578064
1.6654435396194458 0.245396584272384644 0.765068411827087402
-0.232978671789169312 -0.74209284782409668 0.295093625783920288
1.0723649263381958 0.461341381072998047 0.906668186187744141
1.20836818218231201 -0.372460544109344482 0.380261242389678955
1.04114401340484619 -0.957372963428497314 0.201882749795913696
2.3665158748626709 -1.15841913223266602 0.430628210306167603
0.707899332046508789 -0.777100086212158203 0.476511776447296143
0.661610662937164307 -0.999160647392272949 0.115639835596084595
0.0725159645080566406 -0.867104828357696533 0.578207015991210938
0.387339860200881958 -0.570648074150085449 0.353806376457214355
0.550453901290893555 -0.929222941398620605 0.408174455165863037
1.93942046165466309 -2.08620524406433105 0.316016942262649536
1.05547213554382324 -1.64538037776947021 0.175225779414176941
-0.089367985725402832 -1.10433816909790039 0.429092228412628174
2.07621932029724121 -0.493611514568328857 0.422865927219390869
1.72567605972290039 -2.18423056602478027 0.338831216096878052
-2.5563051700592041 2.0768277645111084 0.950293064117431641
1.16550135612487793 -0.930914700031280518 0.405890345573425293
1.09330630302429199 0.503431379795074463 0.798950314521789551
1.35318863391876221 0.388382226228713989 0.6119651198387146
1.3398289680480957 -0.475098848342895508 0.425609290599822998
2.20583891868591309 -0.386751055717468262 0.435170024633407593
-0.131848692893981934 -0.898928046226501465 0.424300789833068848
2.21200180053710938 -0.643973112106323242 0.483437329530715942
2.81004428863525391 -1.76578044891357422 0.272001832723617554
2.45037698745727539 -0.754408001899719238 0.427337288856506348
2.0474703311920166 -0.53172457218170166 0.461293190717697144
1.10988700389862061 -0.391970247030258179 0.305034875869750977
-0.218089967966079712 -1.0559239387512207 0.401084601879119873
1.5258411169052124 0.18003179132938385 0.778497576713562012
0.0622273683547973633 -1.45887279510498047 0.391431540250778198
-2.10916471481323242 1.97497618198394775 0.989586174488067627
-0.374394416809082031 -1.1308664083480835 0.512289643287658691
0.428197324275970459 -0.724916458129882812 0.453895986080169678
0.171548396348953247 0.835221171379089355 0.949161887168884277
-0.671560049057006836 -1.61720871925354004 0.802051126956939697
0.923204183578491211 -1.41005158424377441 0.239207595586776733
1.99756276607513428 -0.638158559799194336 0.375947117805480957
0.947475671768188477 -1.51554262638092041 0.252107590436935425
-1.8271489143371582 1.83894026279449463 1.04034698009490967
1.02234244346618652 -0.454324007034301758 0.339482665061950684
0.427289605140686035 -0.797196388244628906 0.549075961112976074
0.681647241115570068 -0.877660691738128662 0.164354711771011353
1.27669000625610352 0.357131481170654297 0.461054444313049316
0.571491420269012451 -1.38978374004364014 0.182979077100753784
-0.152862012386322021 -0.136640429496765137 0.339555829763412476
0.727251112461090088 -0.736133694648742676 0.352345168590545654
1.00965917110443115 0.522466719150543213 0.789761066436767578
1.09025382995605469 -1.0937042236328125 0.182091653347015381
0.664604306221008301 -0.279044955968856812 0.41753309965133667
-0.245560705661773682 -1.25477695465087891 0.557226657867431641
1.91421473026275635 0.0674895867705345154 0.422807097434997559
0.0855822861194610596 -0.913207292556762695 0.526364803314208984
-1.09336221218109131 2.0450139045715332 1.02520835399627686
-0.0925938785076141357 -0.135398685932159424 0.394579112529754639
2.45768833160400391 -0.945752918720245361 0.193234533071517944
-0.00149996578693389893 -0.521375060081481934 0.610927104949951172
0.226459518074989319 -0.558776319026947021 0.302156150341033936
1.38287258148193359 0.233042508363723755 0.777825474739074707
-2.22727632522583008 1.96818983554840088 1.02456462383270264
-0.814065814018249512 -1.7652580738067627 0.7219390869140625
-0.900609910488128662 -1.63349771499633789 0.692250907421112061
1.05210971832275391 -0.586335837841033936 0.426486164331436157
0.261571228504180908 -0.933114886283874512 0.392268449068069458
2.31365275382995605 -0.456783801317214966 0.451306313276290894
-0.0547324232757091522 -1.06754255294799805 0.494222402572631836
-0.238224059343338013 -1.42053079605102539 0.47150343656539917
1.71363735198974609 -2.24373817443847656 0.34195283055305481
-0.216491654515266418 -1.20760130882263184 0.447794109582901001
-0.963367819786071777 -1.57183158397674561 0.603374958038330078
-2.02198386192321777 1.7906804084777832 0.992039978504180908
1.53656959533691406 0.320934474468231201 0.852502942085266113
1.78530311584472656 -2.18902420997619629 0.362858355045318604
1.74210679531097412 -0.0634466856718063354 0.640429019927978516
-2.33195924758911133 1.97517991065979004 0.936313509941101074
1.09304094314575195 -1.41060328483581543 0.174952864646911621
1.0590512752532959 -1.42197680473327637 0.244868099689483643
-0.169604331254959106 -0.802226901054382324 0.399289637804031372
-1.71299076080322266 1.83949160575866699 1.07493185997009277
-1.20891749858856201 2.20774459838867188 0.89897841215133667
0.828416109085083008 -0.9366721510887146 0.282334983348846436
2.398681640625 -0.530499458312988281 0.548535645008087158
1.05254483222961426 -0.729901909828186035 0.41330188512802124
1.07020032405853271 0.604833602905273438 0.852468371391296387
2.28762269020080566 -0.59488213062286377 0.391943186521530151
0.729291915893554688 0.759863734245300293 0.87437814474105835
0.817238092422485352 0.659214556217193604 0.898768186569213867
2.39389133453369141 -1.2206718921661377 0.434790998697280884
0.126562803983688354 -0.734286367893218994 0.462175250053405762
0.745124220848083496 0.491707444190979004 0.804599881172180176
-0.158691063523292542 -0.808745026588439941 0.44632411003112793
0.620648503303527832 -0.941074728965759277 0.323005944490432739
0.659628212451934814 -0.964432358741760254 0.154864728450775146
1.84522926807403564 -1.0472257137298584 0.185381501913070679
0.524828553199768066 -0.192367523908615112 0.428326427936553955
0.150750875473022461 -0.820077478885650635 0.458929985761642456
1.07756721973419189 -0.996346890926361084 0.175023779273033142
0.932207942008972168 -0.92957538366317749 0.385817348957061768
-2.29544162750244141 1.8972095251083374 1.01267611980438232
1.82467746734619141 -2.18087458610534668 0.391871362924575806
-0.0166717004030942917 -0.139599323272705078 0.155772194266319275
0.392445385456085205 -1.11268270015716553 0.374289393424987793
2.0695493221282959 -0.279587090015411377 0.610744237899780273
1.61925530433654785 0.0520878396928310394 0.801759600639343262
1.88691794872283936 -2.09201812744140625 0.367612153291702271
1.9901885986328125 -1.7468106746673584 0.220784157514572144
1.47275674343109131 0.110619880259037018 0.482629835605621338
1.97750627994537354 -1.90004730224609375 0.390401512384414673
-2.05220246315002441 1.88758838176727295 0.927945613861083984
1.1113358736038208 -0.428635209798812866 0.335286080837249756
2.71254587173461914 -1.61539840698242188 0.271838366985321045
0.819450855255126953 -0.816606283187866211 0.100759074091911316
0.404474169015884399 -0.935414731502532959 0.475366532802581787
2.49814844131469727 -0.718924224376678467 0.428933948278427124
1.3941645622253418 -1.42208898067474365 0.155960500240325928
-0.237607464194297791 -0.723250329494476318 0.434212923049926758
1.04484009742736816 -0.44921034574508667 0.338269352912902832
0.576141953468322754 -0.592812240123748779 0.442406952381134033
0.0344967246055603027 -0.872446894645690918 0.49054265022277832
-1.61882758140563965 2.04758739471435547 0.908836483955383301
-1.41250503063201904 2.0979006290435791 0.914116442203521729
0.969874739646911621 0.489889353513717651 0.855746984481811523
-1.6541365385055542 1.99186027050018311 0.945471704006195068
-0.197126001119613647 -1.06091022491455078 0.316789507865905762
1.27298498153686523 0.389092117547988892 0.722635149955749512
1.93591952323913574 -0.248442485928535461 0.465545058250427246
-2.1500246524810791 1.87351381778717041 0.989032983779907227
0.681408524513244629 -0.796565890312194824 0.506787717342376709
0.710260272026062012 -0.946379780769348145 0.214733004570007324
0.460712969303131104 -0.664728045463562012 0.371535807847976685
-0.184877723455429077 -1.26843643188476562 0.418539822101593018
0.469593703746795654 -0.589815616607666016 0.469979763031005859
-1.38436055183410645 1.95506858825683594 0.952194333076477051
-1.19746768474578857 2.16851043701171875 0.865267634391784668
2.23288631439208984 -1.35867416858673096 0.442628771066665649
1.80152761936187744 -0.0949621647596359253 0.786406755447387695
-2.41900324821472168 1.9887460470199585 0.914847373962402344
2.48486757278442383 -0.77646481990814209 0.391449093818664551
-0.568292677402496338 -1.46990525722503662 0.432303875684738159
0.694945812225341797 -0.161042064428329468 0.460807263851165771
0.109103329479694366 -0.146187067031860352 0.84686589241027832
-0.139853447675704956 -0.955980658531188965 0.394052028656005859
-0.84672248363494873 -1.61686253547668457 0.591259598731994629
-0.823459148406982422 -1.57720160484313965 0.428555309772491455
0.687204718589782715 -0.63100135326385498 0.393146216869354248
2.96551895141601562 -0.937559902667999268 0.258450180292129517
-1.92596089839935303 1.80598735809326172 1.00349235534667969
-1.67074978351593018 1.87488269805908203 1.00299656391143799
2.59267377853393555 -0.923046350479125977 0.451012849807739258
1.38505268096923828 0.291629314422607422 0.739315509796142578
-1.45240068435668945 1.8815615177154541 0.906264781951904297
-2.03986334800720215 1.81295919418334961 1.03821325302124023
