ply
format ascii 1.0
element vertex 256
comment vertices
property float x
property float y
property float z
end_header
0.94330894947052002 -1.58310365676879883 -1.3760603666305542
2.54179120063781738 4.24062252044677734 -0.790966629981994629
2.72873997688293457 0.859138309955596924 -0.294603466987609863
-0.184185802936553955 1.09978485107421875 -1.07262706756591797
2.75132918357849121 -0.462235987186431885 -1.08017826080322266
3.62848186492919922 3.15134644508361816 -0.745313405990600586
1.36837923526763916 0.313583493232727051 -1.38506710529327393
1.58943557739257812 -1.7670891284942627 -1.3848731517791748
0.695688962936401367 -0.101345628499984741 -1.53963780403137207
0.609712362289428711 1.08765685558319092 -0.528684020042419434
3.02301979064941406 3.26972603797912598 -0.788330495357513428
2.66269445419311523 3.87907671928405762 -0.623309016227722168
1.78452515602111816 0.800512194633483887 -1.29362702369689941
2.74190211296081543 -0.41808202862739563 -0.733146369457244873
1.90762531757354736 -0.414013385772705078 -1.54902386665344238
2.57220149040222168 -0.962060689926147461 -1.15896475315093994
1.36410534381866455 0.523734807968139648 -1.37633895874023438
1.4750063419342041 0.815927267074584961 -1.06649422645568848
2.14227104187011719 -1.7163231372833252 -1.32821083068847656
1.90957546234130859 0.0811523348093032837 -1.39868688583374023
0.0456682294607162476 -0.239026904106140137 -1.48656964302062988
0.299531728029251099 0.657725095748901367 -1.1513669490814209
3.15685892105102539 3.22144937515258789 -0.685559689998626709
1.42766022682189941 -2.29274439811706543 -1.41111373901367188
1.37930798530578613 0.497889906167984009 -1.38459610939025879
2.30478906631469727 0.404017746448516846 -1.21937680244445801
1.08368122577667236 -0.555531680583953857 -1.47825610637664795
2.57697677612304688 3.97918081283569336 -0.775839805603027344
2.64219069480895996 1.43793821334838867 -0.35321652889251709
2.19742918014526367 -1.41873657703399658 -1.25740921497344971
2.38414144515991211 -1.06823587417602539 -1.31684136390686035
1.61682796478271484 0.567706704139709473 -1.35672533512115479
2.61822843551635742 -0.027414172887802124 -1.30321407318115234
1.43061971664428711 1.01848304271697998 -0.944054722785949707
0.889419794082641602 -1.53129065036773682 -1.25157690048217773
-0.0462313815951347351 1.03716409206390381 -1.01529145240783691
1.38612210750579834 0.439640551805496216 -1.29143738746643066
0.733228206634521484 -0.185122251510620117 -1.52630078792572021
2.71710300445556641 -0.342970609664916992 -1.06801140308380127
1.6082007884979248 0.46152845025062561 -1.24572670459747314
2.15965771675109863 -0.0134186148643493652 -1.37128114700317383
3.32616639137268066 3.1731109619140625 -0.759775519371032715
0.402156442403793335 0.847472906112670898 -1.18078947067260742
1.22115170955657959 0.235917210578918457 -1.29650235176086426
2.74090027809143066 -0.382442504167556763 -0.967920541763305664
1.55304276943206787 -0.1366252601146698 -1.37278532981872559
1.97661411762237549 -1.57088613510131836 -1.33202123641967773
2.54587507247924805 3.90597081184387207 -0.671202421188354492
1.17531752586364746 1.1437380313873291 -0.452323555946350098
2.56693530082702637 4.01667594909667969 -0.764109432697296143
1.0583796501159668 -0.570875167846679688 -1.47740042209625244
1.28381872177124023 0.600107491016387939 -1.34046685695648193
2.57400631904602051 -1.12153518199920654 -1.38394427299499512
2.71480274200439453 1.68675005435943604 -0.439437329769134521
2.1212456226348877 0.0744566023349761963 -1.31993997097015381
1.06859970092773438 0.699132621288299561 -1.26622247695922852
1.40349221229553223 -1.74170637130737305 -1.37068319320678711
0.892426967620849609 -0.991376280784606934 -1.5536644458770752
1.17435693740844727 -0.492122530937194824 -1.55423831939697266
2.5424811840057373 -0.639823079109191895 -1.2246023416519165
1.50639927387237549 0.467141330242156982 -1.2833549976348877
0.937393426895141602 -1.6139298677444458 -1.24843716621398926
0.972938120365142822 -0.517087936401367188 -1.5218890905380249
1.54611527919769287 0.13330543041229248 -1.60697007179260254
2.84139704704284668 3.72903180122375488 -0.630828142166137695
2.53478813171386719 -0.19066774845123291 -1.24084019660949707
1.35124480724334717 0.270141541957855225 -1.48945736885070801
3.40355563163757324 3.17598843574523926 -0.606168508529663086
1.04536128044128418 0.468438506126403809 -1.56457042694091797
2.05250668525695801 0.0120068490505218506 -1.40558803081512451
1.76201510429382324 0.545182287693023682 -1.29577028751373291
1.47932851314544678 0.68872833251953125 -0.944535553455352783
2.15008783340454102 -1.48680830001831055 -1.32465505599975586
3.02028083801269531 3.53668785095214844 -0.670382022857666016
1.53981757164001465 0.599781990051269531 -1.27566027641296387
1.36394214630126953 0.547698497772216797 -1.30698966979980469
2.57870721817016602 -0.309296131134033203 -0.979452610015869141
0.680184364318847656 -1.68190228939056396 -1.41882181167602539
2.60548853874206543 3.74895739555358887 -0.72604215145111084
2.71281766891479492 0.20917847752571106 -0.578372716903686523
1.37126684188842773 0.530475199222564697 -1.31382513046264648
2.57193446159362793 3.93486666679382324 -0.757458925247192383
3.13786053657531738 3.19021201133728027 -0.764464199542999268
1.07600247859954834 -0.672365546226501465 -1.51174008846282959
1.15040063858032227 -0.481921672821044922 -1.50054371356964111
1.35041236877441406 0.522664070129394531 -1.3125530481338501
1.22134721279144287 0.204465672373771667 -1.44936060905456543
2.54671478271484375 4.12425327301025391 -0.750635206699371338
1.3595813512802124 0.539011538028717041 -1.23996508121490479
2.03145122528076172 0.310397088527679443 -1.28786385059356689
2.72809147834777832 0.353756487369537354 -0.401071220636367798
3.4381864070892334 3.18689107894897461 -0.749346613883972168
3.12394332885742188 3.22530221939086914 -0.724832296371459961
2.01964139938354492 -2.47275233268737793 -1.36530280113220215
0.887081027030944824 0.767396390438079834 -1.52998638153076172
2.45864963531494141 -1.08988845348358154 -1.40855824947357178
-0.262768596410751343 1.05723190307617188 -1.08647871017456055
2.42035174369812012 -1.0947643518447876 -1.34474599361419678
1.22984480857849121 0.624215245246887207 -1.29204511642456055
1.53298258781433105 0.00802367925643920898 -1.38092279434204102
1.53104829788208008 0.450609683990478516 -1.25881659984588623
1.32852673530578613 -0.507841885089874268 -1.53183269500732422
2.12328720092773438 -1.78742563724517822 -1.19001114368438721
1.91735386848449707 0.568457722663879395 -1.35597515106201172
1.39365410804748535 0.58890223503112793 -1.28623688220977783
1.95543861389160156 -0.143294155597686768 -1.40528154373168945
2.37169814109802246 -1.05759012699127197 -1.29487371444702148
0.110124848783016205 1.0517427921295166 -0.97259145975112915
1.80060338973999023 -0.041812162846326828 -1.38692927360534668
2.69842362403869629 -1.08537077903747559 -1.17116308212280273
0.697226524353027344 -1.64415872097015381 -1.41047143936157227
2.73532819747924805 -0.393171638250350952 -1.00608408451080322
1.22165632247924805 0.210442394018173218 -1.5193556547164917
-0.154262855648994446 0.589995503425598145 -1.29444718360900879
2.53425908088684082 1.58319306373596191 -0.350268453359603882
1.71888542175292969 -1.44155395030975342 -1.52204883098602295
2.7817230224609375 -0.464584439992904663 -1.04440510272979736
1.41865980625152588 0.605322420597076416 -1.27801620960235596
0.315955758094787598 1.07222914695739746 -0.617381930351257324
0.954142332077026367 -1.60388624668121338 -1.39486360549926758
0.509763836860656738 0.131639599800109863 -1.53708028793334961
2.95595073699951172 3.48714303970336914 -0.627649188041687012
1.05019676685333252 -0.562737524509429932 -1.5126953125
1.82873523235321045 0.410839468240737915 -1.28135395050048828
1.44709956645965576 0.0936070680618286133 -1.33196377754211426
2.06028127670288086 0.629644334316253662 -1.3104170560836792
1.43194413185119629 0.467992156744003296 -1.41235888004302979
2.5324714183807373 4.16005563735961914 -0.686446964740753174
2.69071698188781738 -0.990248203277587891 -1.15260767936706543
2.02792215347290039 -0.0769926309585571289 -1.34910750389099121
0.96805274486541748 -1.54646944999694824 -1.27560853958129883
2.43454957008361816 -1.15185761451721191 -1.54091644287109375
1.30443322658538818 -0.361392319202423096 -1.56270706653594971
0.81523442268371582 0.609710454940795898 -1.31633198261260986
2.61407017707824707 3.81615662574768066 -0.729703068733215332
3.23855853080749512 3.21513915061950684 -0.664100766181945801
2.64858102798461914 -1.20151877403259277 -1.09871315956115723
1.79416525363922119 0.104299247264862061 -1.35282373428344727
2.14361262321472168 -0.116079181432723999 -1.40157318115234375
2.02555346488952637 0.223645865917205811 -1.41101682186126709
1.2699350118637085 0.567924797534942627 -1.26189672946929932
0.9960288405418396 -0.509477853775024414 -1.53633368015289307
2.38541555404663086 -1.09355044364929199 -1.32894158363342285
2.21773672103881836 -0.260367333889007568 -1.43302083015441895
0.987856030464172363 -0.52660757303237915 -1.52538144588470459
1.51703047752380371 0.487360596656799316 -1.23693192005157471
1.43357527256011963 -1.99488425254821777 -1.40475594997406006
2.12295198440551758 -1.7193446159362793 -1.32759654521942139
2.11184310913085938 0.500691831111907959 -1.31613123416900635
1.4846494197845459 -0.206552416086196899 -1.31486833095550537
1.32139968872070312 0.561577439308166504 -1.27929544448852539
1.4342496395111084 0.70474088191986084 -1.28087854385375977
1.05976366996765137 -0.384359121322631836 -1.60029852390289307
2.7747645378112793 -0.174339070916175842 -1.102195143699646
1.83169186115264893 -0.066613808274269104 -1.32624602317810059
1.27522408962249756 0.548019766807556152 -1.43016231060028076
1.31572318077087402 0.505957126617431641 -1.23930072784423828
2.35084819793701172 -1.05859935283660889 -1.3813323974609375
1.36312675476074219 0.343252688646316528 -1.2647930383682251
2.59161210060119629 4.03988409042358398 -0.704864561557769775
1.36817312240600586 0.643156528472900391 -1.2814171314239502
2.5677490234375 3.96841931343078613 -0.747397780418395996
0.614779412746429443 -1.55665314197540283 -1.39532506465911865
1.06170284748077393 1.15108001232147217 -0.453657418489456177
1.46096301078796387 0.242747783660888672 -1.2405235767364502
-0.155462503433227539 0.986179828643798828 -1.05500006675720215
2.01885318756103516 -0.00163248181343078613 -1.41146504878997803
1.98759567737579346 -0.0888166129589080811 -1.36061358451843262
1.30996251106262207 0.482184231281280518 -1.30963027477264404
2.28321027755737305 -1.56911993026733398 -1.24732613563537598
2.7379148006439209 0.00984222069382667542 -0.611464858055114746
0.176169931888580322 0.698176264762878418 -1.22763955593109131
1.73816573619842529 -1.8463890552520752 -1.39093017578125
2.65594911575317383 -0.573334276676177979 -1.12588214874267578
1.76411294937133789 0.489396184682846069 -1.33298277854919434
0.820099890232086182 -0.0717253684997558594 -1.55120253562927246
2.70150637626647949 -0.275115787982940674 -1.08016133308410645
1.1847987174987793 0.657457351684570312 -1.25818824768066406
1.60381793975830078 0.62568587064743042 -1.44621014595031738
0.797951459884643555 1.07326889038085938 -0.795755743980407715
2.69902396202087402 -0.710999608039855957 -1.3485877513885498
2.75409841537475586 1.57893955707550049 -0.39265751838684082
1.47472405433654785 0.891588985919952393 -1.23145091533660889
2.63296651840209961 3.6970527172088623 -0.758705615997314453
1.4625924825668335 0.340880930423736572 -1.30861222743988037
1.54222440719604492 0.526790142059326172 -1.28465521335601807
1.56046009063720703 0.867859363555908203 -0.965216994285583496
0.544583916664123535 -0.326361596584320068 -1.55585169792175293
1.13568878173828125 -0.425522208213806152 -1.60828149318695068
1.21118998527526855 -0.160001963376998901 -1.56131827831268311
0.757933616638183594 -0.0422860383987426758 -1.59093391895294189
1.49177360534667969 0.57733917236328125 -1.2923884391784668
0.446001052856445312 0.39447939395904541 -1.49900388717651367
2.70519351959228516 0.484684586524963379 -0.391605734825134277
2.57014942169189453 4.05263042449951172 -0.81399303674697876
1.63967955112457275 0.398532092571258545 -1.25902366638183594
2.33652424812316895 -0.971117675304412842 -1.30290365219116211
1.42245292663574219 0.472947895526885986 -1.29746103286743164
3.19904875755310059 3.21205425262451172 -0.764646232128143311
2.70322990417480469 0.0341385006904602051 -1.13111519813537598
1.61145639419555664 -1.36991989612579346 -1.58417701721191406
1.56497931480407715 0.556702136993408203 -1.29286718368530273
1.19610488414764404 -0.606296658515930176 -1.5485457181930542
1.50322890281677246 0.465903908014297485 -1.27946245670318604
1.06603074073791504 -0.50843656063079834 -1.49506962299346924
2.70235204696655273 3.84063005447387695 -0.695143461227416992
2.77324247360229492 0.356351971626281738 -1.26523208618164062
2.15090036392211914 0.169037222862243652 -1.34569072723388672
1.37598073482513428 0.696287155151367188 -1.25071823596954346
1.14981603622436523 0.56073153018951416 -1.36897099018096924
1.10248756408691406 -0.569268584251403809 -1.51686584949493408
2.59561896324157715 3.77648353576660156 -0.7692757248878479
0.961712896823883057 -1.54525339603424072 -1.39390838146209717
2.68772649765014648 -0.830826997756958008 -1.0118563175201416
2.72376704216003418 -0.32040134072303772 -1.06429672241210938
2.6154167652130127 3.73325157165527344 -0.654837727546691895
1.08984291553497314 0.561544477939605713 -1.4442516565322876
1.94820475578308105 0.487118661403656006 -1.33416318893432617
1.49665701389312744 0.568178832530975342 -1.30382454395294189
2.56800270080566406 -0.837646603584289551 -1.24595999717712402
3.1275172233581543 3.32119393348693848 -0.63987964391708374
1.6328967809677124 0.477906286716461182 -1.28458547592163086
1.99315500259399414 -1.7181774377822876 -1.36681413650512695
2.02142500877380371 0.0195417553186416626 -1.38961410522460938
2.74036121368408203 -0.941740870475769043 -1.08125412464141846
3.29044079780578613 3.20227980613708496 -0.773313999176025391
1.55285477638244629 1.10977041721343994 -0.763829529285430908
1.02403819561004639 -0.716589748859405518 -1.49933743476867676
1.46730077266693115 0.163717567920684814 -1.46997380256652832
1.93215382099151611 0.141982123255729675 -1.29301226139068604
2.72625494003295898 0.329482316970825195 -0.559407532215118408
1.93558096885681152 -0.262694716453552246 -1.49453830718994141
2.55637407302856445 4.09423637390136719 -0.817055940628051758
2.17067360877990723 0.0651296675205230713 -1.39143359661102295
1.35835850238800049 0.516379296779632568 -1.33336162567138672
3.05951023101806641 3.2538459300994873 -0.754954099655151367
2.5720827579498291 4.02157306671142578 -0.754662513732910156
0.840516805648803711 -1.66043007373809814 -1.37442755699157715
2.7852485179901123 -0.342261433601379395 -1.22581946849822998
2.7210390567779541 0.156125187873840332 -0.830523371696472168
2.1601407527923584 -1.65912127494812012 -1.24511170387268066
2.00639152526855469 0.0222963094711303711 -1.40947115421295166
2.06904411315917969 -1.6211235523223877 -1.21239781379699707
2.65490889549255371 0.857840955257415771 -1.27044248580932617
3.18355917930603027 3.20484280586242676 -0.731559395790100098
1.38675355911254883 0.517664670944213867 -1.27771127223968506
2.00025296211242676 -2.50994300842285156 -1.62148356437683105
1.39598500728607178 0.482494056224822998 -1.34266149997711182
1.78482604026794434 0.809715509414672852 -1.22543919086456299
2.38921546936035156 0.602034330368041992 -0.624217748641967773
3.06370377540588379 3.21296095848083496 -0.721949100494384766
2.50195407867431641 -0.352966666221618652 -1.01031005382537842
2.36455702781677246 -1.03678905963897705 -1.29723477363586426
2.38719964027404785 -1.01998043060302734 -1.33241236209869385
3.35202503204345703 3.2345130443572998 -0.67131495475769043
1.31449568271636963 0.584068775177001953 -1.26515030860900879
