ply
format ascii 1.0
element vertex 256
comment vertices
property float x
property float y
property float z
end_header
0.950066804885864258 -1.55843901634216309 -1.37981712818145752
2.55353641510009766 4.12976455688476562 -0.737687289714813232
2.75789260864257812 0.841542661190032959 -0.298760980367660522
-0.139047965407371521 1.13273131847381592 -1.09519279003143311
2.72464179992675781 -0.388071238994598389 -1.09138679504394531
3.51058864593505859 3.20048952102661133 -0.698865354061126709
1.39046430587768555 0.533446907997131348 -1.32555007934570312
1.58182406425476074 -1.73587977886199951 -1.41886007785797119
0.694558501243591309 -0.0969605222344398499 -1.6377187967300415
0.570474207401275635 1.07847177982330322 -0.473559767007827759
3.07071733474731445 3.21164274215698242 -0.718378961086273193
2.57153034210205078 4.01426267623901367 -0.678786396980285645
1.61265814304351807 0.697039604187011719 -1.32949090003967285
2.72084784507751465 -0.344585597515106201 -0.723728179931640625
1.94691991806030273 -0.38666921854019165 -1.54073441028594971
2.41167306900024414 -1.04769182205200195 -1.30339336395263672
1.4011995792388916 0.540144443511962891 -1.31850206851959229
1.45858955383300781 0.738344967365264893 -1.15638077259063721
2.14657020568847656 -1.65214741230010986 -1.41631746292114258
2.02224445343017578 -0.00888606160879135132 -1.48897016048431396
0.0486187562346458435 -0.235837534070014954 -1.57657539844512939
0.290468484163284302 0.653417348861694336 -1.19283914566040039
3.1557164192199707 3.19880843162536621 -0.670180261135101318
1.43547236919403076 -2.26761651039123535 -1.49749624729156494
1.40737438201904297 0.540434896945953369 -1.31965422630310059
2.25790309906005859 0.470923960208892822 -1.34643375873565674
1.09416818618774414 -0.5117759108543396 -1.48582923412322998
2.56834888458251953 4.01577091217041016 -0.738005697727203369
2.68369293212890625 1.40154433250427246 -0.409382909536361694
2.12553906440734863 -1.59941816329956055 -1.36079561710357666
2.39893460273742676 -1.05790698528289795 -1.32471215724945068
1.476737380027771 0.528701245784759521 -1.31722903251647949
2.65476202964782715 -0.0933154672384262085 -1.35825419425964355
1.44464552402496338 0.969583034515380859 -1.07973158359527588
0.922910034656524658 -1.55925750732421875 -1.32834041118621826
-0.073327280580997467 1.09715282917022705 -1.04171836376190186
1.42063546180725098 0.554606258869171143 -1.31725168228149414
0.730935156345367432 -0.180959910154342651 -1.60807764530181885
2.72486186027526855 -0.323158144950866699 -1.08889961242675781
1.49691534042358398 0.542169868946075439 -1.30568873882293701
2.02856016159057617 0.066858142614364624 -1.49115967750549316
3.26741313934326172 3.18618893623352051 -0.710234880447387695
0.370578169822692871 0.824272871017456055 -1.22668707370758057
1.30817413330078125 0.403158843517303467 -1.28859055042266846
2.74460721015930176 -0.327975302934646606 -0.967254102230072021
1.62483382225036621 0.0365129262208938599 -1.34495389461517334
2.1033174991607666 -1.62171661853790283 -1.3748478889465332
2.56537270545959473 4.0158238410949707 -0.711477816104888916
1.234641432762146 1.14566886425018311 -0.508911967277526855
2.56330227851867676 4.00867891311645508 -0.737050771713256836
1.10109663009643555 -0.514928340911865234 -1.48328280448913574
1.3973318338394165 0.530562043190002441 -1.31278657913208008
2.41187334060668945 -1.04673361778259277 -1.32438671588897705
2.72479867935180664 1.64895188808441162 -0.386022865772247314
2.0293271541595459 0.0730201750993728638 -1.45784997940063477
1.11058139801025391 0.571709692478179932 -1.2907332181930542
1.42925798892974854 -1.70917689800262451 -1.43018019199371338
0.895991384983062744 -0.889483332633972168 -1.5897219181060791
1.09395182132720947 -0.507305622100830078 -1.4775536060333252
2.6195366382598877 -0.685339808464050293 -1.25616717338562012
1.44021785259246826 0.546923279762268066 -1.30215060710906982
0.952378153800964355 -1.58111536502838135 -1.3598334789276123
1.11724317073822021 -0.522881627082824707 -1.46654784679412842
1.53077173233032227 0.160811126232147217 -1.64535427093505859
2.70531916618347168 3.73748230934143066 -0.556123673915863037
2.65223836898803711 -0.245059505105018616 -1.176688551902771
1.36644434928894043 0.438473880290985107 -1.40762519836425781
3.31328034400939941 3.19068455696105957 -0.656582832336425781
1.09599721431732178 0.497474819421768188 -1.54642570018768311
2.01585865020751953 0.0239892415702342987 -1.50418698787689209
1.5873878002166748 0.530152797698974609 -1.29432260990142822
1.48723757266998291 0.811646163463592529 -1.13279438018798828
2.13206338882446289 -1.62285017967224121 -1.4239577054977417
2.99704480171203613 3.43536281585693359 -0.60337597131729126
1.44886195659637451 0.549339771270751953 -1.30385911464691162
1.4098823070526123 0.550245344638824463 -1.30859768390655518
2.7053985595703125 -0.30575639009475708 -0.936462223529815674
0.764676392078399658 -1.60796654224395752 -1.45066595077514648
2.57777023315429688 3.92290973663330078 -0.715527951717376709
2.74796557426452637 0.210760846734046936 -0.514511525630950928
1.40839517116546631 0.552392482757568359 -1.30903351306915283
2.5685279369354248 4.02041721343994141 -0.722386717796325684
3.13566231727600098 3.19014239311218262 -0.705834507942199707
1.10280847549438477 -0.521029114723205566 -1.47176098823547363
1.08843696117401123 -0.506228983402252197 -1.48432683944702148
1.40546047687530518 0.556011795997619629 -1.30820906162261963
1.37350857257843018 0.334807038307189941 -1.34112238883972168
2.54484891891479492 4.05937957763671875 -0.732160747051239014
1.41365456581115723 0.56583172082901001 -1.30530452728271484
2.02556800842285156 0.214759945869445801 -1.38013720512390137
2.76468086242675781 0.436996668577194214 -0.331954538822174072
3.34080767631530762 3.19667577743530273 -0.733046591281890869
3.12713980674743652 3.19925498962402344 -0.688595116138458252
2.01017093658447266 -2.45816469192504883 -1.44416224956512451
0.929099798202514648 0.758423268795013428 -1.49964261054992676
2.39638066291809082 -1.04667234420776367 -1.32417035102844238
-0.197117716073989868 1.10421395301818848 -1.12814640998840332
2.39596843719482422 -1.05764436721801758 -1.323760986328125
1.34723043441772461 0.55336308479309082 -1.30316841602325439
1.5703885555267334 0.118061065673828125 -1.31158649921417236
1.45274579524993896 0.547625422477722168 -1.30421864986419678
1.10550498962402344 -0.51428830623626709 -1.48627960681915283
2.12776541709899902 -1.6552741527557373 -1.36332881450653076
1.88638460636138916 0.48230975866317749 -1.30507183074951172
1.42005312442779541 0.542567253112792969 -1.30828499794006348
2.01890802383422852 -0.0653068497776985168 -1.50679445266723633
2.39736509323120117 -1.05646431446075439 -1.32422888278961182
0.060798943042755127 1.10493898391723633 -0.980542838573455811
1.99834346771240234 -0.00272065401077270508 -1.494498610496521
2.67329668998718262 -1.14072763919830322 -1.27789366245269775
0.778589308261871338 -1.58400046825408936 -1.42228531837463379
2.73970150947570801 -0.332711011171340942 -0.992499649524688721
1.34594869613647461 0.373514056205749512 -1.42333781719207764
-0.146495923399925232 0.573792457580566406 -1.36826932430267334
2.60183954238891602 1.52052032947540283 -0.400591015815734863
1.74026155471801758 -1.50928199291229248 -1.57679533958435059
2.74264717102050781 -0.40176546573638916 -1.06716811656951904
1.41560351848602295 0.546984314918518066 -1.3081049919128418
0.285133481025695801 1.07760918140411377 -0.541520655155181885
0.958906769752502441 -1.56139922142028809 -1.38815188407897949
0.525633275508880615 0.142250493168830872 -1.64762818813323975
2.95329642295837402 3.37898612022399902 -0.566118896007537842
1.10997354984283447 -0.51514202356338501 -1.47900938987731934
1.71602404117584229 0.36175459623336792 -1.29853558540344238
1.43972456455230713 0.247256532311439514 -1.30359983444213867
2.07949662208557129 0.592123866081237793 -1.35099697113037109
1.41919708251953125 0.533996105194091797 -1.32037353515625
2.5435636043548584 4.07758140563964844 -0.702997863292694092
2.66231226921081543 -1.06423211097717285 -1.26874113082885742
2.02582311630249023 0.0253852978348731995 -1.48981106281280518
0.970824241638183594 -1.57806193828582764 -1.34899461269378662
2.38946318626403809 -1.05799651145935059 -1.36290490627288818
1.13582742214202881 -0.510370016098022461 -1.50287008285522461
0.818904578685760498 0.616926074028015137 -1.34684181213378906
2.57537245750427246 3.99965310096740723 -0.716771185398101807
3.19968724250793457 3.1974949836730957 -0.668471753597259521
2.64976358413696289 -1.22065746784210205 -1.21377468109130859
1.95879340171813965 0.0754496678709983826 -1.44854295253753662
2.05476999282836914 -0.0300572142004966736 -1.51148176193237305
2.03015971183776855 0.0722129642963409424 -1.44010210037231445
1.39105093479156494 0.546380162239074707 -1.30776774883270264
1.12133419513702393 -0.520513713359832764 -1.4701462984085083
2.39906668663024902 -1.06273257732391357 -1.32397186756134033
2.05157732963562012 -0.156029671430587769 -1.54678642749786377
1.11773192882537842 -0.521489500999450684 -1.46793484687805176
1.45634710788726807 0.559895157814025879 -1.30330824851989746
1.42406678199768066 -2.02128434181213379 -1.51748621463775635
2.14860248565673828 -1.64975154399871826 -1.41334044933319092
1.96755516529083252 0.492825686931610107 -1.32651841640472412
1.48494398593902588 -0.172721713781356812 -1.43198752403259277
1.39671468734741211 0.55082237720489502 -1.31207168102264404
1.40414416790008545 0.540642738342285156 -1.31152117252349854
1.11442780494689941 -0.534873843193054199 -1.48235642910003662
2.74496150016784668 -0.23228001594543457 -1.12339401245117188
2.00364112854003906 -0.00983615592122077942 -1.49062061309814453
1.39314448833465576 0.551011979579925537 -1.33832800388336182
1.39997982978820801 0.558909833431243896 -1.29939806461334229
2.38986420631408691 -1.05078673362731934 -1.32508683204650879
1.40303337574005127 0.540387749671936035 -1.31337547302246094
2.56496238708496094 4.01334142684936523 -0.719839274883270264
1.39874601364135742 0.534624695777893066 -1.31160402297973633
2.57020902633666992 4.01895523071289062 -0.729364275932312012
0.709590435028076172 -1.58690834045410156 -1.43932497501373291
1.13316464424133301 1.16342175006866455 -0.497428566217422485
1.4758373498916626 0.44521784782409668 -1.3235321044921875
-0.131082847714424133 1.06697940826416016 -1.09081649780273438
2.02480244636535645 0.022215401753783226 -1.50131070613861084
2.01743459701538086 0.0103219747543334961 -1.49332642555236816
1.38999485969543457 0.554189860820770264 -1.32084488868713379
2.14767122268676758 -1.66069972515106201 -1.38229537010192871
2.73970150947570801 0.0409620329737663269 -0.532420694828033447
0.176573842763900757 0.681478798389434814 -1.26489198207855225
1.83039021492004395 -1.77083194255828857 -1.44012582302093506
2.69149327278137207 -0.52109980583190918 -1.10536408424377441
1.58244442939758301 0.52362668514251709 -1.28686058521270752
0.83594977855682373 -0.0666564926505088806 -1.62978315353393555
2.71472072601318359 -0.303570955991744995 -1.08469939231872559
1.32764875888824463 0.56045079231262207 -1.30575275421142578
1.51675784587860107 0.525414943695068359 -1.33951997756958008
0.762625157833099365 1.05356383323669434 -0.812102794647216797
2.70983338356018066 -0.794464945793151855 -1.45956456661224365
2.74874496459960938 1.58787667751312256 -0.371546328067779541
1.44657576084136963 0.702186346054077148 -1.2781059741973877
2.5927121639251709 3.85429883003234863 -0.687583208084106445
1.4301450252532959 0.534701824188232422 -1.31085526943206787
1.45099103450775146 0.549680054187774658 -1.30434155464172363
1.51644086837768555 0.946421205997467041 -1.136086106300354
0.565314769744873047 -0.318830430507659912 -1.63133060932159424
1.11670482158660889 -0.525321364402770996 -1.49709784984588623
1.20497548580169678 -0.269066363573074341 -1.60122001171112061
0.757304728031158447 -0.0306462496519088745 -1.69154977798461914
1.43430805206298828 0.551126539707183838 -1.30740141868591309
0.475184172391891479 0.424165844917297363 -1.52088141441345215
2.74932575225830078 0.572422444820404053 -0.326792389154434204
2.55889320373535156 4.0167236328125 -0.755980610847473145
1.56551706790924072 0.503410160541534424 -1.29117739200592041
2.39299607276916504 -1.0481562614440918 -1.32185804843902588
1.42185294628143311 0.553544700145721436 -1.31625616550445557
3.18693137168884277 3.18540191650390625 -0.699889242649078369
2.70004057884216309 -0.0296152830123901367 -1.19849860668182373
1.64230930805206299 -1.40940427780151367 -1.60875785350799561
1.45413267612457275 0.546030282974243164 -1.30333864688873291
1.0879204273223877 -0.511014401912689209 -1.47143685817718506
1.44011867046356201 0.547455787658691406 -1.3022770881652832
1.10397446155548096 -0.505903422832489014 -1.481880784034729
2.58281779289245605 3.99374127388000488 -0.717172205448150635
2.7882540225982666 0.319722652435302734 -1.29634416103363037
2.01826786994934082 0.0581194087862968445 -1.44429445266723633
1.40993010997772217 0.541256189346313477 -1.30579125881195068
1.32244396209716797 0.577521800994873047 -1.31759536266326904
1.09746742248535156 -0.513063251972198486 -1.47744321823120117
2.57604312896728516 3.96079087257385254 -0.731948494911193848
0.953355073928833008 -1.56137990951538086 -1.3869023323059082
2.70194363594055176 -0.902835369110107422 -1.06979799270629883
2.7273709774017334 -0.312547743320465088 -1.08913135528564453
2.59160208702087402 3.87205100059509277 -0.654936492443084717
1.26433432102203369 0.594520986080169678 -1.32731854915618896
1.88479411602020264 0.348923385143280029 -1.31998634338378906
1.42850601673126221 0.541878759860992432 -1.30588412284851074
2.45417022705078125 -1.05929887294769287 -1.31455397605895996
3.11724591255187988 3.19919753074645996 -0.669517397880554199
1.50167632102966309 0.534204840660095215 -1.3081507682800293
2.10702013969421387 -1.64622342586517334 -1.3867342472076416
2.02321219444274902 0.0158653818070888519 -1.50160479545593262
2.68805170059204102 -1.04137349128723145 -1.17033779621124268
3.25616359710693359 3.18926525115966797 -0.714559495449066162
1.51423358917236328 1.08580899238586426 -0.817776858806610107
1.09327864646911621 -0.532934665679931641 -1.46386814117431641
1.45472931861877441 0.29055410623550415 -1.35217583179473877
2.01726722717285156 0.125939890742301941 -1.42870306968688965
2.74035143852233887 0.365601599216461182 -0.483687102794647217
2.01549077033996582 -0.0911839008331298828 -1.48577260971069336
2.54200315475463867 4.05681800842285156 -0.746811568737030029
2.02124238014221191 0.0577438361942768097 -1.49041283130645752
1.40860593318939209 0.551411449909210205 -1.31941020488739014
3.09371709823608398 3.20693397521972656 -0.704893708229064941
2.56363344192504883 4.00866031646728516 -0.733459770679473877
0.890596508979797363 -1.59014689922332764 -1.38894283771514893
2.74266147613525391 -0.330050438642501831 -1.16174125671386719
2.76726961135864258 0.164688557386398315 -0.687622129917144775
2.11320161819458008 -1.67364585399627686 -1.38045680522918701
2.02616739273071289 0.0144882220774888992 -1.50119125843048096
2.10942459106445312 -1.64868366718292236 -1.35933387279510498
2.6510765552520752 0.865424573421478271 -1.33181631565093994
3.17791199684143066 3.18799114227294922 -0.686184346675872803
1.41820049285888672 0.562521040439605713 -1.30922532081604004
1.9943695068359375 -2.48772192001342773 -1.68073451519012451
1.41389238834381104 0.546646773815155029 -1.31965732574462891
1.62267112731933594 0.708612918853759766 -1.30781459808349609
2.39523792266845703 0.578561246395111084 -0.695225536823272705
3.09761404991149902 3.20369100570678711 -0.682508349418640137
2.64359831809997559 -0.361197918653488159 -1.00292468070983887
2.39666080474853516 -1.05220460891723633 -1.32455921173095703
2.3986668586730957 -1.04633426666259766 -1.32411777973175049
3.27996063232421875 3.18830466270446777 -0.685289442539215088
1.39828693866729736 0.542509913444519043 -1.3124159574508667
