ply
format ascii 1.0
element vertex 103
comment vertices
property float x
property float y
property float z
end_header
1.39046430587768555 0.533446907997131348 -1.32555007934570312
2.41167306900024414 -1.04769182205200195 -1.30339336395263672
1.4011995792388916 0.540144443511962891 -1.31850206851959229
1.45858955383300781 0.738344967365264893 -1.15638077259063721
2.02224445343017578 -0.00888606160879135132 -1.48897016048431396
1.40737438201904297 0.540434896945953369 -1.31965422630310059
1.09416818618774414 -0.5117759108543396 -1.48582923412322998
2.39893460273742676 -1.05790698528289795 -1.32471215724945068
1.476737380027771 0.528701245784759521 -1.31722903251647949
1.42063546180725098 0.554606258869171143 -1.31725168228149414
1.49691534042358398 0.542169868946075439 -1.30568873882293701
2.02856016159057617 0.066858142614364624 -1.49115967750549316
1.30817413330078125 0.403158843517303467 -1.28859055042266846
1.10109663009643555 -0.514928340911865234 -1.48328280448913574
1.3973318338394165 0.530562043190002441 -1.31278657913208008
2.41187334060668945 -1.04673361778259277 -1.32438671588897705
2.0293271541595459 0.0730201750993728638 -1.45784997940063477
1.09395182132720947 -0.507305622100830078 -1.4775536060333252
1.44021785259246826 0.546923279762268066 -1.30215060710906982
1.11724317073822021 -0.522881627082824707 -1.46654784679412842
1.36644434928894043 0.438473880290985107 -1.40762519836425781
2.01585865020751953 0.0239892415702342987 -1.50418698787689209
1.5873878002166748 0.530152797698974609 -1.29432260990142822
1.44886195659637451 0.549339771270751953 -1.30385911464691162
1.4098823070526123 0.550245344638824463 -1.30859768390655518
1.40839517116546631 0.552392482757568359 -1.30903351306915283
1.10280847549438477 -0.521029114723205566 -1.47176098823547363
1.08843696117401123 -0.506228983402252197 -1.48432683944702148
1.40546047687530518 0.556011795997619629 -1.30820906162261963
1.41365456581115723 0.56583172082901001 -1.30530452728271484
2.02556800842285156 0.214759945869445801 -1.38013720512390137
2.39638066291809082 -1.04667234420776367 -1.32417035102844238
2.39596843719482422 -1.05764436721801758 -1.323760986328125
1.34723043441772461 0.55336308479309082 -1.30316841602325439
1.45274579524993896 0.547625422477722168 -1.30421864986419678
1.10550498962402344 -0.51428830623626709 -1.48627960681915283
1.42005312442779541 0.542567253112792969 -1.30828499794006348
2.01890802383422852 -0.0653068497776985168 -1.50679445266723633
2.39736509323120117 -1.05646431446075439 -1.32422888278961182
1.99834346771240234 -0.00272065401077270508 -1.494498610496521
1.41560351848602295 0.546984314918518066 -1.3081049919128418
1.10997354984283447 -0.51514202356338501 -1.47900938987731934
1.71602404117584229 0.36175459623336792 -1.29853558540344238
1.41919708251953125 0.533996105194091797 -1.32037353515625
2.02582311630249023 0.0253852978348731995 -1.48981106281280518
2.38946318626403809 -1.05799651145935059 -1.36290490627288818
1.13582742214202881 -0.510370016098022461 -1.50287008285522461
1.95879340171813965 0.0754496678709983826 -1.44854295253753662
2.05476999282836914 -0.0300572142004966736 -1.51148176193237305
2.03015971183776855 0.0722129642963409424 -1.44010210037231445
1.39105093479156494 0.546380162239074707 -1.30776774883270264
1.12133419513702393 -0.520513713359832764 -1.4701462984085083
2.39906668663024902 -1.06273257732391357 -1.32397186756134033
1.11773192882537842 -0.521489500999450684 -1.46793484687805176
1.45634710788726807 0.559895157814025879 -1.30330824851989746
1.39671468734741211 0.55082237720489502 -1.31207168102264404
1.40414416790008545 0.540642738342285156 -1.31152117252349854
1.11442780494689941 -0.534873843193054199 -1.48235642910003662
2.00364112854003906 -0.00983615592122077942 -1.49062061309814453
1.39314448833465576 0.551011979579925537 -1.33832800388336182
1.39997982978820801 0.558909833431243896 -1.29939806461334229
2.38986420631408691 -1.05078673362731934 -1.32508683204650879
1.40303337574005127 0.540387749671936035 -1.31337547302246094
1.39874601364135742 0.534624695777893066 -1.31160402297973633
1.4758373498916626 0.44521784782409668 -1.3235321044921875
2.02480244636535645 0.022215401753783226 -1.50131070613861084
2.01743459701538086 0.0103219747543334961 -1.49332642555236816
1.38999485969543457 0.554189860820770264 -1.32084488868713379
1.58244442939758301 0.52362668514251709 -1.28686058521270752
1.32764875888824463 0.56045079231262207 -1.30575275421142578
1.51675784587860107 0.525414943695068359 -1.33951997756958008
1.44657576084136963 0.702186346054077148 -1.2781059741973877
1.4301450252532959 0.534701824188232422 -1.31085526943206787
1.45099103450775146 0.549680054187774658 -1.30434155464172363
1.11670482158660889 -0.525321364402770996 -1.49709784984588623
1.43430805206298828 0.551126539707183838 -1.30740141868591309
1.56551706790924072 0.503410160541534424 -1.29117739200592041
2.39299607276916504 -1.0481562614440918 -1.32185804843902588
1.42185294628143311 0.553544700145721436 -1.31625616550445557
1.45413267612457275 0.546030282974243164 -1.30333864688873291
1.0879204273223877 -0.511014401912689209 -1.47143685817718506
1.44011867046356201 0.547455787658691406 -1.3022770881652832
1.10397446155548096 -0.505903422832489014 -1.481880784034729
2.01826786994934082 0.0581194087862968445 -1.44429445266723633
1.40993010997772217 0.541256189346313477 -1.30579125881195068
1.32244396209716797 0.577521800994873047 -1.31759536266326904
1.09746742248535156 -0.513063251972198486 -1.47744321823120117
1.26433432102203369 0.594520986080169678 -1.32731854915618896
1.42850601673126221 0.541878759860992432 -1.30588412284851074
2.45417022705078125 -1.05929887294769287 -1.31455397605895996
1.50167632102966309 0.534204840660095215 -1.3081507682800293
2.02321219444274902 0.0158653818070888519 -1.50160479545593262
1.09327864646911621 -0.532934665679931641 -1.46386814117431641
2.01726722717285156 0.125939890742301941 -1.42870306968688965
2.01549077033996582 -0.0911839008331298828 -1.48577260971069336
2.02124238014221191 0.0577438361942768097 -1.49041283130645752
1.40860593318939209 0.551411449909210205 -1.31941020488739014
2.02616739273071289 0.0144882220774888992 -1.50119125843048096
1.41820049285888672 0.562521040439605713 -1.30922532081604004
1.41389238834381104 0.546646773815155029 -1.31965732574462891
2.39666080474853516 -1.05220460891723633 -1.32455921173095703
2.3986668586730957 -1.04633426666259766 -1.32411777973175049
1.39828693866729736 0.542509913444519043 -1.3124159574508667
