ply
format ascii 1.0
element vertex 256
comment vertices
property float x
property float y
property float z
end_header
1.29954266548156738 0.394781291484832764 -1.28004193305969238
2.52759242057800293 4.08158445358276367 -0.631376862525939941
1.59651923179626465 -2.19430923461914062 -1.43736624717712402
0.3826865553855896 -0.586202681064605713 -1.6316826343536377
-0.262408226728439331 1.16322314739227295 -1.00332319736480713
2.74570965766906738 1.45268547534942627 -0.407441377639770508
3.43678569793701172 3.20432162284851074 -0.641997814178466797
2.72110509872436523 -0.464820235967636108 -1.14423024654388428
0.575964689254760742 1.11002421379089355 -0.520747125148773193
1.11287271976470947 0.151009544730186462 -1.60642778873443604
3.02392029762268066 3.21126198768615723 -0.665560543537139893
2.35683298110961914 0.854405105113983154 -1.27164292335510254
2.77591204643249512 0.252955645322799683 -0.770585536956787109
2.56559085845947266 3.96194195747375488 -0.592908859252929688
0.977632641792297363 0.690394937992095947 -1.32839834690093994
2.01515769958496094 0.195428669452667236 -1.44316768646240234
1.65119218826293945 0.619757652282714844 -1.27402281761169434
2.32947301864624023 -1.58337032794952393 -1.41013026237487793
1.44503974914550781 0.84106135368347168 -1.18895232677459717
1.0023043155670166 -1.5281301736831665 -1.42106759548187256
1.08003759384155273 -0.528819799423217773 -1.46995162963867188
1.36441731452941895 0.577192544937133789 -1.32186496257781982
1.50752878189086914 0.536582648754119873 -1.26232004165649414
1.99433577060699463 -1.62325584888458252 -1.36806857585906982
3.20440459251403809 3.20253634452819824 -0.62367933988571167
2.02890825271606445 0.200498625636100769 -1.36556637287139893
2.68282866477966309 0.873059332370758057 -0.473024696111679077
1.81939971446990967 0.266778022050857544 -1.33242106437683105
0.425613105297088623 -0.199281737208366394 -1.34932219982147217
2.37470316886901855 -1.05138075351715088 -1.29825842380523682
1.53611791133880615 0.332056522369384766 -1.3334578275680542
2.53226375579833984 4.00440359115600586 -0.630085408687591553
3.26588606834411621 3.21562314033508301 -0.688144564628601074
1.44311988353729248 -1.86338675022125244 -1.52557730674743652
2.79242134094238281 0.0841927528381347656 -1.06655669212341309
1.2893754243850708 0.507667660713195801 -1.3033604621887207
0.611930549144744873 0.745991945266723633 -1.35417914390563965
1.10424864292144775 -0.531844794750213623 -1.4722210168838501
1.70988690853118896 -0.0381355807185173035 -1.35303688049316406
0.900899291038513184 0.0988786369562149048 -1.58567023277282715
-0.0787471234798431396 1.1522369384765625 -0.831536412239074707
0.894069850444793701 -1.61950135231018066 -1.48870968818664551
2.72233104705810547 0.810331642627716064 -0.374826043844223022
2.52322244644165039 3.97597384452819824 -0.772609889507293701
1.72742760181427002 -1.79664969444274902 -1.58688223361968994
1.32938134670257568 0.539043784141540527 -1.30925846099853516
1.31021666526794434 0.574500083923339844 -1.32101047039031982
1.53732442855834961 0.151028037071228027 -1.28609669208526611
1.85711169242858887 0.0412383750081062317 -1.30358767509460449
2.10518789291381836 -1.64868903160095215 -1.42116904258728027
2.54487156867980957 -1.35381162166595459 -1.28542256355285645
1.30407106876373291 0.575780868530273438 -1.32071805000305176
0.10999598354101181 1.09192299842834473 -0.976812422275543213
2.53394389152526855 3.97482156753540039 -0.627552449703216553
2.72508001327514648 -0.442237287759780884 -1.04967713356018066
2.03243303298950195 0.0809877514839172363 -1.46557819843292236
1.9682013988494873 0.204519957304000854 -1.357002854347229
2.01694107055664062 0.181321799755096436 -1.3976970911026001
2.37638425827026367 -1.0376739501953125 -1.32054948806762695
1.37836408615112305 0.338530272245407104 -1.32818722724914551
1.10282695293426514 -0.531666934490203857 -1.46989798545837402
1.06550872325897217 -0.523788392543792725 -1.45928966999053955
1.44593346118927002 0.493487566709518433 -1.27027392387390137
0.906208336353302002 -1.49797677993774414 -1.43376564979553223
1.39973688125610352 0.569579184055328369 -1.27675318717956543
2.76486706733703613 1.38128030300140381 -0.421674013137817383
2.02998495101928711 0.232847213745117188 -1.36722385883331299
1.13486146926879883 -1.54612243175506592 -1.48891770839691162
1.27739965915679932 0.435118496417999268 -1.32030653953552246
2.56360769271850586 3.88382506370544434 -0.668138504028320312
1.99237465858459473 0.219029396772384644 -1.37026464939117432
2.54065394401550293 3.94748187065124512 -0.696822464466094971
1.2253495454788208 -1.62197327613830566 -1.41418957710266113
3.34693694114685059 3.21830391883850098 -0.701473772525787354
2.37615680694580078 -1.05142426490783691 -1.29945039749145508
2.54102349281311035 4.12569618225097656 -0.509626328945159912
2.04476189613342285 0.247410967946052551 -1.36324059963226318
1.99758422374725342 0.188888669013977051 -1.38529622554779053
2.89016127586364746 -0.297920405864715576 -1.16058933734893799
1.0779874324798584 -0.52666175365447998 -1.47493910789489746
1.4391474723815918 0.136310607194900513 -1.30098116397857666
0.855989634990692139 0.67025071382522583 -1.66512036323547363
1.06336164474487305 -0.53009563684463501 -1.49526751041412354
2.75773358345031738 -0.334587395191192627 -1.04834258556365967
1.07703578472137451 -0.523024082183837891 -1.48023343086242676
2.71930313110351562 -0.56991344690322876 -1.21511983871459961
2.07301807403564453 -1.52869319915771484 -1.36535358428955078
3.19464397430419922 3.21200037002563477 -0.670933127403259277
1.39764213562011719 0.21711750328540802 -1.24736320972442627
3.05213570594787598 3.53096127510070801 -0.727541983127593994
3.26520442962646484 3.2148585319519043 -0.660819947719573975
2.3859703540802002 -1.03610646724700928 -1.311043381690979
1.37220358848571777 0.589902400970458984 -1.27054393291473389
2.74581670761108398 1.48158407211303711 -0.440118491649627686
0.968803346157073975 -1.57568156719207764 -1.48575866222381592
1.07381832599639893 -0.523617863655090332 -1.47841942310333252
1.07290327548980713 0.122383914887905121 -1.60331296920776367
2.40630865097045898 -1.02745151519775391 -1.30260694026947021
1.62901425361633301 0.320640981197357178 -1.31152760982513428
1.51382219791412354 -2.27676773071289062 -1.43652474880218506
2.02751040458679199 0.102259889245033264 -1.45430183410644531
2.75083661079406738 0.572211146354675293 -0.603231728076934814
2.37314081192016602 -1.03529250621795654 -1.29773223400115967
2.78581523895263672 0.224191069602966309 -1.05005979537963867
2.24410820007324219 0.833185493946075439 -1.29076981544494629
1.9984511137008667 0.195414826273918152 -1.39925885200500488
1.06282985210418701 -0.544179856777191162 -1.48199272155761719
0.925342202186584473 0.509005308151245117 -1.38739311695098877
1.3694007396697998 0.573226451873779297 -1.3056405782699585
-0.0884861871600151062 1.13182425498962402 -0.986514091491699219
3.15804147720336914 3.20021629333496094 -0.633158028125762939
1.31173932552337646 0.544875383377075195 -1.31466376781463623
2.02239513397216797 -1.62996220588684082 -1.38915908336639404
2.38122677803039551 -1.0316774845123291 -1.32126152515411377
0.987405061721801758 -1.6000826358795166 -1.41584110260009766
2.01460552215576172 0.220538288354873657 -1.36089956760406494
2.54557037353515625 4.10229396820068359 -0.66885066032409668
0.684067487716674805 1.09187352657318115 -0.687363982200622559
1.30749833583831787 0.573527157306671143 -1.31765449047088623
1.28116285800933838 0.533931612968444824 -1.32728934288024902
1.23944664001464844 0.483999252319335938 -1.33786630630493164
2.01938271522521973 0.187293976545333862 -1.37580788135528564
2.75939512252807617 -0.182464912533760071 -1.10299956798553467
1.06914055347442627 -0.529424369335174561 -1.47530603408813477
1.09334790706634521 -0.52894902229309082 -1.47137248516082764
1.59330737590789795 0.350942224264144897 -1.29250872135162354
1.10287320613861084 1.20226991176605225 -0.423026919364929199
1.06180262565612793 -1.56824827194213867 -1.44017159938812256
1.37928175926208496 0.567747414112091064 -1.26715695858001709
2.04125308990478516 0.207343012094497681 -1.36763632297515869
2.3821403980255127 -1.0378042459487915 -1.30571281909942627
1.07381510734558105 -0.550335168838500977 -1.47040796279907227
1.50468504428863525 0.384115338325500488 -1.27696537971496582
2.52510476112365723 3.9581446647644043 -0.736248493194580078
2.6314389705657959 -0.906086623668670654 -1.3768155574798584
1.08631265163421631 0.0786245092749595642 -1.60717117786407471
2.39660739898681641 -1.0766531229019165 -1.31176352500915527
2.03609991073608398 0.235140308737754822 -1.37925827503204346
2.5290830135345459 4.00719356536865234 -0.665276050567626953
2.04028034210205078 0.235710620880126953 -1.375632643699646
1.98257684707641602 0.225735917687416077 -1.34827065467834473
1.10009932518005371 -0.522748768329620361 -1.48608803749084473
1.36370229721069336 0.101098679006099701 -1.33804774284362793
-0.226969033479690552 0.665327489376068115 -0.987955272197723389
1.36339688301086426 0.209299206733703613 -1.25044310092926025
1.38366794586181641 0.582922101020812988 -1.31171214580535889
2.01409053802490234 0.202796414494514465 -1.37007820606231689
0.551205456256866455 0.142319723963737488 -1.63069522380828857
0.617739975452423096 1.10249602794647217 -0.706930696964263916
1.38615298271179199 0.21311071515083313 -1.26137065887451172
2.55721664428710938 3.8962092399597168 -0.671137154102325439
2.77283191680908203 0.0626927837729454041 -1.08704781532287598
2.01273274421691895 0.224869564175605774 -1.36186063289642334
1.60521543025970459 -0.0459371842443943024 -1.41262590885162354
1.43859994411468506 0.181392863392829895 -1.271262526512146
2.4300236701965332 -1.56103646755218506 -1.33834159374237061
1.95137786865234375 0.132615268230438232 -1.34292328357696533
3.07626104354858398 -0.232695296406745911 -1.3772733211517334
1.23364126682281494 0.337510883808135986 -1.34219777584075928
1.38259148597717285 0.575465083122253418 -1.26482141017913818
0.852369248867034912 -1.6105341911315918 -1.48711764812469482
2.72324132919311523 0.446721285581588745 -0.73878014087677002
2.50911045074462891 -0.962928533554077148 -1.40392851829528809
1.32323670387268066 0.478910267353057861 -1.31412386894226074
1.99191093444824219 0.234747737646102905 -1.3676307201385498
2.37717342376708984 -1.04300236701965332 -1.3037879467010498
1.48887145519256592 0.51174318790435791 -1.29679405689239502
1.3026885986328125 0.552988350391387939 -1.31467807292938232
2.54866218566894531 4.10594320297241211 -0.418503761291503906
1.30876302719116211 0.573209404945373535 -1.31600749492645264
1.07541990280151367 -0.53945612907409668 -1.48543107509613037
0.980111896991729736 -1.52130401134490967 -1.42287063598632812
2.34335803985595703 -1.05055737495422363 -1.41697728633880615
1.41143393516540527 0.192434877157211304 -1.26460874080657959
-0.213156387209892273 1.14443135261535645 -0.983466982841491699
1.13151156902313232 -0.121889166533946991 -1.60389208793640137
1.42411720752716064 0.21190035343170166 -1.27585899829864502
1.43248724937438965 1.00866210460662842 -1.02613282203674316
1.38694906234741211 -0.0849710851907730103 -1.38494384288787842
2.76634454727172852 0.212711751461029053 -0.821865439414978027
1.51279377937316895 0.338753670454025269 -1.29746150970458984
2.53719735145568848 4.00195741653442383 -0.576491057872772217
1.51392531394958496 0.299366891384124756 -1.28780806064605713
2.75396466255187988 -0.251378953456878662 -0.890634715557098389
3.30783200263977051 3.207855224609375 -0.65182417631149292
1.30646777153015137 0.544083476066589355 -1.31624138355255127
3.37529850006103516 3.19883537292480469 -0.638761758804321289
2.6032555103302002 3.86760234832763672 -0.613399267196655273
1.99386632442474365 0.132655009627342224 -1.45937204360961914
1.07256400585174561 -0.527066707611083984 -1.48115074634552002
2.39266729354858398 -1.21952712535858154 -1.35444414615631104
2.0366361141204834 0.223863467574119568 -1.35243713855743408
2.54241371154785156 3.95370912551879883 -0.674388527870178223
2.37393975257873535 -1.04906284809112549 -1.29977023601531982
2.3753809928894043 -1.04606616497039795 -1.29409182071685791
1.29929792881011963 0.482455790042877197 -1.30882668495178223
3.22298216819763184 3.20969033241271973 -0.639713466167449951
0.973991632461547852 -1.44997549057006836 -1.39993667602539062
2.03931736946105957 0.259527325630187988 -1.3727719783782959
-0.239895060658454895 1.1419062614440918 -0.987268030643463135
1.31997513771057129 0.540780186653137207 -1.31488275527954102
3.09942865371704102 3.19861531257629395 -0.652121603488922119
2.74548554420471191 0.5740775465965271 -0.412562668323516846
1.30814075469970703 0.543737590312957764 -1.31448793411254883
2.01876449584960938 -2.14242100715637207 -1.58307170867919922
1.68888950347900391 -2.25447559356689453 -1.54204869270324707
0.0705511197447776794 1.13363099098205566 -0.685966372489929199
2.43057799339294434 -1.58302509784698486 -1.36701846122741699
2.77208280563354492 1.29514110088348389 -0.429065436124801636
1.2569204568862915 0.571486771106719971 -1.280936598777771
1.39067697525024414 -1.64296615123748779 -1.4357229471206665
2.00341010093688965 -1.62618064880371094 -1.37744128704071045
3.28621816635131836 3.20650625228881836 -0.641421139240264893
2.77961635589599609 -0.111025750637054443 -0.970436334609985352
2.00760364532470703 0.073060251772403717 -1.46414279937744141
2.5451962947845459 3.94970273971557617 -0.716416001319885254
2.53344368934631348 3.99559688568115234 -0.638919591903686523
1.67553460597991943 -0.0573087558150291443 -1.26506984233856201
2.01854038238525391 0.20798221230506897 -1.37223875522613525
2.61889123916625977 -0.794750213623046875 -1.26210868358612061
2.72863006591796875 1.51849853992462158 -0.435493707656860352
1.31167447566986084 0.517592668533325195 -1.31144797801971436
1.02547001838684082 -1.52949631214141846 -1.41622579097747803
2.02700638771057129 0.211399316787719727 -1.36600542068481445
1.07698893547058105 -0.530283153057098389 -1.47336375713348389
1.69355010986328125 0.539258897304534912 -1.27440750598907471
2.72737431526184082 1.5150066614151001 -0.441740095615386963
0.242475822567939758 0.426571905612945557 -1.16258549690246582
1.0596613883972168 -0.540477156639099121 -1.48683750629425049
2.75507307052612305 -0.333819270133972168 -1.07739412784576416
2.74596595764160156 -0.180540695786476135 -1.05226504802703857
1.25168287754058838 0.255649864673614502 -1.4689326286315918
2.65247535705566406 -0.00425988063216209412 -0.977967619895935059
1.30227899551391602 0.56438523530960083 -1.3042449951171875
1.98983347415924072 0.180637568235397339 -1.37757778167724609
3.26462244987487793 3.21344614028930664 -0.655610620975494385
1.39082241058349609 0.578377962112426758 -1.5158238410949707
2.78388476371765137 0.158290326595306396 -0.949836254119873047
-0.145897135138511658 -0.035124506801366806 -1.0271068811416626
2.7549288272857666 1.43599605560302734 -0.405801594257354736
2.39191508293151855 -1.04380619525909424 -1.29906034469604492
1.27550113201141357 1.16009306907653809 -0.763575255870819092
1.3123176097869873 0.263054221868515015 -1.32561779022216797
2.74383783340454102 -0.385023057460784912 -1.12919485569000244
1.9904477596282959 0.183411344885826111 -1.37324905395507812
1.09972655773162842 -0.538669764995574951 -1.47239053249359131
1.99411606788635254 0.234016925096511841 -1.3635178804397583
1.26933169364929199 0.536855220794677734 -1.29905354976654053
3.04111409187316895 3.19971966743469238 -0.672646760940551758
1.30163466930389404 0.34762987494468689 -1.31262898445129395
0.623942196369171143 -0.44770398736000061 -1.63741230964660645
2.77249550819396973 -0.0022598588839173317 -1.01799750328063965
1.0213240385055542 -1.57304477691650391 -1.42757213115692139
3.11736869812011719 3.20846056938171387 -0.659982681274414062
3.20090079307556152 3.20906591415405273 -0.648919045925140381
2.5610039234161377 4.11782026290893555 -0.349340677261352539
