ply
format ascii 1.0
element vertex 112
comment vertices
property float x
property float y
property float z
end_header
1.29954266548156738 0.394781291484832764 -1.28004193305969238
2.01515769958496094 0.195428669452667236 -1.44316768646240234
1.65119218826293945 0.619757652282714844 -1.27402281761169434
1.08003759384155273 -0.528819799423217773 -1.46995162963867188
1.36441731452941895 0.577192544937133789 -1.32186496257781982
1.50752878189086914 0.536582648754119873 -1.26232004165649414
2.02890825271606445 0.200498625636100769 -1.36556637287139893
1.81939971446990967 0.266778022050857544 -1.33242106437683105
2.37470316886901855 -1.05138075351715088 -1.29825842380523682
1.53611791133880615 0.332056522369384766 -1.3334578275680542
1.2893754243850708 0.507667660713195801 -1.3033604621887207
1.10424864292144775 -0.531844794750213623 -1.4722210168838501
1.32938134670257568 0.539043784141540527 -1.30925846099853516
1.31021666526794434 0.574500083923339844 -1.32101047039031982
1.53732442855834961 0.151028037071228027 -1.28609669208526611
1.85711169242858887 0.0412383750081062317 -1.30358767509460449
1.30407106876373291 0.575780868530273438 -1.32071805000305176
1.9682013988494873 0.204519957304000854 -1.357002854347229
2.01694107055664062 0.181321799755096436 -1.3976970911026001
2.37638425827026367 -1.0376739501953125 -1.32054948806762695
1.37836408615112305 0.338530272245407104 -1.32818722724914551
1.10282695293426514 -0.531666934490203857 -1.46989798545837402
1.06550872325897217 -0.523788392543792725 -1.45928966999053955
1.44593346118927002 0.493487566709518433 -1.27027392387390137
1.39973688125610352 0.569579184055328369 -1.27675318717956543
2.02998495101928711 0.232847213745117188 -1.36722385883331299
1.27739965915679932 0.435118496417999268 -1.32030653953552246
1.99237465858459473 0.219029396772384644 -1.37026464939117432
2.37615680694580078 -1.05142426490783691 -1.29945039749145508
2.04476189613342285 0.247410967946052551 -1.36324059963226318
1.99758422374725342 0.188888669013977051 -1.38529622554779053
1.0779874324798584 -0.52666175365447998 -1.47493910789489746
1.4391474723815918 0.136310607194900513 -1.30098116397857666
1.06336164474487305 -0.53009563684463501 -1.49526751041412354
1.07703578472137451 -0.523024082183837891 -1.48023343086242676
1.39764213562011719 0.21711750328540802 -1.24736320972442627
2.3859703540802002 -1.03610646724700928 -1.311043381690979
1.37220358848571777 0.589902400970458984 -1.27054393291473389
1.07381832599639893 -0.523617863655090332 -1.47841942310333252
2.40630865097045898 -1.02745151519775391 -1.30260694026947021
1.62901425361633301 0.320640981197357178 -1.31152760982513428
2.02751040458679199 0.102259889245033264 -1.45430183410644531
2.37314081192016602 -1.03529250621795654 -1.29773223400115967
1.9984511137008667 0.195414826273918152 -1.39925885200500488
1.06282985210418701 -0.544179856777191162 -1.48199272155761719
1.3694007396697998 0.573226451873779297 -1.3056405782699585
1.31173932552337646 0.544875383377075195 -1.31466376781463623
2.38122677803039551 -1.0316774845123291 -1.32126152515411377
2.01460552215576172 0.220538288354873657 -1.36089956760406494
1.30749833583831787 0.573527157306671143 -1.31765449047088623
1.28116285800933838 0.533931612968444824 -1.32728934288024902
1.23944664001464844 0.483999252319335938 -1.33786630630493164
2.01938271522521973 0.187293976545333862 -1.37580788135528564
1.06914055347442627 -0.529424369335174561 -1.47530603408813477
1.09334790706634521 -0.52894902229309082 -1.47137248516082764
1.59330737590789795 0.350942224264144897 -1.29250872135162354
1.37928175926208496 0.567747414112091064 -1.26715695858001709
2.04125308990478516 0.207343012094497681 -1.36763632297515869
2.3821403980255127 -1.0378042459487915 -1.30571281909942627
1.07381510734558105 -0.550335168838500977 -1.47040796279907227
1.50468504428863525 0.384115338325500488 -1.27696537971496582
2.39660739898681641 -1.0766531229019165 -1.31176352500915527
2.03609991073608398 0.235140308737754822 -1.37925827503204346
2.04028034210205078 0.235710620880126953 -1.375632643699646
1.98257684707641602 0.225735917687416077 -1.34827065467834473
1.10009932518005371 -0.522748768329620361 -1.48608803749084473
1.36339688301086426 0.209299206733703613 -1.25044310092926025
1.38366794586181641 0.582922101020812988 -1.31171214580535889
2.01409053802490234 0.202796414494514465 -1.37007820606231689
1.38615298271179199 0.21311071515083313 -1.26137065887451172
2.01273274421691895 0.224869564175605774 -1.36186063289642334
1.43859994411468506 0.181392863392829895 -1.271262526512146
1.95137786865234375 0.132615268230438232 -1.34292328357696533
1.23364126682281494 0.337510883808135986 -1.34219777584075928
1.38259148597717285 0.575465083122253418 -1.26482141017913818
1.32323670387268066 0.478910267353057861 -1.31412386894226074
1.99191093444824219 0.234747737646102905 -1.3676307201385498
2.37717342376708984 -1.04300236701965332 -1.3037879467010498
1.48887145519256592 0.51174318790435791 -1.29679405689239502
1.3026885986328125 0.552988350391387939 -1.31467807292938232
1.30876302719116211 0.573209404945373535 -1.31600749492645264
1.07541990280151367 -0.53945612907409668 -1.48543107509613037
2.34335803985595703 -1.05055737495422363 -1.41697728633880615
1.41143393516540527 0.192434877157211304 -1.26460874080657959
1.42411720752716064 0.21190035343170166 -1.27585899829864502
1.51279377937316895 0.338753670454025269 -1.29746150970458984
1.51392531394958496 0.299366891384124756 -1.28780806064605713
1.30646777153015137 0.544083476066589355 -1.31624138355255127
1.07256400585174561 -0.527066707611083984 -1.48115074634552002
2.0366361141204834 0.223863467574119568 -1.35243713855743408
2.37393975257873535 -1.04906284809112549 -1.29977023601531982
2.3753809928894043 -1.04606616497039795 -1.29409182071685791
1.29929792881011963 0.482455790042877197 -1.30882668495178223
2.03931736946105957 0.259527325630187988 -1.3727719783782959
1.31997513771057129 0.540780186653137207 -1.31488275527954102
1.30814075469970703 0.543737590312957764 -1.31448793411254883
1.2569204568862915 0.571486771106719971 -1.280936598777771
2.00760364532470703 0.073060251772403717 -1.46414279937744141
2.01854038238525391 0.20798221230506897 -1.37223875522613525
1.31167447566986084 0.517592668533325195 -1.31144797801971436
2.02700638771057129 0.211399316787719727 -1.36600542068481445
1.07698893547058105 -0.530283153057098389 -1.47336375713348389
1.69355010986328125 0.539258897304534912 -1.27440750598907471
1.0596613883972168 -0.540477156639099121 -1.48683750629425049
1.98983347415924072 0.180637568235397339 -1.37757778167724609
2.39191508293151855 -1.04380619525909424 -1.29906034469604492
1.3123176097869873 0.263054221868515015 -1.32561779022216797
1.9904477596282959 0.183411344885826111 -1.37324905395507812
1.09972655773162842 -0.538669764995574951 -1.47239053249359131
1.99411606788635254 0.234016925096511841 -1.3635178804397583
1.26933169364929199 0.536855220794677734 -1.29905354976654053
1.30163466930389404 0.34762987494468689 -1.31262898445129395
