ply
format ascii 1.0
element vertex 256
comment vertices
property float x
property float y
property float z
end_header
-0.136052295565605164 -1.16468322277069092 0.43172609806060791
-2.56519293785095215 2.01290559768676758 1.02223789691925049
3.14771223068237305 -0.771086156368255615 0.194212496280670166
0.231616899371147156 0.867987692356109619 1.05653119087219238
1.61318957805633545 0.124391324818134308 0.664627134799957275
1.30728685855865479 -2.17447733879089355 0.391843140125274658
-1.2099682092666626 2.18621706962585449 0.902850568294525146
2.06075167655944824 -0.524198532104492188 0.454566687345504761
1.02178812026977539 -1.47116971015930176 0.238187521696090698
-1.6486126184463501 1.89731061458587646 1.10859966278076172
0.486889630556106567 -0.645640194416046143 0.475373357534408569
1.37107193470001221 0.261479169130325317 0.706817924976348877
-2.28919863700866699 1.90221488475799561 1.01179027557373047
1.6993706226348877 -1.24638211727142334 0.104470111429691315
0.180141568183898926 -0.857435286045074463 0.224992305040359497
0.948809444904327393 0.503705739974975586 0.646377086639404297
2.26172447204589844 -0.527874946594238281 0.418091624975204468
0.096995912492275238 0.0282470658421516418 0.252786695957183838
-0.991501212120056152 -1.75541019439697266 0.533304035663604736
-0.874945223331451416 -1.6023939847946167 0.710067391395568848
1.08929216861724854 0.511214315891265869 0.839437782764434814
0.736972689628601074 -0.769799232482910156 0.363016217947006226
2.02292251586914062 -0.583976149559020996 0.454258203506469727
-1.44040894508361816 1.97859466075897217 1.11113536357879639
2.82119607925415039 -1.7728196382522583 0.21393255889415741
-0.262270331382751465 -1.09884798526763916 0.485997140407562256
1.01795411109924316 -1.50894248485565186 0.25407099723815918
-2.30331254005432129 1.91189587116241455 0.966095447540283203
1.90665280818939209 -2.03945255279541016 0.308767110109329224
1.59767746925354004 0.0925886407494544983 0.685124635696411133
-1.3244699239730835 2.10255289077758789 0.960139036178588867
0.542289376258850098 -0.341703087091445923 0.426295816898345947
0.189411774277687073 -0.74776756763458252 0.517760217189788818
2.41812372207641602 -1.0011826753616333 0.338810265064239502
-0.28468400239944458 -1.11127352714538574 0.394965946674346924
0.526032865047454834 -1.06375908851623535 0.410901755094528198
-0.527546405792236328 -1.42598414421081543 0.409186244010925293
-0.0652475655078887939 -0.754652738571166992 0.487746626138687134
0.844994783401489258 -0.373775959014892578 0.363300561904907227
1.03077197074890137 -1.47020637989044189 0.238745912909507751
0.819328546524047852 -0.821340441703796387 0.158825337886810303
1.14003884792327881 0.498033881187438965 0.795176565647125244
2.26367306709289551 -0.100194506347179413 0.364466547966003418
1.91048109531402588 -2.04070568084716797 0.310616850852966309
-2.27211284637451172 1.8962547779083252 1.00864076614379883
1.45473349094390869 -1.40950119495391846 0.109929889440536499
-0.0280886217951774597 -0.423188984394073486 0.746349692344665527
-0.876083314418792725 -1.77665269374847412 0.712556540966033936
-2.4606168270111084 1.96412229537963867 0.994974374771118164
-0.123899243772029877 -0.920164167881011963 0.450135260820388794
1.09733295440673828 -0.572064578533172607 0.299969494342803955
2.37603640556335449 -0.687991023063659668 0.365856528282165527
0.971889257431030273 -0.460830092430114746 0.28343510627746582
2.02407717704772949 -0.563499391078948975 0.437409937381744385
0.318316191434860229 0.825470089912414551 1.08711647987365723
0.913712084293365479 -0.457550674676895142 0.302069664001464844
1.07170474529266357 -0.390236705541610718 0.321878969669342041
-0.0695020779967308044 -0.804826259613037109 0.479564636945724487
2.85577940940856934 -1.67894744873046875 0.146967768669128418
-1.19521892070770264 2.0745079517364502 0.97660517692565918
1.86745297908782959 -0.162856727838516235 0.481438279151916504
-0.876030445098876953 -1.6561809778213501 0.709684371948242188
0.288192987442016602 -0.554755449295043945 0.477218151092529297
-0.0715360641479492188 -0.797153651714324951 0.502075850963592529
0.705231308937072754 -0.551196157932281494 0.39242282509803772
0.613893985748291016 -0.690887272357940674 0.426386982202529907
1.23249804973602295 0.472641199827194214 0.816114187240600586
1.61631977558135986 0.140125378966331482 0.696001112461090088
-1.92114758491516113 1.84486198425292969 1.03549838066101074
0.452626347541809082 -0.735903739929199219 0.493426322937011719
1.20484781265258789 0.395015835762023926 0.749021291732788086
-0.0920430794358253479 0.0784674584865570068 -0.00588399916887283325
-0.857509434223175049 -1.64024412631988525 0.547772467136383057
1.00088465213775635 -0.431243717670440674 0.306260108947753906
-0.525393247604370117 -1.20887196063995361 0.645896077156066895
1.49231910705566406 0.217480272054672241 0.717430531978607178
1.03826630115509033 -1.47641670703887939 0.229683920741081238
2.39863896369934082 -0.965391039848327637 0.310489863157272339
-2.11296820640563965 1.82455885410308838 1.0762859582901001
-1.41752362251281738 1.96228706836700439 1.06288480758666992
0.909060955047607422 -0.4571361243724823 0.317144840955734253
0.980157852172851562 -1.5523686408996582 0.269819557666778564
0.105109319090843201 -0.860247373580932617 0.513592004776000977
0.957396864891052246 -0.994353592395782471 0.319569051265716553
1.90674257278442383 -2.00504016876220703 0.31245499849319458
2.02540254592895508 -0.567336559295654297 0.44692915678024292
1.67197751998901367 -0.954084038734436035 0.0932980626821517944
1.86581885814666748 -2.13746976852416992 0.31075093150138855
-2.21408653259277344 1.89350283145904541 1.01687788963317871
-1.44860339164733887 2.02008605003356934 1.06785225868225098
1.63057124614715576 0.109340846538543701 0.677055120468139648
1.02631938457489014 -1.47153842449188232 0.225552424788475037
0.816283285617828369 0.66633528470993042 0.835410058498382568
1.81952059268951416 -0.077548980712890625 0.625714898109436035
-1.33538520336151123 2.05804324150085449 0.994296073913574219
-0.116928622126579285 -0.965789318084716797 0.46712881326675415
2.01538944244384766 -0.590169310569763184 0.435051172971725464
3.02852964401245117 -1.31386363506317139 0.220969647169113159
2.22659015655517578 -1.55955660343170166 0.335812270641326904
-2.40826582908630371 1.94508683681488037 0.978546261787414551
0.163361057639122009 -0.690416336059570312 0.495488435029983521
0.679360330104827881 -0.831273734569549561 0.192522287368774414
-2.13952755928039551 1.87722969055175781 1.04849863052368164
1.03770947456359863 -1.46985983848571777 0.229053348302841187
1.61721956729888916 0.183266445994377136 0.739951491355895996
-0.176236510276794434 -0.741863667964935303 0.428372204303741455
1.06784677505493164 0.477063804864883423 0.822321712970733643
1.16050386428833008 -0.390054374933242798 0.287159442901611328
1.01486885547637939 -0.904519736766815186 0.269205927848815918
2.41713666915893555 -1.13993489742279053 0.390371501445770264
0.606931746006011963 -0.698455333709716797 0.510435819625854492
0.666886448860168457 -1.00395119190216064 0.116730883717536926
0.00270479172468185425 -0.842611491680145264 0.51132965087890625
0.380659550428390503 -0.56604689359664917 0.473806977272033691
0.495459794998168945 -0.84376370906829834 0.479249089956283569
1.91410923004150391 -2.01993989944458008 0.311723381280899048
1.02470147609710693 -1.49522781372070312 0.246339812874794006
-0.105748169124126434 -0.982802510261535645 0.442930102348327637
2.04432392120361328 -0.540045380592346191 0.433972358703613281
1.86030828952789307 -2.13134646415710449 0.308723956346511841
-2.48858499526977539 1.97120630741119385 1.00982081890106201
1.06314456462860107 -0.793924212455749512 0.338003158569335938
1.08788490295410156 0.471784114837646484 0.779295444488525391
1.31778120994567871 0.343045711517333984 0.671180248260498047
1.16554355621337891 -0.409799039363861084 0.309658199548721313
2.07183265686035156 -0.48418349027633667 0.431125372648239136
-0.0887039601802825928 -0.864430665969848633 0.457988381385803223
2.06885623931884766 -0.543244838714599609 0.436159491539001465
2.83431649208068848 -1.75469481945037842 0.1740131676197052
2.40235733985900879 -0.809671580791473389 0.312226027250289917
2.04105281829833984 -0.53082585334777832 0.442521244287490845
1.08039331436157227 -0.37183612585067749 0.279180049896240234
-0.115653336048126221 -1.0560460090637207 0.443701744079589844
1.51019763946533203 0.200990185141563416 0.721354961395263672
0.00726559385657310486 -1.46782159805297852 0.384383141994476318
-2.16358542442321777 1.89156317710876465 1.00329351425170898
-0.225183084607124329 -1.17165791988372803 0.446775227785110474
0.347321093082427979 -0.753500282764434814 0.484755784273147583
0.152969732880592346 0.86418229341506958 1.12116265296936035
-0.770661473274230957 -1.6086430549621582 0.728166401386260986
1.04071903228759766 -1.48217153549194336 0.227686241269111633
2.02743649482727051 -0.576469063758850098 0.442126274108886719
1.0226215124130249 -1.49080538749694824 0.236517220735549927
-1.9116283655166626 1.8425135612487793 1.10787475109100342
1.04681694507598877 -0.380967050790786743 0.292724907398223877
0.365237683057785034 -0.801246225833892822 0.521310687065124512
0.684866249561309814 -0.834011673927307129 0.175634697079658508
1.26284563541412354 0.381343722343444824 0.550315797328948975
0.673100948333740234 -1.4181135892868042 0.157331019639968872
-0.157864615321159363 -0.150825813412666321 0.278649628162384033
0.774210095405578613 -0.63884425163269043 0.363385379314422607
1.01966488361358643 0.518198013305664062 0.781304895877838135
1.00708699226379395 -1.26606965065002441 0.247594550251960754
0.598282217979431152 -0.284382641315460205 0.4088917076587677
-0.165160536766052246 -1.19687092304229736 0.480834305286407471
1.85296118259429932 0.0525719150900840759 0.466886550188064575
0.00484227389097213745 -0.84579932689666748 0.504680156707763672
-1.19836044311523438 2.05684828758239746 1.0437777042388916
-0.0985892266035079956 -0.153222620487213135 0.347133725881576538
2.39567780494689941 -0.896493971347808838 0.274334967136383057
0.079916827380657196 -0.597433865070343018 0.512857794761657715
0.238495320081710815 -0.608161866664886475 0.454776346683502197
1.37580454349517822 0.251046150922775269 0.711285233497619629
-2.25323128700256348 1.89980053901672363 1.01911580562591553
-0.846337080001831055 -1.7023625373840332 0.722064554691314697
-0.886713802814483643 -1.65760791301727295 0.707642197608947754
1.05337536334991455 -0.434489965438842773 0.322799354791641235
0.274148404598236084 -0.780365586280822754 0.518999278545379639
2.11537027359008789 -0.47747918963432312 0.438161641359329224
-0.0895984768867492676 -0.985877454280853271 0.456936657428741455
-0.181524574756622314 -1.23691391944885254 0.446271330118179321
1.85322034358978271 -2.14899039268493652 0.304421484470367432
-0.110102467238903046 -1.1476137638092041 0.449052900075912476
-0.933009207248687744 -1.63231742382049561 0.6712760329246521
-2.10193753242492676 1.82518911361694336 1.05193901062011719
1.51752161979675293 0.19665151834487915 0.769399940967559814
1.90204548835754395 -2.0925135612487793 0.311792492866516113
1.66161239147186279 0.0186203569173812866 0.644226431846618652
-2.33221340179443359 1.92490315437316895 0.973418235778808594
1.01584112644195557 -1.46636819839477539 0.236908316612243652
1.01982557773590088 -1.46549224853515625 0.22303655743598938
-0.144617065787315369 -0.793799817562103271 0.47461390495300293
-1.74955224990844727 1.84822714328765869 1.14027369022369385
-1.28750240802764893 2.13651347160339355 0.958018183708190918
0.817848443984985352 -0.788911938667297363 0.31235077977180481
2.32120227813720703 -0.460609078407287598 0.42997819185256958
0.959870815277099609 -0.512202262878417969 0.351751923561096191
1.07060492038726807 0.528301835060119629 0.816724538803100586
2.10406923294067383 -0.548611819744110107 0.403217911720275879
0.711477816104888916 0.722704768180847168 0.903358221054077148
0.810523569583892822 0.640297114849090576 0.843975245952606201
2.37928986549377441 -1.17326366901397705 0.397182166576385498
0.122810974717140198 -0.726634621620178223 0.503570258617401123
0.702733814716339111 0.591287910938262939 0.778075337409973145
-0.076539941132068634 -0.768207550048828125 0.498203933238983154
0.663271188735961914 -0.836996793746948242 0.423448264598846436
0.663955569267272949 -0.970892131328582764 0.123377256095409393
1.84417247772216797 -1.06236720085144043 0.132632419466972351
0.491106390953063965 -0.192867740988731384 0.412595003843307495
0.122757188975811005 -0.7563895583152771 0.499739944934844971
1.03367912769317627 -0.90815967321395874 0.26808398962020874
0.91085350513458252 -0.775019526481628418 0.399953722953796387
-2.29909586906433105 1.90021514892578125 1.03294658660888672
1.89758646488189697 -2.07898807525634766 0.31869816780090332
-0.0292036868631839752 -0.161962389945983887 0.0612124279141426086
0.34852135181427002 -0.883983373641967773 0.47500261664390564
2.05467081069946289 -0.292420685291290283 0.510390520095825195
1.58942675590515137 0.148411974310874939 0.721323132514953613
1.90526068210601807 -2.03235149383544922 0.313830554485321045
2.00354647636413574 -1.8998492956161499 0.276072889566421509
1.43432879447937012 0.175491556525230408 0.635877430438995361
1.92259049415588379 -1.96431457996368408 0.297949850559234619
-2.14312958717346191 1.89036846160888672 0.996404767036437988
1.08214008808135986 -0.386674374341964722 0.280469715595245361
2.78560280799865723 -1.6623309850692749 0.187801152467727661
0.842072248458862305 -0.8162841796875 0.168915420770645142
0.32995903491973877 -0.822947263717651367 0.519072413444519043
2.43643331527709961 -0.785484850406646729 0.312042742967605591
1.25770342350006104 -1.37547123432159424 0.163502424955368042
-0.156054124236106873 -0.728814840316772461 0.456033647060394287
1.05411064624786377 -0.378431856632232666 0.288135021924972534
0.538283705711364746 -0.61842191219329834 0.457784056663513184
-0.0212889797985553741 -0.822064399719238281 0.483409583568572998
-1.54339134693145752 1.99595439434051514 1.03844022750854492
-1.41416466236114502 2.0493471622467041 1.06199908256530762
1.0054556131362915 0.519658982753753662 0.788871884346008301
-1.60764646530151367 1.9489215612411499 1.06756389141082764
-0.117743499577045441 -1.03603076934814453 0.428306639194488525
1.25301492214202881 0.383627265691757202 0.717506766319274902
2.00267624855041504 -0.266285836696624756 0.438684672117233276
-2.19608426094055176 1.88193190097808838 1.02880382537841797
0.616044819355010986 -0.747438132762908936 0.471920192241668701
0.780574142932891846 -0.818831801414489746 0.252030938863754272
0.437118172645568848 -0.688841700553894043 0.477496623992919922
-0.115878850221633911 -1.16561698913574219 0.432221293449401855
0.44507870078086853 -0.621604263782501221 0.483930766582489014
-1.41604197025299072 1.99378728866577148 1.08354806900024414
-1.28898453712463379 2.11992979049682617 0.95257270336151123
2.35116815567016602 -1.26243472099304199 0.398078054189682007
1.70759809017181396 -0.00473869591951370239 0.703691720962524414
-2.38330221176147461 1.94983971118927002 0.968861162662506104
2.4345707893371582 -0.829685807228088379 0.283332943916320801
-0.537543237209320068 -1.40181159973144531 0.407794684171676636
0.556621551513671875 -0.129509702324867249 0.404182553291320801
0.119769878685474396 -0.128953918814659119 0.767484307289123535
-0.106207422912120819 -0.900177001953125 0.458428442478179932
-0.853350043296813965 -1.64092028141021729 0.651884973049163818
-0.89142221212387085 -1.62093472480773926 0.464746475219726562
0.643370449542999268 -0.588476181030273438 0.418429940938949585
2.99018001556396484 -0.950143158435821533 0.176154345273971558
-1.98606026172637939 1.82108557224273682 1.0753016471862793
-1.66374039649963379 1.87924110889434814 1.11003029346466064
2.44714665412902832 -0.948513209819793701 0.337669074535369873
1.37646603584289551 0.260859757661819458 0.710613012313842773
-1.42784023284912109 1.96261990070343018 1.05565881729125977
-2.11206340789794922 1.8290255069732666 1.07584822177886963
