ply
format ascii 1.0
element vertex 107
comment vertices
property float x
property float y
property float z
end_header
0.660667121410369873 2.20079970359802246 -1.11955618858337402
-0.603542566299438477 1.91646552085876465 -1.15468513965606689
-0.0502497218549251556 2.77923917770385742 -1.16493880748748779
0.757255733013153076 3.52639889717102051 -1.09315454959869385
-0.42350006103515625 1.8793034553527832 -1.20482087135314941
1.10271835327148438 2.64547228813171387 -1.06040585041046143
1.15270161628723145 2.61786484718322754 -1.09368503093719482
-0.103822976350784302 2.43220901489257812 -1.13515090942382812
0.0234385952353477478 2.79890751838684082 -1.16191291809082031
-1.08857393264770508 2.47866129875183105 -1.06764328479766846
0.725729942321777344 3.55833339691162109 -1.10766446590423584
-0.287920624017715454 3.90062332153320312 -1.09978008270263672
0.216770187020301819 1.37468993663787842 -1.09412765502929688
-0.289303719997406006 3.87620449066162109 -1.08674776554107666
0.0771727859973907471 2.99051117897033691 -1.17700207233428955
0.0982003360986709595 2.7785794734954834 -1.16678261756896973
-0.149848327040672302 2.29326558113098145 -1.14806139469146729
0.664405345916748047 2.18236231803894043 -1.1058727502822876
-0.484236091375350952 1.97638916969299316 -1.20722949504852295
0.16958191990852356 2.90676975250244141 -1.16435527801513672
1.14114236831665039 2.62421274185180664 -1.09614431858062744
-0.239064395427703857 2.49728107452392578 -1.13781833648681641
0.684261322021484375 2.18290567398071289 -1.10600543022155762
0.0477104969322681427 2.58981966972351074 -1.15949523448944092
0.0492721423506736755 2.63798952102661133 -1.15916967391967773
-0.863017678260803223 2.27199602127075195 -1.1497499942779541
-0.209935978055000305 2.26688694953918457 -1.13704013824462891
-0.297173261642456055 3.90424442291259766 -1.12382733821868896
-1.10411345958709717 2.46618103981018066 -1.11374795436859131
-0.0456819981336593628 2.77333855628967285 -1.1799767017364502
0.20767781138420105 1.37076640129089355 -1.12732064723968506
0.650077641010284424 2.20945644378662109 -1.09663808345794678
0.199607059359550476 1.34730899333953857 -1.11635315418243408
0.754700660705566406 3.54899382591247559 -1.10079431533813477
0.666775763034820557 2.56050443649291992 -1.13461434841156006
-0.267535507678985596 2.06893801689147949 -1.19120359420776367
-0.290470391511917114 3.89702272415161133 -1.12928533554077148
0.666698336601257324 2.18505406379699707 -1.10245490074157715
0.196442112326622009 1.47635650634765625 -1.07613444328308105
0.722614288330078125 3.54693722724914551 -1.10836553573608398
0.775337934494018555 3.53963303565979004 -1.10217595100402832
1.16442394256591797 2.62885522842407227 -1.07587099075317383
1.11337578296661377 2.62214803695678711 -1.07712554931640625
0.759047269821166992 3.5265810489654541 -1.09841740131378174
0.294087111949920654 2.87590265274047852 -1.11257815361022949
-1.09522223472595215 2.47092700004577637 -1.07948970794677734
-0.0414413735270500183 2.53636074066162109 -1.15827846527099609
-1.10264277458190918 2.46990585327148438 -1.12129807472229004
1.12090778350830078 2.62287354469299316 -1.0848919153213501
-0.399286240339279175 2.12249207496643066 -1.19851291179656982
1.14497566223144531 2.61683201789855957 -1.08023035526275635
0.655676662921905518 2.18770027160644531 -1.11816215515136719
-0.180665820837020874 2.0499260425567627 -1.18205392360687256
0.0326927937567234039 2.84222245216369629 -1.17303252220153809
-0.393465310335159302 2.27895784378051758 -1.13797962665557861
0.0183706134557723999 2.44800305366516113 -1.14336812496185303
0.665131092071533203 2.19949555397033691 -1.10696947574615479
-0.539185643196105957 1.83084535598754883 -1.21824359893798828
0.208119019865989685 1.34681129455566406 -1.12035131454467773
0.0888106971979141235 2.83875441551208496 -1.17431032657623291
-0.0199235603213310242 2.62884926795959473 -1.15666162967681885
0.0517383888363838196 2.6614985466003418 -1.16654109954833984
0.750780761241912842 3.55900263786315918 -1.10346758365631104
-0.0501079559326171875 2.72755599021911621 -1.1360621452331543
-0.0832743346691131592 2.4918975830078125 -1.12318217754364014
-0.355928122997283936 2.18839669227600098 -1.15946757793426514
-0.291576564311981201 3.90239453315734863 -1.11230731010437012
-0.484413474798202515 2.02583551406860352 -1.16412115097045898
0.659530401229858398 2.18185949325561523 -1.11452019214630127
0.689791023731231689 2.21560215950012207 -1.08608567714691162
-0.0590672418475151062 2.52979302406311035 -1.13899600505828857
0.655414700508117676 2.19163799285888672 -1.1236884593963623
-0.187882378697395325 3.34211444854736328 -1.17880749702453613
0.193415209650993347 3.08877944946289062 -1.15731430053710938
-0.0806446745991706848 2.36077308654785156 -1.14950227737426758
1.12948703765869141 2.62595510482788086 -1.07857537269592285
0.0120769673958420753 2.70958900451660156 -1.17532658576965332
-0.101257100701332092 2.57339644432067871 -1.13597989082336426
0.0494809374213218689 2.77777767181396484 -1.16723465919494629
-1.11307179927825928 2.45944762229919434 -1.11938571929931641
0.661436557769775391 2.20339274406433105 -1.13552951812744141
1.13175868988037109 2.62052106857299805 -1.07999658584594727
-0.0595586299896240234 2.56140756607055664 -1.16339981555938721
-0.294969409704208374 3.90624356269836426 -1.0989677906036377
0.111339420080184937 2.73318052291870117 -1.14856410026550293
-0.147281631827354431 2.13365960121154785 -1.18681228160858154
0.191943928599357605 1.35873734951019287 -1.12185764312744141
0.197957932949066162 1.36507785320281982 -1.11934840679168701
-0.283453762531280518 3.89728999137878418 -1.11084449291229248
0.76093292236328125 3.52781391143798828 -1.09842050075531006
0.658989965915679932 2.18738079071044922 -1.11437559127807617
1.10674166679382324 2.6410222053527832 -1.10091269016265869
0.756022214889526367 3.5260765552520752 -1.09764754772186279
0.237712040543556213 3.04118633270263672 -1.11577415466308594
-0.711388289928436279 2.65016269683837891 -1.18654394149780273
0.513359546661376953 2.72394943237304688 -1.12057602405548096
-0.343244045972824097 1.98438072204589844 -1.2046278715133667
0.713815748691558838 3.3688349723815918 -1.10971081256866455
0.206091135740280151 1.35527265071868896 -1.09923243522644043
-0.00436463207006454468 3.08973288536071777 -1.16247618198394775
-0.419983983039855957 2.02829265594482422 -1.21042096614837646
1.16093802452087402 2.62143516540527344 -1.0990520715713501
0.0654104053974151611 2.21118259429931641 -1.17237412929534912
0.672299206256866455 2.2059783935546875 -1.11667215824127197
-1.09772038459777832 2.46841716766357422 -1.09380948543548584
0.199395626783370972 2.99689817428588867 -1.15931296348571777
0.196812078356742859 1.43490386009216309 -1.10341131687164307
