ply
format ascii 1.0
element vertex 256
comment vertices
property float x
property float y
property float z
end_header
-1.35035800933837891 3.61658453941345215 -1.10683572292327881
0.175359755754470825 1.36510896682739258 -1.08651280403137207
1.18386983871459961 4.22958612442016602 -0.42444223165512085
1.26552486419677734 2.74724674224853516 -1.14018583297729492
0.120068870484828949 5.10814428329467773 -0.149115592241287231
-1.08425688743591309 2.44558143615722656 -1.11758792400360107
0.5539284348487854 4.73205757141113281 -0.536725819110870361
-0.0537677295506000519 2.82527327537536621 -1.18034529685974121
-0.433302849531173706 4.57900524139404297 -0.824814200401306152
-1.96202230453491211 2.6998591423034668 -0.545381367206573486
1.25245440006256104 4.25417089462280273 -0.906621575355529785
-1.16194784641265869 4.06805610656738281 -0.382312208414077759
0.676883935928344727 2.2095797061920166 -1.06314945220947266
0.73708343505859375 3.96675372123718262 -0.634105026721954346
0.0415790826082229614 2.38919711112976074 -1.22334063053131104
-1.5284656286239624 2.85035586357116699 -1.01740133762359619
-0.378994643688201904 1.97753417491912842 -1.24792051315307617
0.257447242736816406 2.71838641166687012 -1.21981167793273926
-0.314632028341293335 3.9170832633972168 -1.08590567111968994
0.710920572280883789 3.3344571590423584 -1.22179508209228516
-0.757134079933166504 4.09582662582397461 -1.09273731708526611
0.290124893188476562 3.06101465225219727 -1.08083593845367432
0.696773886680603027 4.48680210113525391 -0.608893036842346191
-0.906104207038879395 4.37257242202758789 -0.595402300357818604
-0.297752439975738525 2.48330569267272949 -1.1511911153793335
-1.44301140308380127 3.3236844539642334 -0.606401741504669189
0.759457588195800781 2.28964662551879883 -1.15285062789916992
-1.37467670440673828 3.25548934936523438 -1.00611710548400879
0.589188098907470703 4.11644744873046875 -0.851562142372131348
-0.891209900379180908 4.41557836532592773 -0.981338560581207275
0.688717663288116455 3.54531288146972656 -1.1125648021697998
1.00958800315856934 3.19459724426269531 -1.16267490386962891
0.226762369275093079 2.87236261367797852 -1.20409905910491943
0.193677425384521484 1.49374914169311523 -1.12051129341125488
0.671123981475830078 4.69437170028686523 -0.54913860559463501
1.15733611583709717 2.6650390625 -1.08658337593078613
-0.285610496997833252 2.20660924911499023 -1.2086951732635498
0.829539299011230469 4.46938514709472656 -0.923164784908294678
1.2144315242767334 4.17698049545288086 -0.188621431589126587
-1.1224217414855957 4.38326787948608398 -0.766408085823059082
0.785064697265625 4.2141566276550293 -0.899647653102874756
-0.432865649461746216 3.71268010139465332 -1.17063665390014648
0.756568253040313721 5.03287076950073242 -0.0377980172634124756
-1.04335534572601318 3.65931963920593262 -1.11842036247253418
-0.253427594900131226 2.04678511619567871 -1.24405288696289062
0.699010074138641357 4.53538417816162109 -0.565374433994293213
-0.230353951454162598 4.93188238143920898 -0.293101221323013306
-0.0630775094032287598 3.0258629322052002 -1.17424798011779785
-1.06141173839569092 2.53074860572814941 -1.02751588821411133
-0.84485161304473877 4.04611587524414062 -0.709091722965240479
0.0665102303028106689 2.78367900848388672 -1.17888903617858887
0.99681931734085083 3.93984246253967285 -0.960808873176574707
0.691577672958374023 2.20245504379272461 -1.11409997940063477
0.464171409606933594 4.45541095733642578 -0.81794506311416626
-1.72936129570007324 2.75679540634155273 -1.23937582969665527
0.3316916823387146 4.05700588226318359 -0.67854154109954834
0.772097170352935791 2.51951169967651367 -1.15973758697509766
1.08246541023254395 2.68079900741577148 -1.06579840183258057
-0.351436495780944824 2.16124963760375977 -1.13604795932769775
-0.848311543464660645 4.21829366683959961 -0.596668660640716553
0.302340030670166016 4.69228267669677734 -0.51641535758972168
-0.759899139404296875 4.56747627258300781 -0.301282197237014771
0.039715886116027832 2.7769465446472168 -1.1767113208770752
0.548724770545959473 2.23203444480895996 -1.12190032005310059
0.940239667892456055 4.66764593124389648 -0.500029146671295166
-1.2286609411239624 4.01009178161621094 -1.08578026294708252
-1.23547601699829102 3.26976633071899414 -1.18894028663635254
-0.445270419120788574 4.21234989166259766 -0.988561749458312988
0.013326108455657959 4.25215530395507812 -0.647658467292785645
0.715443730354309082 3.1747443675994873 -1.16833090782165527
0.246138826012611389 1.40923953056335449 -1.04359066486358643
0.703615546226501465 3.97424578666687012 -1.03897976875305176
0.70042651891708374 4.24526786804199219 -0.944458186626434326
-0.135578244924545288 2.68638420104980469 -1.1515038013458252
-2.14435553550720215 2.5572052001953125 -0.671557605266571045
-1.15657341480255127 4.85867118835449219 -0.713012874126434326
-1.2929995059967041 3.72874116897583008 -0.391212552785873413
0.868816494941711426 4.35615015029907227 -0.215960144996643066
1.09978985786437988 3.80960416793823242 -1.14341461658477783
0.623683154582977295 3.81530928611755371 -0.687877416610717773
-1.77970361709594727 3.4811549186706543 -0.430607050657272339
0.630066275596618652 2.2255103588104248 -1.1897050142288208
0.661084473133087158 2.26812505722045898 -1.13071882724761963
-1.34622156620025635 3.64252185821533203 -0.867374002933502197
0.749284982681274414 3.53812885284423828 -1.12204205989837646
1.12875854969024658 2.65652322769165039 -1.1291738748550415
-0.356214582920074463 3.94304251670837402 -1.11542952060699463
-0.032302170991897583 2.95553374290466309 -1.18717324733734131
0.073338627815246582 1.37830972671508789 -1.15756452083587646
0.365124523639678955 4.49845743179321289 -0.782139360904693604
-1.07611644268035889 2.49775862693786621 -1.12498593330383301
-1.20307064056396484 4.17227077484130859 -1.08376216888427734
0.170335352420806885 3.01240301132202148 -1.13747966289520264
0.809011876583099365 3.72173452377319336 -1.04091477394104004
0.731149375438690186 4.21067190170288086 -0.597152054309844971
-0.0178577452898025513 2.1831657886505127 -1.21028792858123779
-1.87185490131378174 2.86500120162963867 -0.582457900047302246
0.217180162668228149 1.3872227668762207 -1.10947990417480469
-0.0212614014744758606 4.84606838226318359 -0.764029979705810547
-0.459897607564926147 4.13755369186401367 -0.918819963932037354
0.684812486171722412 2.21162223815917969 -1.09293603897094727
0.106511354446411133 2.7170100212097168 -1.21414458751678467
-1.17294752597808838 3.37967491149902344 -1.12482678890228271
-0.291506290435791016 2.05503201484680176 -1.23227953910827637
0.773045480251312256 4.00458669662475586 -1.02410626411437988
-0.011015765368938446 2.87526178359985352 -1.18643093109130859
1.01382195949554443 4.54147624969482422 -0.48681485652923584
0.954528748989105225 3.79129815101623535 -0.74625629186630249
0.766782104969024658 3.53517770767211914 -1.13698422908782959
0.0431657806038856506 2.74753141403198242 -1.17890083789825439
1.40737545490264893 2.97423815727233887 -1.16487491130828857
0.771748006343841553 4.09267997741699219 -0.570315301418304443
-0.389829516410827637 1.98630523681640625 -1.24054694175720215
-0.589859843254089355 2.22920465469360352 -1.155661940574646
0.973406195640563965 4.68071603775024414 -0.503132343292236328
-0.154225707054138184 2.26950621604919434 -1.23414945602416992
0.572376370429992676 4.14231729507446289 -0.79414677619934082
-1.05723071098327637 2.43671488761901855 -1.0313107967376709
1.11306619644165039 2.6597297191619873 -1.06632328033447266
-1.27421045303344727 2.93008804321289062 -0.950601339340209961
0.0870094150304794312 4.65203523635864258 -0.534605860710144043
0.284138083457946777 4.52286195755004883 -0.718214094638824463
-0.0419514775276184082 4.54147148132324219 -0.566285789012908936
-0.544199526309967041 2.02467083930969238 -1.16243338584899902
0.149651825428009033 2.90498566627502441 -1.08061873912811279
-0.32333025336265564 3.88854575157165527 -1.13180828094482422
-0.481261640787124634 2.0969388484954834 -1.20354008674621582
0.213768810033798218 1.44018685817718506 -1.13581192493438721
-1.30814623832702637 3.70058178901672363 -1.11640787124633789
-1.05724561214447021 4.21470069885253906 -0.457815170288085938
-1.03262519836425781 3.95171332359313965 -0.851239621639251709
1.15854549407958984 4.17755603790283203 -1.03888154029846191
-1.37255394458770752 3.07034659385681152 -1.14766609668731689
0.228280737996101379 4.65950822830200195 -0.361237823963165283
0.672193765640258789 4.75239992141723633 -0.561600208282470703
-1.04537880420684814 3.84366178512573242 -1.25035774707794189
0.380285441875457764 4.07192516326904297 -0.875079929828643799
-0.0272182822227478027 2.59872651100158691 -1.17399895191192627
0.270799815654754639 4.13756084442138672 -0.748278260231018066
0.295893639326095581 2.4672398567199707 -1.19103550910949707
0.683246016502380371 2.26430249214172363 -1.13065195083618164
0.328183829784393311 4.21047782897949219 -0.9362221360206604
1.19262504577636719 4.16775751113891602 -0.328610599040985107
0.677979409694671631 2.21110177040100098 -1.0810619592666626
-0.797014713287353516 4.45825815200805664 -0.765347659587860107
-1.01717460155487061 2.51881194114685059 -1.13986563682556152
-1.09950804710388184 4.36951971054077148 -0.751867115497589111
-0.907671153545379639 4.18700456619262695 -0.444061040878295898
1.15933692455291748 2.6375269889831543 -1.06842315196990967
0.663659751415252686 4.2554926872253418 -0.93454444408416748
-0.0676096677780151367 2.67230463027954102 -1.16295266151428223
0.244808971881866455 1.56702828407287598 -1.07867813110351562
-0.732465505599975586 4.81378936767578125 -0.347277164459228516
0.277438700199127197 4.62443017959594727 -0.525386571884155273
0.816767632961273193 4.35580968856811523 -0.406350970268249512
0.646529674530029297 2.18487453460693359 -1.15055727958679199
-0.764136672019958496 4.23290014266967773 -0.90348351001739502
-1.26320183277130127 3.91941356658935547 -0.688145041465759277
-1.24692285060882568 3.68047046661376953 -0.647797167301177979
0.644711136817932129 4.93231296539306641 -0.458621025085449219
-0.243928074836730957 2.21941447257995605 -1.16675901412963867
0.909418702125549316 2.54029941558837891 -1.11137998104095459
-1.10429072380065918 3.54158902168273926 -1.05968904495239258
-0.299780130386352539 2.3528587818145752 -1.14694547653198242
1.20918619632720947 4.18290424346923828 -1.05468785762786865
-1.25196444988250732 3.56740307807922363 -1.09599590301513672
0.69733738899230957 3.89879202842712402 -0.857367873191833496
-0.0111338496208190918 4.60697317123413086 -0.641258895397186279
-1.44638967514038086 3.3906712532043457 -0.416198521852493286
-0.718081057071685791 4.17840671539306641 -0.593153595924377441
0.492234766483306885 2.71667361259460449 -1.10265505313873291
0.845994174480438232 2.60025238990783691 -1.15011286735534668
1.12472367286682129 3.74805402755737305 -0.408306896686553955
0.0814967751502990723 2.89781427383422852 -1.17441582679748535
0.671769082546234131 2.15605044364929199 -1.08680713176727295
1.16454052925109863 2.62740468978881836 -1.06920278072357178
-0.961244940757751465 4.26686382293701172 -0.891586601734161377
0.528681099414825439 3.79118990898132324 -0.74520111083984375
0.0472361743450164795 4.03679847717285156 -0.722548723220825195
1.14885950088500977 4.410125732421875 -0.935641109943389893
0.694959700107574463 4.05202913284301758 -0.810314834117889404
-0.400520920753479004 4.57535028457641602 -0.412377059459686279
-1.08924663066864014 4.07180643081665039 -0.600789546966552734
-0.905469179153442383 4.54941940307617188 -0.689932584762573242
0.731818079948425293 3.55271720886230469 -1.11824703216552734
1.10635840892791748 2.63125896453857422 -1.04612946510314941
0.994586288928985596 4.42014217376708984 -0.567434132099151611
0.317118674516677856 4.22592782974243164 -0.740704655647277832
-0.0864720419049263 2.27429795265197754 -1.23375415802001953
0.181952059268951416 2.61885380744934082 -1.18439114093780518
-0.773802518844604492 4.3024749755859375 -0.959286808967590332
-0.144795894622802734 2.59407711029052734 -1.16822695732116699
0.0379413962364196777 2.89477324485778809 -1.14879429340362549
0.668698310852050781 4.70965051651000977 -0.487931311130523682
1.12251734733581543 2.8420407772064209 -1.16665935516357422
-0.0450116395950317383 2.7885890007019043 -1.15208995342254639
-1.08521139621734619 2.89860033988952637 -1.12779688835144043
1.12712860107421875 2.63917946815490723 -1.05259156227111816
-1.2089385986328125 3.63124942779541016 -0.511680781841278076
-1.84032058715820312 3.43180418014526367 -0.531796097755432129
-1.13743472099304199 3.52765274047851562 -1.13898098468780518
-0.751338064670562744 4.23692750930786133 -0.669990897178649902
0.20460134744644165 1.38357985019683838 -1.05345070362091064
0.739841759204864502 3.55195713043212891 -1.13735783100128174
0.652332186698913574 4.64647102355957031 -0.577129602432250977
0.600377380847930908 4.33923864364624023 -0.576888203620910645
0.558324635028839111 4.32915735244750977 -0.908124148845672607
0.746606230735778809 3.43967628479003906 -1.10060858726501465
-0.312556594610214233 3.90046095848083496 -1.12698698043823242
0.663604557514190674 2.1324760913848877 -1.11154055595397949
0.174121677875518799 1.50638926029205322 -1.13764059543609619
1.06110072135925293 3.86517763137817383 -0.445106953382492065
0.66322094202041626 2.20105838775634766 -1.08392536640167236
-0.0403912365436553955 2.76808500289916992 -1.1877281665802002
0.616609930992126465 4.83159875869750977 -0.476552277803421021
0.930101871490478516 3.80926752090454102 -0.911488592624664307
0.681725800037384033 4.34379243850708008 -0.89993518590927124
0.239972710609436035 1.42219018936157227 -1.08604621887207031
0.0194106400012969971 4.38358068466186523 -0.688077628612518311
0.0288243293762207031 2.90388107299804688 -1.14325547218322754
0.150450080633163452 1.33290338516235352 -1.10704052448272705
-1.43325626850128174 3.63332819938659668 -0.626922845840454102
0.95234978199005127 3.32405614852905273 -1.13386774063110352
-0.0588806271553039551 4.58326482772827148 -0.585681676864624023
0.898666322231292725 4.83340597152709961 -0.416245222091674805
0.217806369066238403 2.72305631637573242 -1.18775606155395508
0.83176112174987793 4.31143712997436523 -0.573399126529693604
-0.0550329461693763733 2.90614891052246094 -1.18295097351074219
-2.0234990119934082 2.72858190536499023 -0.60565483570098877
-0.178241074085235596 2.2758338451385498 -1.23067677021026611
0.248615145683288574 2.77820968627929688 -1.16792643070220947
-1.07131075859069824 2.46088838577270508 -1.08130168914794922
-1.79528486728668213 3.16580438613891602 -0.498790144920349121
1.06683146953582764 3.81550979614257812 -0.480184376239776611
1.06359398365020752 2.52626895904541016 -1.15573632717132568
-1.94009852409362793 2.86759448051452637 -0.651580512523651123
-0.0984733402729034424 2.38333415985107422 -1.19379973411560059
0.768088102340698242 4.62939167022705078 -0.568169593811035156
0.649548053741455078 4.51523208618164062 -0.774959027767181396
-1.23544216156005859 4.30759859085083008 -0.884190857410430908
-0.316278696060180664 1.9908907413482666 -1.19590425491333008
1.12242972850799561 2.64319586753845215 -1.06693434715270996
-1.33140349388122559 3.39502716064453125 -1.16594028472900391
0.76210486888885498 4.6651453971862793 -0.540336370468139648
1.12597537040710449 3.50042963027954102 -1.17571067810058594
0.085500665009021759 2.60360050201416016 -1.1936652660369873
-1.20341789722442627 4.06696081161499023 -0.362489372491836548
-1.23084926605224609 3.17428255081176758 -1.15806436538696289
-0.772400498390197754 4.40149927139282227 -0.834126949310302734
-0.302008390426635742 3.92271518707275391 -1.14714837074279785
-0.165104031562805176 1.98111987113952637 -1.21772253513336182
-0.261330962181091309 2.59731531143188477 -1.14987277984619141
0.995860517024993896 4.37347173690795898 -0.628500819206237793
-1.40439355373382568 3.50831723213195801 -1.05399739742279053
0.0402869060635566711 3.82533931732177734 -0.689325451850891113
0.741558611392974854 3.54997539520263672 -1.10491096973419189
