ply
format ascii 1.0
element vertex 256
comment vertices
property float x
property float y
property float z
end_header
-0.229620963335037231 2.28390789031982422 -1.17806112766265869
0.0892500728368759155 4.99489259719848633 -0.233095705509185791
1.20235562324523926 3.6148228645324707 -1.13024401664733887
-0.660250484943389893 3.16520571708679199 -1.20411264896392822
1.30922055244445801 3.88085031509399414 -0.034787788987159729
-2.29105424880981445 -0.303621292114257812 -1.19952678680419922
0.688382565975189209 2.16176176071166992 -1.11485087871551514
0.794995665550231934 4.65306663513183594 -0.65365833044052124
-0.0287975594401359558 2.77861642837524414 -1.1743091344833374
0.211530908942222595 1.36022400856018066 -1.10168790817260742
-0.836923301219940186 4.26751804351806641 -1.14550244808197021
-2.02107667922973633 2.64219951629638672 -1.16473758220672607
-0.48842543363571167 2.63298654556274414 -0.967213213443756104
1.09568893909454346 2.65665721893310547 -1.05187475681304932
0.563230156898498535 2.86620140075683594 -1.12030744552612305
-0.112565100193023682 3.35934019088745117 -1.26482129096984863
0.081754535436630249 2.52275657653808594 -1.15914356708526611
0.721108853816986084 3.53585195541381836 -1.12426877021789551
-0.273614287376403809 3.8942253589630127 -1.08679068088531494
-0.786168158054351807 3.13998627662658691 -1.21948230266571045
1.17769110202789307 2.63484764099121094 -1.07941746711730957
-0.200330436229705811 2.54665589332580566 -1.1487346887588501
-0.496269911527633667 1.89356410503387451 -1.22497379779815674
0.99397587776184082 3.91072177886962891 -1.01952636241912842
-1.08385443687438965 2.46686172485351562 -1.06870174407958984
-0.107523441314697266 3.17217636108398438 -0.998687565326690674
0.743588924407958984 3.55209159851074219 -1.10547304153442383
-0.813880383968353271 2.81069850921630859 -1.10939013957977295
0.22583499550819397 2.59887337684631348 -1.18726766109466553
-1.21764087677001953 3.43925261497497559 -0.963837862014770508
0.657641410827636719 2.17686676979064941 -1.1054455041885376
-1.20552849769592285 1.12102985382080078 -1.08217823505401611
-1.25260543823242188 3.72096753120422363 -1.00605273246765137
0.766539156436920166 2.32507753372192383 -1.1383509635925293
-0.126426815986633301 2.18037056922912598 -1.20142686367034912
0.125665158033370972 2.80531477928161621 -1.17672932147979736
2.78376483917236328 3.41889238357543945 -1.08922100067138672
0.81045001745223999 4.14469766616821289 -0.863057792186737061
0.634438157081604004 3.63972640037536621 -1.10098791122436523
0.326537072658538818 4.63825607299804688 -0.222876816987991333
-2.1410675048828125 0.875041842460632324 -1.18798232078552246
0.914431333541870117 4.56083345413208008 -0.424257099628448486
1.06301558017730713 3.65211296081542969 -0.54896700382232666
-1.84908080101013184 2.40154099464416504 -1.20200324058532715
-0.0835517793893814087 2.44628286361694336 -1.1577986478805542
0.971868455410003662 2.63697934150695801 -1.15756392478942871
0.947706520557403564 4.11410427093505859 -1.00321102142333984
0.654510259628295898 2.18253374099731445 -1.12170302867889404
-0.984483838081359863 3.52155971527099609 -1.10213685035705566
1.12566602230072021 2.62401056289672852 -1.08391392230987549
-0.0188796650618314743 3.20430350303649902 -1.16223061084747314
-1.13767516613006592 3.67991065979003906 -0.483357667922973633
0.0890709161758422852 2.70330929756164551 -1.16835689544677734
-0.433089643716812134 1.99654912948608398 -1.1974334716796875
0.766122043132781982 3.52534747123718262 -1.12363135814666748
2.27317571640014648 1.58203125 -1.13411879539489746
0.748886704444885254 1.00615930557250977 -1.07010030746459961
-2.78428554534912109 2.40849447250366211 -1.23454117774963379
0.742882788181304932 3.54643964767456055 -1.1101372241973877
-0.408770084381103516 3.80892014503479004 -1.11170971393585205
-1.12281429767608643 1.72370219230651855 -1.19125223159790039
-0.382960081100463867 4.65758895874023438 -0.55431210994720459
0.589290261268615723 3.50209426879882812 -0.982850730419158936
1.08856940269470215 2.64660000801086426 -1.08043527603149414
-1.07203686237335205 2.47536468505859375 -1.11054384708404541
-0.740404844284057617 4.09996652603149414 -1.02444708347320557
1.14509069919586182 2.61821794509887695 -1.08769130706787109
-0.541741549968719482 2.73134183883666992 -1.25279319286346436
0.642551064491271973 2.18561744689941406 -1.13001847267150879
0.18819466233253479 1.37500977516174316 -1.1347355842590332
-0.0773604065179824829 2.60869050025939941 -1.15805351734161377
0.290512770414352417 4.33163070678710938 -0.488902509212493896
-1.1065223217010498 2.4535224437713623 -1.11030030250549316
0.0985635370016098022 2.869720458984375 -1.18167555332183838
0.393626362085342407 4.33595466613769531 -0.553191244602203369
-1.3423229455947876 2.84404611587524414 -0.5919913649559021
0.906787991523742676 3.75898218154907227 -1.0543210506439209
-0.556989729404449463 3.1791832447052002 -0.987332582473754883
-1.99943029880523682 1.78761434555053711 -1.09982872009277344
0.499859750270843506 4.82773256301879883 -0.0265721641480922699
0.201096072793006897 1.3644939661026001 -1.10767412185668945
1.40926921367645264 4.28956508636474609 -0.99073106050491333
-0.306431412696838379 2.07605171203613281 -1.2007133960723877
0.373569458723068237 1.87916731834411621 -1.226165771484375
-0.0618418678641319275 2.33660292625427246 -1.160575270652771
-1.28116059303283691 3.51430225372314453 -1.14731061458587646
-0.801540732383728027 4.1288294792175293 -0.342485398054122925
-1.62798166275024414 3.83435440063476562 -0.866080701351165771
0.732214808464050293 3.8179161548614502 -1.10464680194854736
0.376682668924331665 4.54475879669189453 -0.84739309549331665
0.746069014072418213 3.53573799133300781 -1.10536313056945801
0.657164394855499268 2.20162701606750488 -1.13312911987304688
-0.0659530162811279297 2.55395650863647461 -1.14465641975402832
1.6377403736114502 3.56600141525268555 -0.343267649412155151
-1.57791018486022949 3.5097191333770752 -1.21313238143920898
-1.09289240837097168 2.47079968452453613 -1.11766576766967773
1.20101845264434814 3.32236862182617188 -1.11796426773071289
0.847619831562042236 2.25920963287353516 -1.18320226669311523
0.260730117559432983 3.66280555725097656 -1.14946532249450684
-1.48639345169067383 3.59112930297851562 -0.871810793876647949
1.12919080257415771 2.6214754581451416 -1.07947707176208496
0.567234337329864502 3.54515314102172852 -0.892458021640777588
1.55263888835906982 3.02477407455444336 -0.614096283912658691
0.656055212020874023 2.17977333068847656 -1.11757934093475342
0.000516481697559356689 2.33880615234375 -1.18274331092834473
0.068810977041721344 2.73161768913269043 -1.14935600757598877
0.0872964411973953247 2.70017147064208984 -1.17135083675384521
1.63091063499450684 3.4008028507232666 -0.593950390815734863
-1.08411657810211182 2.42224884033203125 -1.24713516235351562
0.774178385734558105 2.97789502143859863 -1.11902832984924316
-1.08361363410949707 2.47222137451171875 -1.09280049800872803
0.259680628776550293 2.89093899726867676 -1.17409276962280273
2.0379331111907959 2.90157651901245117 -1.20126605033874512
-0.0120200812816619873 2.85403156280517578 -1.16693294048309326
-2.39239621162414551 0.78804779052734375 -1.08828222751617432
-0.587406277656555176 1.88114511966705322 -1.17119371891021729
0.0693273544311523438 2.89430975914001465 -1.17089176177978516
0.185957297682762146 1.38182973861694336 -1.11921191215515137
0.0789381414651870728 2.78756427764892578 -1.01655876636505127
-1.31768584251403809 4.06294631958007812 -0.962450981140136719
-0.953476130962371826 3.35670924186706543 -0.762088894844055176
-0.265590637922286987 3.89844822883605957 -1.10629677772521973
-1.79308974742889404 2.49609184265136719 -0.994937539100646973
-0.0267507638782262802 2.55690193176269531 -1.19839024543762207
-0.271090924739837646 3.90437841415405273 -1.10917985439300537
0.400611281394958496 1.5946810245513916 -1.36434173583984375
0.663231849670410156 2.17342972755432129 -1.10436248779296875
0.64632415771484375 2.21594023704528809 -1.12271952629089355
-2.95044326782226562 0.429574012756347656 -1.10037708282470703
0.224967688322067261 1.36632966995239258 -1.08697128295898438
-0.667612671852111816 3.98250365257263184 -0.693832635879516602
1.17407679557800293 4.30985832214355469 -0.441478610038757324
1.09862935543060303 2.64993858337402344 -1.07878744602203369
0.650483250617980957 2.18418169021606445 -1.10812222957611084
1.14007687568664551 2.62167525291442871 -1.09278678894042969
-0.207602113485336304 2.26504325866699219 -1.16390931606292725
0.972561419010162354 3.86326432228088379 -1.09281480312347412
-0.181928351521492004 2.33542180061340332 -1.15553915500640869
-0.271652191877365112 2.04900574684143066 -1.2120743989944458
0.657341301441192627 3.64996457099914551 -1.07510685920715332
0.0552891232073307037 2.70621466636657715 -1.18130040168762207
0.209970131516456604 1.36158406734466553 -1.11201119422912598
-1.28175222873687744 3.15543508529663086 -0.659381389617919922
-1.22269880771636963 2.91257190704345703 -1.06477916240692139
-1.29763603210449219 3.01607441902160645 -1.18200349807739258
-1.02075088024139404 2.78051352500915527 -0.950390934944152832
-0.455458402633666992 1.96950101852416992 -1.22291624546051025
0.765466392040252686 3.52804160118103027 -1.11370527744293213
0.160949990153312683 3.0985870361328125 -1.08879542350769043
1.1014556884765625 2.64349961280822754 -1.07732713222503662
-1.56112360954284668 3.11167430877685547 -1.18801665306091309
-0.398294717073440552 3.4373469352722168 -1.22237074375152588
-0.835315108299255371 2.75848913192749023 -1.1807023286819458
0.610169529914855957 2.18807792663574219 -1.10112881660461426
1.14107096195220947 2.62084841728210449 -1.08106350898742676
-1.03605747222900391 3.44374537467956543 -0.533297181129455566
0.853896498680114746 3.92469429969787598 -1.08612310886383057
0.860875964164733887 4.22004413604736328 -0.776252567768096924
0.907306909561157227 4.30269050598144531 -0.938959121704101562
0.0691340416669845581 2.60128879547119141 -1.17482948303222656
1.10170483589172363 2.64674639701843262 -1.06748116016387939
1.25026130676269531 3.04994702339172363 -1.12211370468139648
1.67471194267272949 3.37397265434265137 -0.763090550899505615
-0.0913777947425842285 1.61630797386169434 -1.32631087303161621
0.572095632553100586 3.50130724906921387 -1.05284011363983154
1.65841948986053467 2.10588312149047852 -1.11526882648468018
-0.559288918972015381 1.78414583206176758 -1.25787687301635742
-0.996127784252166748 2.26811456680297852 -1.14994955062866211
-1.59445571899414062 2.53483009338378906 -0.837094366550445557
-0.855052530765533447 3.80368900299072266 -0.750318706035614014
1.43941307067871094 3.8479316234588623 -1.12708759307861328
-1.02670037746429443 3.29732608795166016 -1.20800602436065674
-0.645253181457519531 3.67789125442504883 -0.588840126991271973
-0.255429685115814209 3.8959197998046875 -1.10743570327758789
-0.920638442039489746 3.49459195137023926 -1.10454630851745605
1.12953102588653564 2.64094972610473633 -1.08440232276916504
-1.73685169219970703 2.37695574760437012 -1.07101345062255859
-0.0765904262661933899 2.40686559677124023 -1.19484448432922363
-0.340131580829620361 2.06150650978088379 -1.20871949195861816
0.757627129554748535 2.44285035133361816 -1.10616827011108398
0.251214563846588135 1.74389791488647461 -1.31683921813964844
0.758907437324523926 3.52994656562805176 -1.11418187618255615
1.11791956424713135 2.62466883659362793 -1.06740546226501465
0.199692130088806152 1.35623645782470703 -1.12398171424865723
-0.941051840782165527 3.97525596618652344 -0.995758891105651855
0.214882552623748779 3.50823616981506348 -0.823010921478271484
0.751410901546478271 3.53900790214538574 -1.10414063930511475
0.412962347269058228 4.46573209762573242 -0.586846232414245605
0.354603081941604614 3.62690234184265137 -0.919130444526672363
0.856972754001617432 3.15442943572998047 -1.0655670166015625
-0.445352226495742798 2.10268068313598633 -1.17115914821624756
0.098261319100856781 2.77118134498596191 -1.18411481380462646
0.803434014320373535 4.63460540771484375 -0.520281314849853516
-0.780144810676574707 2.93364906311035156 -1.18242406845092773
-0.271320939064025879 3.8931269645690918 -1.08331072330474854
1.17623746395111084 4.19108963012695312 0.203872531652450562
0.204666823148727417 1.35685634613037109 -1.12883651256561279
0.171445116400718689 1.40852415561676025 -1.09873819351196289
-0.0115236937999725342 2.6676630973815918 -1.13570141792297363
1.13914823532104492 4.65693235397338867 -1.05421972274780273
-0.373170584440231323 1.91908490657806396 -1.19844603538513184
-1.2357175350189209 3.14826655387878418 -0.843147873878479004
-1.42425680160522461 4.00660324096679688 -1.13621211051940918
-1.17457926273345947 3.24351406097412109 -0.979881882667541504
0.662337899208068848 2.1791081428527832 -1.12257397174835205
0.363032102584838867 3.12740945816040039 -1.2529069185256958
0.646604299545288086 2.19233226776123047 -1.1189194917678833
-1.41449141502380371 3.07890510559082031 -1.18312788009643555
0.761510252952575684 3.53403472900390625 -1.1088254451751709
0.87730562686920166 1.32644248008728027 -1.23371720314025879
0.742172122001647949 4.75304698944091797 -0.525983214378356934
0.496720880270004272 4.37351322174072266 -0.663701057434082031
0.64814835786819458 4.56296253204345703 -0.625664591789245605
-0.238791480660438538 2.11367368698120117 -1.18460690975189209
-0.143158882856369019 2.24934053421020508 -1.19884026050567627
0.137863278388977051 2.65567731857299805 -1.17064642906188965
0.671704590320587158 4.10718202590942383 -1.03542530536651611
0.753251492977142334 3.94097471237182617 -1.11267220973968506
-1.09057748317718506 2.47211503982543945 -1.09533154964447021
-0.874112248420715332 3.63249397277832031 -1.20336234569549561
1.3209526538848877 4.67220592498779297 0.00695306062698364258
0.901302993297576904 4.15989828109741211 -0.783341109752655029
-0.768261075019836426 3.4907987117767334 -1.09905636310577393
1.05434143543243408 3.58035707473754883 -1.08540225028991699
-0.952229499816894531 3.50638580322265625 -0.990571498870849609
-1.20937013626098633 3.07893943786621094 -1.15917718410491943
-0.120324954390525818 2.55249524116516113 -1.1528249979019165
-0.331257134675979614 2.02730131149291992 -1.22385275363922119
-0.0193312615156173706 2.88991618156433105 -1.17700803279876709
1.0991896390914917 2.65221309661865234 -1.08743441104888916
0.0532295331358909607 2.65356850624084473 -1.17064297199249268
0.0272323749959468842 2.71825385093688965 -1.16498839855194092
0.739479184150695801 3.53387689590454102 -1.12141120433807373
0.354646563529968262 4.76631689071655273 -0.534462809562683105
1.30721795558929443 3.76578092575073242 -0.571989178657531738
1.20191454887390137 3.44986963272094727 -1.09787845611572266
0.205361410975456238 1.40520405769348145 -1.11166250705718994
0.371534913778305054 3.14684867858886719 -1.10033547878265381
0.175699725747108459 4.00121068954467773 -0.71200871467590332
-2.26110410690307617 3.00685906410217285 -0.992723703384399414
1.61721253395080566 4.23422145843505859 -0.660177171230316162
0.652332663536071777 2.17987537384033203 -1.1068035364151001
-0.914064168930053711 2.94241857528686523 -1.24215555191040039
-2.30821704864501953 1.64215683937072754 -0.867196321487426758
-1.09089350700378418 2.47104811668395996 -1.11779367923736572
-0.0660799294710159302 2.39870119094848633 -1.18755710124969482
-1.38199520111083984 2.71672677993774414 -0.774057269096374512
0.112099483609199524 1.4165036678314209 -1.34308302402496338
0.937980771064758301 4.50045156478881836 -0.701359272003173828
0.222527086734771729 1.56234776973724365 -1.11426794528961182
-0.0662411898374557495 2.41179871559143066 -1.17101633548736572
2.20261812210083008 2.28912496566772461 -1.14402091503143311
0.0270969048142433167 2.75745058059692383 -1.18211114406585693
1.09649205207824707 3.79747676849365234 -1.06231868267059326
-2.06445693969726562 2.64145183563232422 -0.65939253568649292
-0.851904094219207764 2.52772212028503418 -1.16326522827148438
