ply
format ascii 1.0
element vertex 113
comment vertices
property float x
property float y
property float z
end_header
-0.229620963335037231 2.28390789031982422 -1.17806112766265869
0.688382565975189209 2.16176176071166992 -1.11485087871551514
-0.0287975594401359558 2.77861642837524414 -1.1743091344833374
0.211530908942222595 1.36022400856018066 -1.10168790817260742
1.09568893909454346 2.65665721893310547 -1.05187475681304932
0.081754535436630249 2.52275657653808594 -1.15914356708526611
0.721108853816986084 3.53585195541381836 -1.12426877021789551
-0.273614287376403809 3.8942253589630127 -1.08679068088531494
1.17769110202789307 2.63484764099121094 -1.07941746711730957
-0.200330436229705811 2.54665589332580566 -1.1487346887588501
-0.496269911527633667 1.89356410503387451 -1.22497379779815674
-1.08385443687438965 2.46686172485351562 -1.06870174407958984
0.743588924407958984 3.55209159851074219 -1.10547304153442383
0.22583499550819397 2.59887337684631348 -1.18726766109466553
0.657641410827636719 2.17686676979064941 -1.1054455041885376
-0.126426815986633301 2.18037056922912598 -1.20142686367034912
0.125665158033370972 2.80531477928161621 -1.17672932147979736
-0.0835517793893814087 2.44628286361694336 -1.1577986478805542
0.971868455410003662 2.63697934150695801 -1.15756392478942871
0.654510259628295898 2.18253374099731445 -1.12170302867889404
1.12566602230072021 2.62401056289672852 -1.08391392230987549
-0.0188796650618314743 3.20430350303649902 -1.16223061084747314
0.0890709161758422852 2.70330929756164551 -1.16835689544677734
-0.433089643716812134 1.99654912948608398 -1.1974334716796875
0.766122043132781982 3.52534747123718262 -1.12363135814666748
0.742882788181304932 3.54643964767456055 -1.1101372241973877
-0.408770084381103516 3.80892014503479004 -1.11170971393585205
1.08856940269470215 2.64660000801086426 -1.08043527603149414
-1.07203686237335205 2.47536468505859375 -1.11054384708404541
1.14509069919586182 2.61821794509887695 -1.08769130706787109
0.642551064491271973 2.18561744689941406 -1.13001847267150879
0.18819466233253479 1.37500977516174316 -1.1347355842590332
-0.0773604065179824829 2.60869050025939941 -1.15805351734161377
-1.1065223217010498 2.4535224437713623 -1.11030030250549316
0.0985635370016098022 2.869720458984375 -1.18167555332183838
0.201096072793006897 1.3644939661026001 -1.10767412185668945
-0.306431412696838379 2.07605171203613281 -1.2007133960723877
-0.0618418678641319275 2.33660292625427246 -1.160575270652771
0.746069014072418213 3.53573799133300781 -1.10536313056945801
0.657164394855499268 2.20162701606750488 -1.13312911987304688
-0.0659530162811279297 2.55395650863647461 -1.14465641975402832
-1.09289240837097168 2.47079968452453613 -1.11766576766967773
1.12919080257415771 2.6214754581451416 -1.07947707176208496
0.656055212020874023 2.17977333068847656 -1.11757934093475342
0.000516481697559356689 2.33880615234375 -1.18274331092834473
0.068810977041721344 2.73161768913269043 -1.14935600757598877
0.0872964411973953247 2.70017147064208984 -1.17135083675384521
0.774178385734558105 2.97789502143859863 -1.11902832984924316
-1.08361363410949707 2.47222137451171875 -1.09280049800872803
0.259680628776550293 2.89093899726867676 -1.17409276962280273
-0.0120200812816619873 2.85403156280517578 -1.16693294048309326
-0.587406277656555176 1.88114511966705322 -1.17119371891021729
0.0693273544311523438 2.89430975914001465 -1.17089176177978516
0.185957297682762146 1.38182973861694336 -1.11921191215515137
-0.265590637922286987 3.89844822883605957 -1.10629677772521973
-0.0267507638782262802 2.55690193176269531 -1.19839024543762207
-0.271090924739837646 3.90437841415405273 -1.10917985439300537
0.663231849670410156 2.17342972755432129 -1.10436248779296875
0.64632415771484375 2.21594023704528809 -1.12271952629089355
0.224967688322067261 1.36632966995239258 -1.08697128295898438
1.09862935543060303 2.64993858337402344 -1.07878744602203369
0.650483250617980957 2.18418169021606445 -1.10812222957611084
1.14007687568664551 2.62167525291442871 -1.09278678894042969
-0.207602113485336304 2.26504325866699219 -1.16390931606292725
-0.181928351521492004 2.33542180061340332 -1.15553915500640869
-0.271652191877365112 2.04900574684143066 -1.2120743989944458
0.0552891232073307037 2.70621466636657715 -1.18130040168762207
0.209970131516456604 1.36158406734466553 -1.11201119422912598
-0.455458402633666992 1.96950101852416992 -1.22291624546051025
0.765466392040252686 3.52804160118103027 -1.11370527744293213
1.1014556884765625 2.64349961280822754 -1.07732713222503662
0.610169529914855957 2.18807792663574219 -1.10112881660461426
1.14107096195220947 2.62084841728210449 -1.08106350898742676
0.0691340416669845581 2.60128879547119141 -1.17482948303222656
1.10170483589172363 2.64674639701843262 -1.06748116016387939
-0.255429685115814209 3.8959197998046875 -1.10743570327758789
1.12953102588653564 2.64094972610473633 -1.08440232276916504
-0.0765904262661933899 2.40686559677124023 -1.19484448432922363
-0.340131580829620361 2.06150650978088379 -1.20871949195861816
0.757627129554748535 2.44285035133361816 -1.10616827011108398
0.758907437324523926 3.52994656562805176 -1.11418187618255615
1.11791956424713135 2.62466883659362793 -1.06740546226501465
0.199692130088806152 1.35623645782470703 -1.12398171424865723
0.751410901546478271 3.53900790214538574 -1.10414063930511475
-0.445352226495742798 2.10268068313598633 -1.17115914821624756
0.098261319100856781 2.77118134498596191 -1.18411481380462646
-0.271320939064025879 3.8931269645690918 -1.08331072330474854
0.204666823148727417 1.35685634613037109 -1.12883651256561279
0.171445116400718689 1.40852415561676025 -1.09873819351196289
-0.0115236937999725342 2.6676630973815918 -1.13570141792297363
-0.373170584440231323 1.91908490657806396 -1.19844603538513184
0.662337899208068848 2.1791081428527832 -1.12257397174835205
0.646604299545288086 2.19233226776123047 -1.1189194917678833
0.761510252952575684 3.53403472900390625 -1.1088254451751709
-0.238791480660438538 2.11367368698120117 -1.18460690975189209
-0.143158882856369019 2.24934053421020508 -1.19884026050567627
0.137863278388977051 2.65567731857299805 -1.17064642906188965
-1.09057748317718506 2.47211503982543945 -1.09533154964447021
-0.120324954390525818 2.55249524116516113 -1.1528249979019165
-0.331257134675979614 2.02730131149291992 -1.22385275363922119
-0.0193312615156173706 2.88991618156433105 -1.17700803279876709
1.0991896390914917 2.65221309661865234 -1.08743441104888916
0.0532295331358909607 2.65356850624084473 -1.17064297199249268
0.0272323749959468842 2.71825385093688965 -1.16498839855194092
0.739479184150695801 3.53387689590454102 -1.12141120433807373
0.205361410975456238 1.40520405769348145 -1.11166250705718994
0.371534913778305054 3.14684867858886719 -1.10033547878265381
0.652332663536071777 2.17987537384033203 -1.1068035364151001
-1.09089350700378418 2.47104811668395996 -1.11779367923736572
-0.0660799294710159302 2.39870119094848633 -1.18755710124969482
0.222527086734771729 1.56234776973724365 -1.11426794528961182
-0.0662411898374557495 2.41179871559143066 -1.17101633548736572
0.0270969048142433167 2.75745058059692383 -1.18211114406585693
