ply
format ascii 1.0
element vertex 256
comment vertices
property float x
property float y
property float z
end_header
0.660667121410369873 2.20079970359802246 -1.11955618858337402
-0.29069104790687561 4.54164934158325195 -0.259346216917037964
2.02324700355529785 3.42397069931030273 -0.47866356372833252
-2.2727506160736084 2.13750171661376953 -1.05151176452636719
0.61940610408782959 4.49496650695800781 -0.779605865478515625
1.31998598575592041 3.35508441925048828 -1.10878467559814453
-0.937213718891143799 3.68747591972351074 -1.1701197624206543
-0.603542566299438477 1.91646552085876465 -1.15468513965606689
-0.0502497218549251556 2.77923917770385742 -1.16493880748748779
-1.40048027038574219 2.85747003555297852 -0.589704275131225586
1.12545228004455566 3.8447272777557373 -0.66057133674621582
-0.756937384605407715 4.26642990112304688 -1.09076440334320068
0.757255733013153076 3.52639889717102051 -1.09315454959869385
-0.42350006103515625 1.8793034553527832 -1.20482087135314941
1.10271835327148438 2.64547228813171387 -1.06040585041046143
1.15270161628723145 2.61786484718322754 -1.09368503093719482
-1.63141071796417236 3.74419641494750977 -1.01562643051147461
-1.93336391448974609 2.63022160530090332 -1.20495331287384033
-0.103822976350784302 2.43220901489257812 -1.13515090942382812
2.00471282005310059 3.87945961952209473 -1.00564253330230713
0.28097611665725708 2.18075275421142578 -1.20523500442504883
-1.34325087070465088 3.13778543472290039 -1.21896469593048096
0.0234385952353477478 2.79890751838684082 -1.16191291809082031
-1.08857393264770508 2.47866129875183105 -1.06764328479766846
0.725729942321777344 3.55833339691162109 -1.10766446590423584
0.634101986885070801 3.9480736255645752 -1.08482801914215088
-0.287920624017715454 3.90062332153320312 -1.09978008270263672
1.6905217170715332 4.13227272033691406 -0.904042541980743408
-2.52056479454040527 1.72228562831878662 -0.813922405242919922
0.216770187020301819 1.37468993663787842 -1.09412765502929688
-0.289303719997406006 3.87620449066162109 -1.08674776554107666
-0.87550276517868042 3.7119290828704834 -0.670221805572509766
0.0771727859973907471 2.99051117897033691 -1.17700207233428955
1.19714415073394775 4.22010469436645508 -0.000454798340797424316
0.0982003360986709595 2.7785794734954834 -1.16678261756896973
-1.15998184680938721 4.31137800216674805 -0.867052078247070312
0.183447390794754028 4.76088142395019531 0.0346812456846237183
0.706370174884796143 4.39973258972167969 -0.516766548156738281
-1.66470146179199219 2.62712717056274414 -1.1940305233001709
0.568774104118347168 4.05301570892333984 -0.988994121551513672
-0.149848327040672302 2.29326558113098145 -1.14806139469146729
0.666760444641113281 3.00049304962158203 -1.11439573764801025
0.692206978797912598 3.95742654800415039 -0.884084045886993408
0.664405345916748047 2.18236231803894043 -1.1058727502822876
-0.484236091375350952 1.97638916969299316 -1.20722949504852295
0.16958191990852356 2.90676975250244141 -1.16435527801513672
-1.92099857330322266 2.22690320014953613 -1.04069018363952637
1.14114236831665039 2.62421274185180664 -1.09614431858062744
-0.239064395427703857 2.49728107452392578 -1.13781833648681641
0.684261322021484375 2.18290567398071289 -1.10600543022155762
-0.81052786111831665 3.90576744079589844 -1.01394116878509521
0.0477104969322681427 2.58981966972351074 -1.15949523448944092
-1.04706716537475586 3.8252255916595459 -1.12441587448120117
0.0492721423506736755 2.63798952102661133 -1.15916967391967773
-0.863017678260803223 2.27199602127075195 -1.1497499942779541
-1.41935133934020996 2.32529020309448242 -1.21583902835845947
-0.209935978055000305 2.26688694953918457 -1.13704013824462891
1.33093571662902832 3.82503986358642578 -1.14241909980773926
-0.297173261642456055 3.90424442291259766 -1.12382733821868896
-0.922552227973937988 2.84136104583740234 -0.951304316520690918
-1.10411345958709717 2.46618103981018066 -1.11374795436859131
-0.0456819981336593628 2.77333855628967285 -1.1799767017364502
0.474601924419403076 2.81003928184509277 -1.09414243698120117
0.20767781138420105 1.37076640129089355 -1.12732064723968506
0.571553885936737061 4.12095928192138672 -1.04346871376037598
0.0879098623991012573 4.77921628952026367 -0.526267945766448975
-0.995448887348175049 3.30834150314331055 -1.16532588005065918
0.0843157172203063965 3.95518684387207031 -1.09274017810821533
-2.71170544624328613 2.98271989822387695 -1.01014864444732666
-0.562223553657531738 2.61062932014465332 -1.21771585941314697
0.233120530843734741 2.76619434356689453 -1.20700299739837646
0.650077641010284424 2.20945644378662109 -1.09663808345794678
0.199607059359550476 1.34730899333953857 -1.11635315418243408
0.754700660705566406 3.54899382591247559 -1.10079431533813477
1.40717387199401855 2.92795395851135254 -1.12213754653930664
0.666775763034820557 2.56050443649291992 -1.13461434841156006
0.775879740715026855 4.3188629150390625 -0.806193113327026367
-1.08403229713439941 3.76445460319519043 -1.15444493293762207
-0.267535507678985596 2.06893801689147949 -1.19120359420776367
-1.26011896133422852 3.74634122848510742 -1.0904315710067749
1.50199651718139648 2.94273591041564941 -0.988329410552978516
-0.290470391511917114 3.89702272415161133 -1.12928533554077148
-0.798597335815429688 2.87241721153259277 -0.964912652969360352
-2.49297642707824707 -0.357668399810791016 -1.07512974739074707
0.378735125064849854 2.58574795722961426 -1.19525563716888428
-1.11850905418395996 0.905672073364257812 -0.99900972843170166
0.666698336601257324 2.18505406379699707 -1.10245490074157715
0.196442112326622009 1.47635650634765625 -1.07613444328308105
-0.440092206001281738 3.08508419990539551 -0.972720861434936523
0.932442665100097656 3.17138123512268066 -0.693394243717193604
0.0813847333192825317 4.1575775146484375 -0.521951973438262939
-0.687570333480834961 4.81304121017456055 -0.410964429378509521
0.438065111637115479 3.76065683364868164 -1.08424472808837891
0.722614288330078125 3.54693722724914551 -1.10836553573608398
-1.6403278112411499 2.7024838924407959 -1.10236179828643799
0.775337934494018555 3.53963303565979004 -1.10217595100402832
1.16442394256591797 2.62885522842407227 -1.07587099075317383
1.11337578296661377 2.62214803695678711 -1.07712554931640625
-0.942659378051757812 3.53460693359375 -0.507343292236328125
1.00532114505767822 4.41876316070556641 -0.67708122730255127
0.759047269821166992 3.5265810489654541 -1.09841740131378174
0.294087111949920654 2.87590265274047852 -1.11257815361022949
0.889194846153259277 3.76853013038635254 -0.763187229633331299
-1.09522223472595215 2.47092700004577637 -1.07948970794677734
-0.0414413735270500183 2.53636074066162109 -1.15827846527099609
-1.10264277458190918 2.46990585327148438 -1.12129807472229004
-0.926272273063659668 3.62370419502258301 -0.952123343944549561
1.29836523532867432 4.22294282913208008 -0.978972494602203369
0.622802376747131348 3.91039299964904785 -0.976736187934875488
-0.676458358764648438 2.23074722290039062 -1.29579806327819824
1.12090778350830078 2.62287354469299316 -1.0848919153213501
-0.399286240339279175 2.12249207496643066 -1.19851291179656982
-1.51207530498504639 4.05921554565429688 -1.05864286422729492
1.14497566223144531 2.61683201789855957 -1.08023035526275635
1.30256855487823486 4.11283636093139648 -0.351881563663482666
-0.377303421497344971 1.56182849407196045 -1.35614335536956787
-2.31504940986633301 2.14083313941955566 -0.876397609710693359
0.655676662921905518 2.18770027160644531 -1.11816215515136719
0.152329802513122559 5.07393789291381836 -0.133641928434371948
0.897152125835418701 3.44621706008911133 -1.04201412200927734
-0.180665820837020874 2.0499260425567627 -1.18205392360687256
-1.25291585922241211 3.24843358993530273 -0.813868343830108643
0.420034497976303101 2.8226780891418457 -1.0662916898727417
0.0326927937567234039 2.84222245216369629 -1.17303252220153809
-0.393465310335159302 2.27895784378051758 -1.13797962665557861
1.65281319618225098 2.95415902137756348 -1.12769174575805664
0.0183706134557723999 2.44800305366516113 -1.14336812496185303
0.665131092071533203 2.19949555397033691 -1.10696947574615479
-0.539185643196105957 1.83084535598754883 -1.21824359893798828
1.30930960178375244 3.66812491416931152 -1.13374888896942139
0.177607461810112 4.01367664337158203 -0.63877558708190918
0.208119019865989685 1.34681129455566406 -1.12035131454467773
-1.07733559608459473 2.78229427337646484 -0.773555576801300049
0.0888106971979141235 2.83875441551208496 -1.17431032657623291
-0.0199235603213310242 2.62884926795959473 -1.15666162967681885
-1.43045508861541748 3.53350591659545898 -1.08530795574188232
0.0517383888363838196 2.6614985466003418 -1.16654109954833984
0.746620595455169678 3.78365802764892578 -1.09853243827819824
0.750780761241912842 3.55900263786315918 -1.10346758365631104
0.821398675441741943 4.17848014831542969 -0.988804459571838379
-0.0501079559326171875 2.72755599021911621 -1.1360621452331543
0.764648020267486572 4.12690925598144531 -0.992104113101959229
-0.0832743346691131592 2.4918975830078125 -1.12318217754364014
-0.838623046875 3.99585247039794922 -0.560945689678192139
-0.355928122997283936 2.18839669227600098 -1.15946757793426514
-0.291576564311981201 3.90239453315734863 -1.11230731010437012
-0.484413474798202515 2.02583551406860352 -1.16412115097045898
0.659530401229858398 2.18185949325561523 -1.11452019214630127
1.6665416955947876 2.94713306427001953 -0.981048464775085449
0.689791023731231689 2.21560215950012207 -1.08608567714691162
-0.775200307369232178 4.53550052642822266 -0.124649718403816223
-0.199156999588012695 0.530516386032104492 -1.30216062068939209
-0.0590672418475151062 2.52979302406311035 -1.13899600505828857
-1.01970922946929932 4.38907003402709961 -1.1668243408203125
0.655414700508117676 2.19163799285888672 -1.1236884593963623
-0.187882378697395325 3.34211444854736328 -1.17880749702453613
0.193415209650993347 3.08877944946289062 -1.15731430053710938
0.757441878318786621 4.11556386947631836 -1.01454198360443115
-0.962983131408691406 2.60265827178955078 -1.25575149059295654
-0.0806446745991706848 2.36077308654785156 -1.14950227737426758
1.12948703765869141 2.62595510482788086 -1.07857537269592285
-1.4562305212020874 3.35329246520996094 -1.13585436344146729
0.0120769673958420753 2.70958900451660156 -1.17532658576965332
-0.101257100701332092 2.57339644432067871 -1.13597989082336426
1.32115304470062256 4.4316706657409668 -0.972783803939819336
-0.889824032783508301 3.50437712669372559 -1.19741439819335938
0.0494809374213218689 2.77777767181396484 -1.16723465919494629
-0.0660764724016189575 4.88236141204833984 -0.279472172260284424
1.77048075199127197 3.33432865142822266 -0.328589856624603271
-2.14787459373474121 3.84900474548339844 -1.11005520820617676
-1.11307179927825928 2.45944762229919434 -1.11938571929931641
-0.16455686092376709 3.65681552886962891 -1.05080413818359375
0.32326662540435791 2.69171285629272461 -1.21860599517822266
-1.37469720840454102 2.73493194580078125 -1.06813359260559082
0.661436557769775391 2.20339274406433105 -1.13552951812744141
-0.725381851196289062 3.22430849075317383 -1.21286141872406006
1.13175868988037109 2.62052106857299805 -1.07999658584594727
0.779887557029724121 4.20400857925415039 -0.941699981689453125
0.792760312557220459 4.23341989517211914 -0.823804974555969238
-0.580093026161193848 3.24148273468017578 -1.23328828811645508
0.70161283016204834 4.04679775238037109 -0.980222344398498535
-0.0595586299896240234 2.56140756607055664 -1.16339981555938721
0.605828285217285156 4.11711215972900391 -0.899839639663696289
-0.294969409704208374 3.90624356269836426 -1.0989677906036377
0.111339420080184937 2.73318052291870117 -1.14856410026550293
-0.147281631827354431 2.13365960121154785 -1.18681228160858154
1.50008010864257812 2.04453563690185547 -1.19835782051086426
0.191943928599357605 1.35873734951019287 -1.12185764312744141
-1.9605095386505127 0.711606979370117188 -1.10970020294189453
0.197957932949066162 1.36507785320281982 -1.11934840679168701
-0.283453762531280518 3.89728999137878418 -1.11084449291229248
0.339464426040649414 4.74329090118408203 -0.427363097667694092
0.662711679935455322 3.90135002136230469 -1.09234344959259033
-0.136275410652160645 4.97747325897216797 -0.276385486125946045
1.983542799949646 4.01886367797851562 -0.987044274806976318
0.765280842781066895 3.54790544509887695 -0.955018043518066406
0.856246292591094971 3.94141626358032227 -1.10787701606750488
0.209418430924415588 2.78253698348999023 -1.16658663749694824
0.76093292236328125 3.52781391143798828 -1.09842050075531006
-0.552028298377990723 3.09804105758666992 -1.1826019287109375
2.04947209358215332 0.56376194953918457 -1.15596640110015869
0.399059176445007324 2.77106189727783203 -1.08505570888519287
0.512372851371765137 2.59731078147888184 -1.15017879009246826
0.450976043939590454 4.18763494491577148 -0.655214846134185791
0.658989965915679932 2.18738079071044922 -1.11437559127807617
-0.987927258014678955 4.27829217910766602 -0.779192626476287842
-1.22222042083740234 3.58600902557373047 -0.848517954349517822
0.552681505680084229 4.17147254943847656 -0.83825230598449707
0.736176729202270508 4.09485149383544922 -1.02760791778564453
-2.62901496887207031 0.963200807571411133 -1.02112030982971191
0.0512460768222808838 4.09784698486328125 -0.504458725452423096
0.942615389823913574 3.5552067756652832 -0.583260059356689453
-1.23086154460906982 2.7807316780090332 -0.774877667427062988
0.0338250398635864258 3.33509540557861328 -1.14671015739440918
1.10674166679382324 2.6410222053527832 -1.10091269016265869
-0.912951350212097168 3.064453125 -1.23939251899719238
-1.1861196756362915 3.42692041397094727 -1.07222259044647217
-1.14036118984222412 4.450439453125 -1.05661392211914062
0.756022214889526367 3.5260765552520752 -1.09764754772186279
-2.40325188636779785 2.66571760177612305 -1.04647266864776611
0.237712040543556213 3.04118633270263672 -1.11577415466308594
-1.16890060901641846 3.01988744735717773 -1.2249985933303833
0.781979560852050781 3.84862852096557617 -1.0892939567565918
-0.711388289928436279 2.65016269683837891 -1.18654394149780273
0.309628129005432129 3.75756216049194336 -0.821020007133483887
0.63883519172668457 3.88909745216369629 -1.10246932506561279
1.79563760757446289 2.95031023025512695 -0.712232589721679688
-0.451188325881958008 3.09081172943115234 -0.897431731224060059
-0.22906908392906189 1.54866337776184082 -1.29744935035705566
0.513359546661376953 2.72394943237304688 -1.12057602405548096
-1.11615097522735596 3.1609194278717041 -0.671522438526153564
-0.343244045972824097 1.98438072204589844 -1.2046278715133667
0.713815748691558838 3.3688349723815918 -1.10971081256866455
0.773690938949584961 4.07212638854980469 -0.910500884056091309
0.206091135740280151 1.35527265071868896 -1.09923243522644043
0.807620346546173096 4.01216888427734375 -0.864892303943634033
-1.35318279266357422 2.90284347534179688 -1.17651998996734619
0.634942948818206787 3.69965004920959473 -0.93931269645690918
-2.05557680130004883 4.41585922241210938 -0.871078252792358398
1.23126006126403809 4.06970882415771484 -0.517816305160522461
-0.00436463207006454468 3.08973288536071777 -1.16247618198394775
-0.419983983039855957 2.02829265594482422 -1.21042096614837646
-2.31212735176086426 0.951317787170410156 -0.991532444953918457
-1.33825945854187012 4.00073623657226562 -1.20146310329437256
1.16093802452087402 2.62143516540527344 -1.0990520715713501
0.0654104053974151611 2.21118259429931641 -1.17237412929534912
0.630814850330352783 4.62261486053466797 -0.527996659278869629
0.672299206256866455 2.2059783935546875 -1.11667215824127197
-1.09772038459777832 2.46841716766357422 -1.09380948543548584
0.757629275321960449 3.43408536911010742 -1.08906185626983643
-1.30041718482971191 2.80133724212646484 -0.620830535888671875
0.199395626783370972 2.99689817428588867 -1.15931296348571777
0.196812078356742859 1.43490386009216309 -1.10341131687164307
0.611535251140594482 3.76493644714355469 -0.998089313507080078
0.327306687831878662 3.31262063980102539 -1.13892078399658203
-0.905845880508422852 3.35606622695922852 -0.852894067764282227
