ply
format ascii 1.0
element vertex 256
comment vertices
property float x
property float y
property float z
end_header
0.635054290294647217 2.18784236907958984 -1.14466249942779541
-0.571698546409606934 4.94051647186279297 -0.313444286584854126
1.27140974998474121 4.12123537063598633 -0.376015216112136841
-1.81490182876586914 2.8485870361328125 -0.801999151706695557
0.552660226821899414 4.54670906066894531 -0.647463202476501465
1.29594647884368896 3.37261867523193359 -1.14129030704498291
-0.974943578243255615 3.8243408203125 -1.14642894268035889
-0.485348045825958252 2.0191810131072998 -1.1531984806060791
-0.10391603410243988 2.80650997161865234 -1.16146111488342285
-1.39339852333068848 3.77176427841186523 -0.411425262689590454
0.726647496223449707 4.33522129058837891 -0.401004433631896973
-0.628044605255126953 4.66483497619628906 -0.861842751502990723
0.747826218605041504 3.56808900833129883 -1.10295975208282471
-0.318788021802902222 1.94744372367858887 -1.23083114624023438
1.07565522193908691 2.71147799491882324 -1.05218625068664551
1.16659092903137207 2.4983677864074707 -1.13016939163208008
-1.19066095352172852 4.43442106246948242 -0.793905019760131836
-1.72915327548980713 2.75118684768676758 -1.21837186813354492
-0.160095587372779846 2.46850395202636719 -1.14226388931274414
1.51633095741271973 4.13370752334594727 -0.93670344352722168
0.369494885206222534 4.04676961898803711 -0.7041778564453125
-1.11245274543762207 3.60069799423217773 -1.18204712867736816
-0.0132614970207214355 2.84059333801269531 -1.13241362571716309
-1.05274057388305664 2.53829097747802734 -1.0420219898223877
0.621971011161804199 3.33939480781555176 -1.23755431175231934
0.740695714950561523 4.1564483642578125 -0.995194971561431885
-0.337146788835525513 3.89541316032409668 -1.1000131368637085
1.30814158916473389 4.2364201545715332 -0.810927987098693848
-1.87487637996673584 2.9452362060546875 -0.454566270112991333
0.246637091040611267 1.44125628471374512 -1.06133675575256348
-0.485765933990478516 4.07042980194091797 -0.990551233291625977
-0.939933300018310547 4.48354530334472656 -0.485361814498901367
0.0237386226654052734 3.03988552093505859 -1.17660737037658691
1.21350967884063721 4.34302473068237305 -0.189768314361572266
0.0959770083427429199 2.79474520683288574 -1.19888627529144287
-1.18433451652526855 4.79533290863037109 -0.515804767608642578
-0.0066251605749130249 5.00306320190429688 -0.195714592933654785
0.611062824726104736 4.64534568786621094 -0.345572531223297119
-1.29496026039123535 3.2194373607635498 -1.0804440975189209
0.611265480518341064 4.19068479537963867 -0.854799270629882812
-0.129952818155288696 2.28580355644226074 -1.18145442008972168
0.71405792236328125 2.98317050933837891 -1.17090034484863281
0.66435396671295166 4.30916166305541992 -0.669149160385131836
0.688815534114837646 2.21710753440856934 -1.08923780918121338
-0.424588978290557861 2.04955148696899414 -1.23147749900817871
0.196791887283325195 2.93101239204406738 -1.16336321830749512
-1.55664658546447754 3.52897310256958008 -0.620270669460296631
1.15723299980163574 2.66595077514648438 -1.11150264739990234
-0.323342770338058472 2.53825139999389648 -1.11988890171051025
0.74358832836151123 2.14133882522583008 -1.1107940673828125
-0.733132064342498779 4.35170316696166992 -0.843622803688049316
0.104105427861213684 2.6176455020904541 -1.1712496280670166
-1.02173447608947754 4.27074193954467773 -1.00348985195159912
0.0807808637619018555 2.65883135795593262 -1.18699562549591064
-0.730963587760925293 2.28267717361450195 -1.13663983345031738
-1.27633893489837646 3.02747392654418945 -1.15670716762542725
-0.219838142395019531 2.30010247230529785 -1.12979841232299805
1.11461114883422852 4.04413414001464844 -1.08785462379455566
-0.355687499046325684 3.88025140762329102 -1.17333424091339111
-1.11835753917694092 4.03550863265991211 -0.625653505325317383
-1.12429678440093994 2.45907473564147949 -1.12416625022888184
-0.101073354482650757 2.79370999336242676 -1.21128904819488525
0.65417170524597168 3.9109199047088623 -0.731091141700744629
0.231483966112136841 1.4497983455657959 -1.13477098941802979
0.570602595806121826 4.30426883697509766 -0.927482485771179199
0.127651125192642212 4.83791542053222656 -0.597099006175994873
-1.05428922176361084 3.60917997360229492 -1.01195335388183594
0.226981103420257568 4.66106748580932617 -0.83982551097869873
-1.4418330192565918 4.10995817184448242 -0.684215068817138672
-0.0306196361780166626 4.36406850814819336 -0.59838259220123291
0.218064546585083008 4.40397739410400391 -0.724518656730651855
0.714110016822814941 2.38646602630615234 -1.13691222667694092
0.163549348711967468 1.36924970149993896 -1.09462523460388184
0.692456603050231934 3.47379064559936523 -1.1148679256439209
0.926348686218261719 3.84304451942443848 -0.753110349178314209
0.598949909210205078 2.58041644096374512 -1.15955710411071777
0.746818125247955322 4.38566255569458008 -0.645539999008178711
-0.91623300313949585 4.19185924530029297 -1.03575515747070312
-0.22776755690574646 2.08495402336120605 -1.20404505729675293
-1.17749464511871338 4.00998401641845703 -0.928001761436462402
0.920942485332489014 4.05532264709472656 -0.548142731189727783
-0.280509978532791138 3.86072373390197754 -1.16495752334594727
-0.848919987678527832 4.34430694580078125 -0.630190432071685791
-2.16587591171264648 2.49398469924926758 -0.613700509071350098
0.272963196039199829 4.10586833953857422 -0.808980047702789307
-1.69366741180419922 3.45482349395751953 -0.427318006753921509
0.669275760650634766 2.18428492546081543 -1.06767416000366211
0.181976333260536194 1.62732255458831787 -1.05143058300018311
-0.789440155029296875 4.44044113159179688 -0.640051841735839844
0.587533116340637207 4.43929338455200195 -0.389376401901245117
-0.197521671652793884 4.76480960845947266 -0.458448946475982666
-0.542260587215423584 5.01357269287109375 -0.450409442186355591
0.635897278785705566 4.03344392776489258 -0.970597684383392334
0.552530109882354736 3.40637445449829102 -1.13222837448120117
-1.57380139827728271 2.83903408050537109 -1.00553572177886963
0.694270849227905273 3.80837845802307129 -1.06399619579315186
1.32467138767242432 2.76256084442138672 -1.14651286602020264
1.09575927257537842 2.64275312423706055 -1.0625152587890625
-1.00087630748748779 4.32660198211669922 -0.347411274909973145
0.842004716396331787 4.55468082427978516 -0.593000590801239014
0.716923236846923828 3.56505393981933594 -1.11667776107788086
0.368043184280395508 2.852325439453125 -1.12449407577514648
0.525523781776428223 4.45288610458374023 -0.451610594987869263
-1.07157421112060547 2.44226598739624023 -1.05348086357116699
-0.00245704501867294312 2.5396721363067627 -1.17566728591918945
-1.08470213413238525 2.47193646430969238 -1.14086699485778809
-0.901063144207000732 4.49912118911743164 -0.777440786361694336
1.1990586519241333 4.26229667663574219 -0.983144819736480713
0.607776105403900146 4.06678152084350586 -0.785352587699890137
-0.00210906565189361572 4.16496467590332031 -0.791635274887084961
1.11084508895874023 2.64725875854492188 -1.08050704002380371
-0.337925225496292114 2.19100093841552734 -1.21116900444030762
-1.16047167778015137 4.29074478149414062 -0.893025457859039307
1.17378449440002441 2.64419269561767578 -1.06923365592956543
0.866416513919830322 4.49049711227416992 -0.253695249557495117
-1.00310194492340088 2.96332979202270508 -1.19518184661865234
-1.82084965705871582 3.06845998764038086 -0.558455288410186768
0.664029896259307861 2.22615671157836914 -1.12147676944732666
0.399182766675949097 4.98014926910400391 -0.109863549470901489
1.00141513347625732 3.71604728698730469 -0.929008066654205322
-0.125124707818031311 2.04268908500671387 -1.20968127250671387
-1.21457648277282715 4.21053314208984375 -0.597176015377044678
0.366205036640167236 4.38182353973388672 -0.614897489547729492
-0.0271779857575893402 2.91066837310791016 -1.18479752540588379
-0.351893126964569092 2.30659937858581543 -1.12738323211669922
1.4672095775604248 3.00508713722229004 -1.17739105224609375
0.105718612670898438 2.43420076370239258 -1.15640974044799805
0.483369529247283936 2.32716965675354004 -1.1338191032409668
-0.436393618583679199 1.94266736507415771 -1.24123060703277588
1.30348944664001465 3.6360628604888916 -1.1595078706741333
-0.155309155583381653 4.72646808624267578 -0.523567080497741699
0.209266722202301025 1.39352190494537354 -1.10327363014221191
-1.23173487186431885 3.86688113212585449 -0.509928524494171143
0.0741860866546630859 2.87328195571899414 -1.18725168704986572
-0.0558511912822723389 2.67105531692504883 -1.14140987396240234
-1.24750673770904541 3.80928325653076172 -0.923459768295288086
0.0932695046067237854 2.69357514381408691 -1.2076491117477417
0.848432600498199463 3.93740224838256836 -1.00813019275665283
0.67889249324798584 3.41408991813659668 -1.12484288215637207
0.872281253337860107 4.32935953140258789 -0.830877244472503662
-0.138115495443344116 2.75890636444091797 -1.10636639595031738
0.72151559591293335 4.30337429046630859 -0.869415640830993652
-0.112763985991477966 2.51733708381652832 -1.1386115550994873
-0.925887227058410645 4.63167667388916016 -0.458994209766387939
-0.285831600427627563 2.22614502906799316 -1.16454792022705078
-0.34116053581237793 3.91558218002319336 -1.13584792613983154
-0.41482880711555481 2.1067347526550293 -1.15717220306396484
0.650664746761322021 2.24036407470703125 -1.09911894798278809
0.928087234497070312 4.15046310424804688 -0.57033848762512207
0.853646636009216309 2.40785098075866699 -1.12607181072235107
-0.821518659591674805 4.85777425765991211 -0.2633076012134552
-1.08868682384490967 3.52034139633178711 -0.714987397193908691
-0.0913244634866714478 2.55898737907409668 -1.16867923736572266
-0.85491102933883667 4.34477901458740234 -1.13477492332458496
0.670214354991912842 2.22185873985290527 -1.15671014785766602
-0.113756895065307617 3.35738468170166016 -1.14650285243988037
0.191686719655990601 3.12959718704223633 -1.14005076885223389
0.777596652507781982 4.26829814910888672 -0.869811415672302246
-1.04666244983673096 3.34856438636779785 -1.13788199424743652
-0.0833135545253753662 2.37032246589660645 -1.18619978427886963
1.1335374116897583 2.66649866104125977 -1.07316827774047852
-1.23192393779754639 3.74226808547973633 -0.972524046897888184
-0.0049579935148358345 2.72129058837890625 -1.21412086486816406
-0.15337255597114563 2.5869288444519043 -1.16364097595214844
1.26166272163391113 4.40328407287597656 -0.949619710445404053
-0.910328984260559082 3.87283945083618164 -1.177032470703125
0.0262649655342102051 2.80402469635009766 -1.18052244186401367
-0.235721439123153687 4.88984823226928711 -0.336605072021484375
1.20709443092346191 4.07469034194946289 -0.241823434829711914
-1.30200529098510742 4.28989505767822266 -0.966425299644470215
-1.08259296417236328 2.34885334968566895 -1.12355029582977295
-0.511258125305175781 4.19443464279174805 -0.951281964778900146
0.275512963533401489 4.20062065124511719 -0.76182103157043457
-1.3603891134262085 3.14154648780822754 -0.915804266929626465
0.589098155498504639 2.27715635299682617 -1.17857849597930908
-0.958798766136169434 3.6064150333404541 -1.13814401626586914
1.13902783393859863 2.62404561042785645 -1.06976437568664551
0.675151705741882324 4.39000415802001953 -0.772661387920379639
0.754416525363922119 4.32401561737060547 -0.625895977020263672
-0.909902572631835938 3.66979837417602539 -1.15386366844177246
0.681216418743133545 4.19734430313110352 -0.81290590763092041
-0.0557877421379089355 2.58025050163269043 -1.17272663116455078
0.435505121946334839 4.5543828010559082 -0.694551587104797363
-0.357739627361297607 3.91689610481262207 -1.10684239864349365
0.148945748805999756 2.75542044639587402 -1.12763869762420654
-0.110516145825386047 2.1320490837097168 -1.21329855918884277
0.892620205879211426 3.73239350318908691 -0.668977916240692139
0.108527421951293945 1.3625178337097168 -1.12670707702636719
-1.92413163185119629 2.75685453414916992 -0.64491957426071167
0.195392727851867676 1.43427395820617676 -1.12042438983917236
-0.311290353536605835 3.90855026245117188 -1.12699699401855469
0.505178928375244141 4.84179210662841797 -0.495875269174575806
0.76431041955947876 4.11103153228759766 -0.994285702705383301
-0.183227837085723877 5.10439634323120117 -0.414712965488433838
1.47303164005279541 4.20490074157714844 -0.89217066764831543
0.589527249336242676 4.18020439147949219 -0.644179403781890869
0.912643194198608398 4.07251739501953125 -0.998779177665710449
0.261748462915420532 4.19075202941894531 -0.710876286029815674
0.728439211845397949 3.54408597946166992 -1.08935773372650146
-0.0191961824893951416 4.44887733459472656 -0.640966296195983887
1.14564204216003418 3.61058759689331055 -0.450138986110687256
0.237178266048431396 4.40100479125976562 -0.60463416576385498
0.554933905601501465 3.9493553638458252 -0.718661725521087646
0.403354346752166748 4.57719516754150391 -0.449598550796508789
0.676713228225708008 2.21602225303649902 -1.11223292350769043
-0.994290351867675781 4.64091253280639648 -0.703803360462188721
-1.02341961860656738 4.49418830871582031 -0.659744203090667725
0.410057902336120605 4.59131908416748047 -0.661405444145202637
0.744545936584472656 4.26010274887084961 -0.904709339141845703
-1.84118986129760742 3.47361254692077637 -0.502778351306915283
-0.20518532395362854 4.74724626541137695 -0.420371562242507935
0.585936069488525391 4.43044376373291016 -0.305308818817138672
-1.08685493469238281 4.18594694137573242 -0.445398867130279541
0.427998900413513184 4.1253361701965332 -0.857579231262207031
1.05987191200256348 2.73931050300598145 -1.16379821300506592
-1.06575286388397217 3.30958127975463867 -1.23914694786071777
-1.13336491584777832 4.0653691291809082 -0.820614933967590332
-0.756988763809204102 4.6116485595703125 -0.933918774127960205
0.725714504718780518 3.56541228294372559 -1.13090729713439941
-1.4895470142364502 3.73103570938110352 -0.751312732696533203
0.25913083553314209 3.08734273910522461 -1.08708775043487549
-1.12641358375549316 3.36560153961181641 -1.17065417766571045
0.874015748500823975 3.99213314056396484 -0.998030304908752441
-0.662888288497924805 2.58995962142944336 -1.16429495811462402
0.150332659482955933 4.51180887222290039 -0.55333256721496582
0.712126195430755615 4.10916996002197266 -0.986047029495239258
1.08261442184448242 4.03759527206420898 -0.396356523036956787
-0.876161098480224609 4.38768911361694336 -0.562224626541137695
0.111287474632263184 4.03437519073486328 -0.835940718650817871
0.572026968002319336 2.71306085586547852 -1.15740251541137695
-1.11786806583404541 4.26667022705078125 -0.440188407897949219
-0.27452242374420166 2.02556753158569336 -1.23170578479766846
0.756576478481292725 3.15829205513000488 -1.1695864200592041
0.604027032852172852 4.38475465774536133 -0.690634608268737793
0.209994494915008545 1.40334367752075195 -1.06347477436065674
0.577136754989624023 4.42238712310791016 -0.624633193016052246
-1.24970042705535889 3.62765932083129883 -0.98815310001373291
0.513242602348327637 4.25853729248046875 -0.649989783763885498
-1.41269707679748535 4.67175722122192383 -0.561382889747619629
0.848331809043884277 4.50805473327636719 -0.373073309659957886
-0.0711574628949165344 3.13706302642822266 -1.15290021896362305
-0.350606858730316162 2.10042572021484375 -1.23478949069976807
-1.96001172065734863 2.79174280166625977 -0.504843473434448242
-1.13685846328735352 4.16136360168457031 -1.10996568202972412
1.20913803577423096 2.61018490791320801 -1.13577628135681152
0.0993997454643249512 2.16403889656066895 -1.19748866558074951
0.629195690155029297 4.74053382873535156 -0.438722044229507446
0.601574301719665527 2.14170241355895996 -1.12187659740447998
-1.07576632499694824 2.48436570167541504 -1.08680295944213867
0.566982150077819824 4.13868474960327148 -0.738534033298492432
-1.43789839744567871 3.73407101631164551 -0.405302494764328003
0.201580166816711426 3.02479314804077148 -1.15902435779571533
0.209059327840805054 1.56187105178833008 -1.12852489948272705
0.716291487216949463 3.9558255672454834 -0.773517072200775146
0.442495375871658325 4.26209020614624023 -0.734176754951477051
-0.885261476039886475 4.43761539459228516 -0.627352476119995117
