ply
format ascii 1.0
element vertex 114
comment vertices
property float x
property float y
property float z
end_header
0.199501499533653259 1.33434188365936279 -1.10822701454162598
1.14313971996307373 2.62741589546203613 -1.08641195297241211
-1.09944784641265869 2.48024559020996094 -1.10980832576751709
0.00441816821694374084 2.78260612487792969 -1.15802955627441406
0.666902899742126465 2.15702080726623535 -1.09601998329162598
0.0249068532139062881 2.38767385482788086 -1.18123316764831543
-0.40619930624961853 1.94824588298797607 -1.21318447589874268
0.187393367290496826 2.69956254959106445 -1.16811883449554443
-0.278790712356567383 3.90927910804748535 -1.08199763298034668
0.747689425945281982 3.5637357234954834 -1.11184060573577881
0.278792291879653931 3.05851912498474121 -1.10442936420440674
-0.349310755729675293 2.47643804550170898 -1.15142679214477539
0.665462136268615723 2.18517374992370605 -1.10518646240234375
0.748666763305664062 3.52763009071350098 -1.12264430522918701
0.139031320810317993 2.83329486846923828 -1.17799317836761475
0.196857661008834839 1.3762059211730957 -1.09849703311920166
1.13236916065216064 2.61875534057617188 -1.08217871189117432
-0.230298608541488647 2.18307304382324219 -1.19149589538574219
-0.361594498157501221 3.83686208724975586 -1.11386358737945557
-0.2495746910572052 2.03130912780761719 -1.21957731246948242
-0.0194217339158058167 2.96446585655212402 -1.17322742938995361
-1.08790242671966553 2.47687101364135742 -1.06276559829711914
0.0694795101881027222 2.78010082244873047 -1.16252434253692627
0.66957169771194458 2.16283059120178223 -1.11070692539215088
0.869577586650848389 2.5634915828704834 -1.12946319580078125
1.10854077339172363 2.63011407852172852 -1.07078218460083008
-0.322545409202575684 2.12082719802856445 -1.1688838005065918
0.054490353912115097 2.77406859397888184 -1.16047048568725586
0.647494316101074219 2.17766714096069336 -1.11480152606964111
-0.364099979400634766 3.96675705909729004 -1.10953724384307861
0.70014190673828125 3.37852382659912109 -1.09172165393829346
0.218708083033561707 1.34738337993621826 -1.08384108543395996
-0.0603112280368804932 2.67301440238952637 -1.13218581676483154
0.657360613346099854 2.18409562110900879 -1.12131154537200928
0.663924038410186768 2.17232155799865723 -1.11411428451538086
0.747282981872558594 3.53371262550354004 -1.10311901569366455
1.12743890285491943 2.62962627410888672 -1.10060012340545654
-0.291586369276046753 3.91067957878112793 -1.08711123466491699
0.00603389367461204529 2.8736727237701416 -1.17990469932556152
0.189690113067626953 1.35082924365997314 -1.1289747953414917
-1.09825670719146729 2.47806739807128906 -1.10803890228271484
0.148179739713668823 2.91217780113220215 -1.16157865524291992
0.751094818115234375 3.5485985279083252 -1.10811948776245117
-0.0304659716784954071 2.19636988639831543 -1.19976794719696045
0.208105921745300293 1.33384978771209717 -1.11670291423797607
-0.349447727203369141 3.94151544570922852 -1.08774662017822266
0.668521523475646973 2.15864157676696777 -1.10488200187683105
0.0696659311652183533 2.72007966041564941 -1.18277275562286377
-0.320853441953659058 2.02361607551574707 -1.21196639537811279
0.0339471176266670227 2.82045292854309082 -1.16578686237335205
0.749139130115509033 3.53760743141174316 -1.10376107692718506
0.0553011409938335419 2.75498414039611816 -1.15902900695800781
-0.412017464637756348 1.94884085655212402 -1.21036243438720703
-0.716700196266174316 2.221038818359375 -1.17498135566711426
-0.160921573638916016 2.25187325477600098 -1.21037173271179199
-1.08759856224060059 2.47767400741577148 -1.06492006778717041
1.11971962451934814 2.61930108070373535 -1.07542026042938232
-0.610442757606506348 1.9053877592086792 -1.16215693950653076
0.128929615020751953 2.83327054977416992 -1.14787745475769043
-0.277907073497772217 3.91760087013244629 -1.09317493438720703
-0.516026973724365234 2.00918245315551758 -1.19572556018829346
0.202825427055358887 1.354836106300354 -1.1175074577331543
0.00226770713925361633 2.58438301086425781 -1.15612220764160156
0.235132813453674316 2.47388219833374023 -1.1350560188293457
0.671228408813476562 2.17110610008239746 -1.11225199699401855
0.666668117046356201 2.15782904624938965 -1.1019827127456665
-1.07962441444396973 2.48360705375671387 -1.11258578300476074
1.13017332553863525 2.61604142189025879 -1.07770323753356934
-0.0172832943499088287 2.6396794319152832 -1.15133106708526611
0.223556682467460632 1.41661334037780762 -1.06649136543273926
0.656178951263427734 2.17649650573730469 -1.11876177787780762
-0.201573684811592102 2.20144033432006836 -1.16681540012359619
1.09569394588470459 2.63415360450744629 -1.08008980751037598
-0.274008214473724365 2.31029105186462402 -1.16514480113983154
0.45554468035697937 2.75010466575622559 -1.11188018321990967
1.07666373252868652 2.62394523620605469 -1.07980430126190186
0.0820634886622428894 2.83225202560424805 -1.17215728759765625
0.661246359348297119 2.16726422309875488 -1.10461258888244629
1.13188266754150391 2.61518335342407227 -1.07878923416137695
0.748418033123016357 3.52907514572143555 -1.11287069320678711
1.11243867874145508 2.61719655990600586 -1.0695575475692749
-0.0994301885366439819 2.26682233810424805 -1.21271324157714844
0.126060128211975098 2.63857436180114746 -1.15932154655456543
-0.0939783528447151184 2.58079028129577637 -1.13545668125152588
0.055787254124879837 2.82274651527404785 -1.16530072689056396
1.12042844295501709 2.64423608779907227 -1.07710647583007812
-0.00336401909589767456 2.72169208526611328 -1.15519595146179199
1.1172785758972168 2.61521530151367188 -1.07136774063110352
0.206582054495811462 1.33947598934173584 -1.0911029577255249
0.745629489421844482 3.52849388122558594 -1.11325788497924805
0.741179406642913818 3.5518345832824707 -1.09572315216064453
-0.276323854923248291 3.91493964195251465 -1.09224569797515869
0.65788346529006958 2.17510080337524414 -1.1120840311050415
0.188434764742851257 1.37615585327148438 -1.10260486602783203
0.661000609397888184 2.16021084785461426 -1.10484790802001953
-0.00149866566061973572 2.71460270881652832 -1.16835391521453857
0.215537294745445251 1.34972000122070312 -1.09807693958282471
0.049443364143371582 2.82270288467407227 -1.15410315990447998
0.198777839541435242 1.33639025688171387 -1.11848092079162598
0.744278252124786377 3.48671889305114746 -1.1086726188659668
0.1330147385597229 2.7364804744720459 -1.16022861003875732
-0.00753114372491836548 2.8386385440826416 -1.17453968524932861
-0.170948386192321777 2.25537514686584473 -1.20924115180969238
0.156175434589385986 2.77525639533996582 -1.15912985801696777
-1.09756159782409668 2.47731232643127441 -1.09105753898620605
1.11872994899749756 2.63744306564331055 -1.10753703117370605
-0.116377286612987518 2.38132715225219727 -1.16984832286834717
-0.345314890146255493 1.94115889072418213 -1.19255852699279785
1.12187802791595459 2.61937856674194336 -1.07693314552307129
0.0618386417627334595 2.61182451248168945 -1.17041492462158203
-0.274804651737213135 3.90975260734558105 -1.10033285617828369
-0.203252598643302917 1.99924874305725098 -1.19482016563415527
-0.197429865598678589 2.55275368690490723 -1.13760852813720703
0.748335957527160645 3.5279850959777832 -1.11037051677703857
