ply
format ascii 1.0
element vertex 256
comment vertices
property float x
property float y
property float z
end_header
-0.287848919630050659 2.33002853393554688 -1.17964482307434082
-0.194101199507713318 5.04060554504394531 -0.318684965372085571
1.2452542781829834 3.58793854713439941 -1.15110945701599121
-1.00521934032440186 3.56794166564941406 -1.13291013240814209
1.28605520725250244 3.99591255187988281 -0.215335637331008911
-1.99666249752044678 2.66909885406494141 -0.554945647716522217
0.90662693977355957 2.15148067474365234 -1.13921463489532471
0.600173771381378174 4.72025680541992188 -0.536413669586181641
-0.111444123089313507 2.83756899833679199 -1.1890561580657959
0.219800129532814026 1.4062882661819458 -1.07344818115234375
-0.649961173534393311 4.65656805038452148 -0.864935517311096191
-1.72890698909759521 2.74486255645751953 -1.17438900470733643
-0.853248000144958496 4.03034543991088867 -0.603669583797454834
1.06293845176696777 2.71978902816772461 -1.04144036769866943
0.419336766004562378 4.30666542053222656 -0.742870807647705078
0.453297913074493408 4.01762533187866211 -1.05486726760864258
0.101014032959938049 2.51475763320922852 -1.1762535572052002
0.634173274040222168 3.30091762542724609 -1.24742722511291504
-0.313973724842071533 3.9374387264251709 -1.09712541103363037
-1.04654574394226074 3.50943613052368164 -1.1180572509765625
1.2484128475189209 2.93915653228759766 -1.14809560775756836
-0.286296159029006958 2.60440254211425781 -1.15463387966156006
-0.440216004848480225 2.00213956832885742 -1.24910235404968262
0.992180585861206055 3.96992254257202148 -0.737111568450927734
-1.06366801261901855 2.46282219886779785 -1.03973448276519775
0.2629832923412323 4.41821527481079102 -0.631754279136657715
0.782656967639923096 3.44899177551269531 -1.10739982128143311
-0.719895601272583008 4.00079345703125 -0.954691767692565918
0.250533401966094971 2.56931805610656738 -1.2451179027557373
-1.12966430187225342 4.08941125869750977 -0.771701395511627197
0.680315732955932617 2.21984314918518066 -1.09499001502990723
-1.61451172828674316 3.45570468902587891 -0.409875661134719849
-1.18727612495422363 4.70067548751831055 -0.601258158683776855
0.753596305847167969 3.74213075637817383 -0.771488845348358154
-0.117916405200958252 2.16934800148010254 -1.22388172149658203
0.146759450435638428 2.87064719200134277 -1.17771446704864502
1.65509212017059326 4.08413219451904297 -0.904999315738677979
0.438489586114883423 4.59406471252441406 -0.638863980770111084
0.836856722831726074 3.86752772331237793 -0.994761943817138672
0.0297119468450546265 4.79716062545776367 -0.275159239768981934
-1.91066253185272217 2.82976102828979492 -0.78048396110534668
0.693785309791564941 4.63670110702514648 -0.279233396053314209
0.676900506019592285 4.37447118759155273 -0.33152848482131958
-1.36947214603424072 3.32133769989013672 -1.03933930397033691
-0.122294008731842041 2.48079705238342285 -1.16867959499359131
0.812082648277282715 2.64900636672973633 -1.19052934646606445
0.947551965713500977 4.18397235870361328 -0.821972370147705078
0.674798667430877686 2.20319819450378418 -1.13529551029205322
-1.13253200054168701 3.67969942092895508 -0.941076993942260742
1.14234542846679688 2.63124847412109375 -1.09019827842712402
-0.015095144510269165 3.22797489166259766 -1.12894773483276367
-1.11017918586730957 4.33389806747436523 -0.401739984750747681
0.0739722549915313721 2.68259072303771973 -1.18126845359802246
-0.396493256092071533 2.07742214202880859 -1.2125777006149292
0.685444891452789307 3.55847406387329102 -1.11929607391357422
1.1863248348236084 3.65362358093261719 -0.678388059139251709
0.895144641399383545 3.61493897438049316 -0.417964339256286621
-1.82046914100646973 3.83550715446472168 -0.630169868469238281
0.77059626579284668 3.41663265228271484 -1.12418580055236816
-0.51301121711730957 3.75691652297973633 -1.1677020788192749
-1.30678164958953857 2.80209875106811523 -1.05187380313873291
-0.366305142641067505 4.85475873947143555 -0.477450251579284668
0.550933122634887695 4.36594724655151367 -0.697349965572357178
1.05057978630065918 2.68576502799987793 -1.08943688869476318
-1.0262911319732666 2.52596116065979004 -1.13288187980651855
-0.586854398250579834 4.29948759078979492 -0.879173994064331055
1.19243383407592773 2.54765629768371582 -1.11725866794586182
-1.01329994201660156 3.43645858764648438 -1.09913647174835205
0.63404005765914917 2.25059342384338379 -1.15626585483551025
0.0885615572333335876 1.38391304016113281 -1.16379034519195557
-0.166154429316520691 2.67423105239868164 -1.17938494682312012
-0.181395679712295532 4.7727208137512207 -0.360694259405136108
-1.09705471992492676 2.33646821975708008 -1.12351036071777344
0.0924493968486785889 2.94189977645874023 -1.16119861602783203
0.382728606462478638 4.66879415512084961 -0.363392174243927002
-1.24621188640594482 4.073089599609375 -0.354323863983154297
0.983804047107696533 3.88572978973388672 -1.00342130661010742
-0.534020066261291504 4.09216117858886719 -0.806921124458312988
-1.60431087017059326 3.41754007339477539 -0.66210782527923584
0.451968103647232056 4.93708133697509766 -0.0500802695751190186
0.186474815011024475 1.40477108955383301 -1.0862276554107666
1.21073627471923828 4.30952882766723633 -0.944182276725769043
-0.310477256774902344 2.12355828285217285 -1.21737313270568848
0.430766016244888306 4.08146190643310547 -0.650695741176605225
-0.0882259458303451538 2.34750819206237793 -1.17282426357269287
-1.16183996200561523 3.80902767181396484 -1.05664575099945068
-0.940840005874633789 4.62280893325805664 -0.312666386365890503
-1.22843253612518311 4.29643583297729492 -0.688133358955383301
0.84565269947052002 4.01471900939941406 -1.01352107524871826
0.183345943689346313 4.83645057678222656 -0.65067523717880249
0.795807600021362305 3.54146051406860352 -1.08187437057495117
0.605020999908447266 2.18493485450744629 -1.20095205307006836
-0.115534916520118713 2.60911011695861816 -1.15450608730316162
1.34266400337219238 3.98839116096496582 -0.430590391159057617
-1.25220358371734619 3.80900049209594727 -1.16726386547088623
-1.09580934047698975 2.47671222686767578 -1.13319742679595947
1.22925353050231934 3.33775591850280762 -1.14299559593200684
0.698562383651733398 3.87848305702209473 -0.664610326290130615
0.542141497135162354 4.01373577117919922 -0.976843476295471191
-1.1017301082611084 4.32808303833007812 -0.69873046875
1.151580810546875 2.64804291725158691 -1.08001017570495605
0.375528424978256226 4.51060867309570312 -0.53852313756942749
1.19000232219696045 3.80715465545654297 -0.485346555709838867
0.677997767925262451 2.22369241714477539 -1.12611150741577148
0.0276061445474624634 2.3338010311126709 -1.20155668258666992
0.0335400700569152832 2.79326844215393066 -1.14017200469970703
0.0751198232173919678 2.6729273796081543 -1.19475603103637695
0.808386266231536865 4.48702335357666016 -0.448981970548629761
-1.16470849514007568 3.0493476390838623 -1.20014464855194092
0.862812221050262451 2.97306942939758301 -1.17638182640075684
-1.04990756511688232 2.51833534240722656 -1.09238886833190918
0.278891205787658691 2.90776181221008301 -1.20500791072845459
1.55327045917510986 3.97880172729492188 -1.0496222972869873
-0.0759824812412261963 2.90400409698486328 -1.159393310546875
-1.85035538673400879 3.26272296905517578 -0.489548623561859131
-0.478188693523406982 2.01021718978881836 -1.16354906558990479
0.0257980823516845703 2.94709396362304688 -1.17161929607391357
0.169705748558044434 1.49477195739746094 -1.15767645835876465
0.213209301233291626 4.34473037719726562 -0.526367127895355225
-1.03083145618438721 4.32633018493652344 -0.828433811664581299
-0.920133054256439209 4.27836990356445312 -0.521056473255157471
-0.311700522899627686 3.89849638938903809 -1.14311063289642334
-1.36500155925750732 3.67553329467773438 -0.697962284088134766
-0.0231551863253116608 2.55334115028381348 -1.22106289863586426
-0.320245563983917236 3.92330336570739746 -1.15799999237060547
0.273645222187042236 4.1413116455078125 -0.77859807014465332
0.693394780158996582 2.24648642539978027 -1.09684550762176514
0.763182461261749268 2.40488791465759277 -1.18404221534729004
-2.1045534610748291 2.73600339889526367 -0.581135749816894531
0.250816166400909424 1.41859793663024902 -1.04565334320068359
-0.864129185676574707 4.58274984359741211 -0.523902475833892822
0.649832069873809814 4.70713329315185547 -0.295692950487136841
1.01488089561462402 2.66414165496826172 -1.08131742477416992
0.6624259352684021 2.18688297271728516 -1.09645175933837891
1.18195903301239014 2.63004136085510254 -1.11707699298858643
-0.257092684507369995 2.31372213363647461 -1.14250421524047852
1.03468453884124756 3.98269224166870117 -1.00117242336273193
-0.242744415998458862 2.37036228179931641 -1.14199268817901611
-0.271299391984939575 2.07980561256408691 -1.23586905002593994
0.784027814865112305 3.90372729301452637 -0.928586065769195557
0.0156874880194664001 2.69481849670410156 -1.20196723937988281
0.220448538661003113 1.41533637046813965 -1.09666275978088379
-1.22249555587768555 3.78521847724914551 -0.49864661693572998
-1.22214639186859131 3.61646270751953125 -0.860125184059143066
-1.19604480266571045 3.47091054916381836 -1.10846185684204102
-1.13907349109649658 3.79314208030700684 -0.696134686470031738
-0.423220843076705933 2.05680131912231445 -1.24806177616119385
0.730651617050170898 3.54800629615783691 -1.09931671619415283
0.0888356864452362061 4.47987699508666992 -0.564429521560668945
0.991868257522583008 2.78978180885314941 -1.14707267284393311
-1.3182833194732666 3.5106194019317627 -1.05957651138305664
-0.51693493127822876 4.63091802597045898 -0.839142680168151855
-0.786070704460144043 3.9397120475769043 -0.980989217758178711
0.453894257545471191 2.30678606033325195 -1.16338658332824707
0.969059169292449951 2.44907641410827637 -1.16318511962890625
-1.03899157047271729 4.28330087661743164 -0.374048829078674316
0.888255119323730469 4.08560609817504883 -0.960855245590209961
0.509377479553222656 4.54662609100341797 -0.539264678955078125
0.809616029262542725 4.41244411468505859 -0.766767024993896484
0.0877070203423500061 2.62395429611206055 -1.17382371425628662
1.091705322265625 2.71557807922363281 -1.07385647296905518
1.22089302539825439 3.05827140808105469 -1.17126786708831787
1.07578873634338379 4.14426374435424805 -0.528737962245941162
-0.00277313590049743652 4.26002788543701172 -0.531183540821075439
0.74054110050201416 3.90071749687194824 -0.847573637962341309
0.995092630386352539 3.9411771297454834 -0.517699182033538818
-1.12931013107299805 2.89088129997253418 -1.116860032081604
-0.912442505359649658 3.92636775970458984 -0.843084990978240967
-1.67356324195861816 3.48301529884338379 -0.553318619728088379
-0.982100546360015869 4.50561094284057617 -0.576914310455322266
1.21896147727966309 4.0730586051940918 -0.997101664543151855
-1.03867590427398682 3.66537714004516602 -1.22368943691253662
-1.03524255752563477 4.62672662734985352 -0.392311990261077881
-0.333566606044769287 3.99274158477783203 -0.848053574562072754
-1.04493963718414307 3.68161797523498535 -0.989568948745727539
1.09891176223754883 2.49335050582885742 -1.15041351318359375
-1.54605627059936523 2.7073521614074707 -0.967473268508911133
-0.096119612455368042 2.42760467529296875 -1.2283167839050293
-0.335905313491821289 2.11934804916381836 -1.2298736572265625
0.677990376949310303 2.6180272102355957 -1.14141643047332764
0.18468552827835083 4.01334381103515625 -0.814123868942260742
0.734375536441802979 3.5597689151763916 -1.13386046886444092
1.12059199810028076 2.64601850509643555 -1.05371630191802979
0.192541837692260742 1.42560625076293945 -1.13626790046691895
-0.749829888343811035 4.20806169509887695 -0.850931942462921143
0.138319730758666992 4.51769161224365234 -0.473807334899902344
0.701317727565765381 3.6974029541015625 -1.11230015754699707
-0.0995428934693336487 4.87054681777954102 -0.506233394145965576
0.318371027708053589 4.55868005752563477 -0.665724992752075195
0.5078238844871521 4.33792781829833984 -0.747866511344909668
-0.424379140138626099 2.18595409393310547 -1.14552557468414307
0.0826525092124938965 2.83542227745056152 -1.1840360164642334
0.595661461353302002 4.69698810577392578 -0.418538659811019897
-0.127967149019241333 4.49133872985839844 -0.743841171264648438
-0.320952117443084717 3.92291069030761719 -1.0789254903793335
1.20891857147216797 4.3469538688659668 -0.118645966053009033
0.162443354725837708 1.35966813564300537 -1.12164628505706787
0.127990841865539551 1.56288683414459229 -1.1303248405456543
-0.0840962827205657959 2.70696353912353516 -1.14585781097412109
1.08020973205566406 4.44597053527832031 -0.973768651485443115
-0.342020034790039062 1.98211097717285156 -1.20431303977966309
-1.01021111011505127 4.21915960311889648 -0.605273246765136719
-1.17419064044952393 4.0251154899597168 -1.05016171932220459
-0.945552408695220947 4.27388143539428711 -0.7013053297996521
0.695927858352661133 2.21946549415588379 -1.14332723617553711
0.00954568386077880859 4.6665349006652832 -0.841018319129943848
0.628272056579589844 2.19109320640563965 -1.12542152404785156
-1.22558462619781494 3.61458587646484375 -1.1498560905456543
0.750242650508880615 3.57689166069030762 -1.14924252033233643
0.553906798362731934 4.14592552185058594 -0.500993609428405762
0.608374655246734619 4.74266433715820312 -0.454735934734344482
0.0427622795104980469 4.76211023330688477 -0.522265315055847168
0.622149884700775146 4.70475435256958008 -0.556647121906280518
-0.255175679922103882 2.12724518775939941 -1.19821619987487793
-0.149860575795173645 2.27315449714660645 -1.21957492828369141
0.164117991924285889 2.65224623680114746 -1.19312691688537598
0.637561917304992676 4.30673027038574219 -0.845798969268798828
0.729697763919830322 4.09261655807495117 -1.02769112586975098
-1.0721200704574585 2.43462419509887695 -1.08458173274993896
-0.928475260734558105 3.90438294410705566 -1.19203221797943115
1.01694071292877197 4.72364139556884766 -0.126072913408279419
0.507256627082824707 4.52597188949584961 -0.535867929458618164
-0.891632139682769775 3.88195610046386719 -0.966475248336791992
1.05365324020385742 3.81873154640197754 -0.991666495800018311
-1.16104507446289062 4.65173959732055664 -0.55147087574005127
-1.17608833312988281 3.47320055961608887 -1.03652858734130859
-0.188826322555541992 2.59729957580566406 -1.16664993762969971
-0.323117077350616455 2.07856321334838867 -1.2538444995880127
-0.068012624979019165 2.93764138221740723 -1.18217706680297852
1.03628861904144287 2.63461446762084961 -1.10697484016418457
0.0201150774955749512 2.65067172050476074 -1.16800057888031006
-0.0289502590894699097 2.7550652027130127 -1.20150506496429443
0.779246330261230469 3.36860108375549316 -1.15816795825958252
0.268137574195861816 4.78368091583251953 -0.624530971050262451
1.0833280086517334 4.10556221008300781 -0.489422142505645752
1.06727254390716553 3.8200531005859375 -0.910856962203979492
0.236526995897293091 1.55316400527954102 -1.15858781337738037
0.399351835250854492 3.12924957275390625 -1.0789264440536499
0.155482664704322815 4.65953540802001953 -0.504470348358154297
-1.48640978336334229 3.66790580749511719 -0.798577189445495605
0.75879061222076416 4.69765043258666992 -0.485294461250305176
0.666828274726867676 2.21065378189086914 -1.09530580043792725
-1.08262753486633301 3.25843644142150879 -1.20589375495910645
-1.88776528835296631 3.12231731414794922 -0.537561178207397461
-1.07621586322784424 2.50012493133544922 -1.13902020454406738
-0.0851278007030487061 2.40795993804931641 -1.21445333957672119
-1.11181807518005371 4.10303163528442383 -0.4784507155418396
0.201615422964096069 4.15600109100341797 -0.703825592994689941
0.507335543632507324 4.7332305908203125 -0.52340245246887207
0.213174939155578613 1.72481536865234375 -1.1168971061706543
-0.0865801572799682617 2.44235610961914062 -1.18807721138000488
1.20905578136444092 3.70752334594726562 -0.679204821586608887
-0.0263083577156066895 2.81317234039306641 -1.19391071796417236
1.13115894794464111 3.92163801193237305 -0.950155496597290039
-1.40049707889556885 3.74198675155639648 -0.394093573093414307
-0.191186442971229553 4.42267322540283203 -0.573514699935913086
