ply
format ascii 1.0
element vertex 256
comment vertices
property float x
property float y
property float z
end_header
-1.78866338729858398 3.19474124908447266 -1.19692873954772949
0.199501499533653259 1.33434188365936279 -1.10822701454162598
1.53421306610107422 3.89106559753417969 -0.44684562087059021
1.14313971996307373 2.62741589546203613 -1.08641195297241211
0.243387550115585327 4.83864879608154297 0.0951221734285354614
-1.09944784641265869 2.48024559020996094 -1.10980832576751709
0.724940061569213867 4.54403448104858398 -0.663948953151702881
0.00441816821694374084 2.78260612487792969 -1.15802955627441406
-0.690878748893737793 4.08357810974121094 -1.08486843109130859
-1.82845222949981689 0.130782365798950195 -1.12786483764648438
1.94102001190185547 4.01515293121337891 -1.04154407978057861
-1.4918365478515625 2.79639577865600586 -0.71848607063293457
0.666902899742126465 2.15702080726623535 -1.09601998329162598
1.40008378028869629 2.16073226928710938 -1.22947311401367188
0.0249068532139062881 2.38767385482788086 -1.18123316764831543
-1.81340861320495605 2.43222355842590332 -1.10006892681121826
-0.40619930624961853 1.94824588298797607 -1.21318447589874268
0.187393367290496826 2.69956254959106445 -1.16811883449554443
-0.278790712356567383 3.90927910804748535 -1.08199763298034668
0.747689425945281982 3.5637357234954834 -1.11184060573577881
-0.853902578353881836 3.21433258056640625 -1.20988297462463379
0.278792291879653931 3.05851912498474121 -1.10442936420440674
0.92369389533996582 4.03826808929443359 -0.789424896240234375
-0.940303444862365723 3.52587127685546875 -0.807277441024780273
-0.349310755729675293 2.47643804550170898 -1.15142679214477539
-1.40240013599395752 0.182686805725097656 -1.18818259239196777
0.665462136268615723 2.18517374992370605 -1.10518646240234375
-1.44940197467803955 3.05035543441772461 -1.09133505821228027
0.348845988512039185 3.81045913696289062 -1.08461570739746094
-1.16643261909484863 4.24562883377075195 -1.03340458869934082
0.748666763305664062 3.52763009071350098 -1.12264430522918701
0.916262924671173096 3.23231291770935059 -1.12573933601379395
0.139031320810317993 2.83329486846923828 -1.17799317836761475
0.196857661008834839 1.3762059211730957 -1.09849703311920166
0.868601083755493164 4.58260393142700195 -0.684106171131134033
1.13236916065216064 2.61875534057617188 -1.08217871189117432
-0.230298608541488647 2.18307304382324219 -1.19149589538574219
0.892008304595947266 4.3703913688659668 -1.00401949882507324
1.21792888641357422 4.08261203765869141 0.00268542766571044922
-1.43226969242095947 3.75008058547973633 -0.993895888328552246
0.809492528438568115 4.01295661926269531 -1.07914400100708008
-0.361594498157501221 3.83686208724975586 -1.11386358737945557
0.823412954807281494 5.05322837829589844 -0.0766042470932006836
-0.679999589920043945 3.10104632377624512 -1.22077512741088867
-0.2495746910572052 2.03130912780761719 -1.21957731246948242
0.89704596996307373 4.35048055648803711 -0.67674177885055542
0.148220598697662354 4.70316267013549805 -0.172984063625335693
-0.0194217339158058167 2.96446585655212402 -1.17322742938995361
-1.08790242671966553 2.47687101364135742 -1.06276559829711914
-0.345210015773773193 1.96838951110839844 -1.17692649364471436
0.0694795101881027222 2.78010082244873047 -1.16252434253692627
0.964244246482849121 3.7682802677154541 -1.04698467254638672
0.66957169771194458 2.16283059120178223 -1.11070692539215088
0.221437573432922363 3.94897866249084473 -1.1635582447052002
-1.96397686004638672 2.71223926544189453 -1.2411731481552124
0.306132972240447998 2.98000311851501465 -1.12450325489044189
0.869577586650848389 2.5634915828704834 -1.12946319580078125
1.10854077339172363 2.63011407852172852 -1.07078218460083008
-0.322545409202575684 2.12082719802856445 -1.1688838005065918
-0.587396860122680664 2.53184032440185547 -1.05887365341186523
0.352633357048034668 4.64568138122558594 -0.522742152214050293
-0.48484724760055542 3.80786848068237305 -0.417445868253707886
0.054490353912115097 2.77406859397888184 -1.16047048568725586
0.647494316101074219 2.17766714096069336 -1.11480152606964111
1.77631449699401855 4.24545764923095703 -0.671283423900604248
-1.60902643203735352 3.82605195045471191 -1.2142336368560791
-1.16976964473724365 3.07513737678527832 -1.21571314334869385
-0.364099979400634766 3.96675705909729004 -1.10953724384307861
-0.108760282397270203 2.38931179046630859 -1.22444915771484375
0.70014190673828125 3.37852382659912109 -1.09172165393829346
0.218708083033561707 1.34738337993621826 -1.08384108543395996
0.316655397415161133 3.56367182731628418 -1.18017005920410156
0.58084481954574585 4.07182216644287109 -1.10931587219238281
-0.0603112280368804932 2.67301440238952637 -1.13218581676483154
-2.56614589691162109 -0.385887861251831055 -1.16333127021789551
-2.76046848297119141 4.40991592407226562 -1.01806926727294922
-1.38114094734191895 2.94482851028442383 -0.64838641881942749
1.38674449920654297 4.02890443801879883 -0.0602956563234329224
1.05305349826812744 3.66428732872009277 -1.13252425193786621
0.893992304801940918 1.93618261814117432 -1.21827065944671631
-1.93030285835266113 2.13935518264770508 -0.646975696086883545
0.657360613346099854 2.18409562110900879 -1.12131154537200928
0.663924038410186768 2.17232155799865723 -1.11411428451538086
-1.56452250480651855 3.04217839241027832 -1.08725523948669434
0.747282981872558594 3.53371262550354004 -1.10311901569366455
1.12743890285491943 2.62962627410888672 -1.10060012340545654
-0.291586369276046753 3.91067957878112793 -1.08711123466491699
0.00603389367461204529 2.8736727237701416 -1.17990469932556152
0.189690113067626953 1.35082924365997314 -1.1289747953414917
0.00639986991882324219 3.75331473350524902 -1.16501331329345703
-1.09825670719146729 2.47806739807128906 -1.10803890228271484
-1.66142582893371582 4.17374467849731445 -1.16788804531097412
0.148179739713668823 2.91217780113220215 -1.16157865524291992
0.751094818115234375 3.5485985279083252 -1.10811948776245117
1.51630496978759766 2.64557099342346191 -1.10118007659912109
-0.0304659716784954071 2.19636988639831543 -1.19976794719696045
-1.96878695487976074 0.94291377067565918 -1.02500820159912109
0.208105921745300293 1.33384978771209717 -1.11670291423797607
-0.0503391660749912262 4.52749061584472656 -1.0139690637588501
-0.349447727203369141 3.94151544570922852 -1.08774662017822266
0.668521523475646973 2.15864157676696777 -1.10488200187683105
0.0696659311652183533 2.72007966041564941 -1.18277275562286377
-1.23389184474945068 3.09948325157165527 -1.23072934150695801
-0.320853441953659058 2.02361607551574707 -1.21196639537811279
0.45011746883392334 3.67730164527893066 -1.17003428936004639
0.0339471176266670227 2.82045292854309082 -1.16578686237335205
1.72959041595458984 3.91378068923950195 -0.561575651168823242
1.42967045307159424 2.7295386791229248 -1.11893236637115479
0.749139130115509033 3.53760743141174316 -1.10376107692718506
0.0553011409938335419 2.75498414039611816 -1.15902900695800781
1.55570757389068604 2.9212644100189209 -1.11901450157165527
1.30701828002929688 2.82860279083251953 -1.04365170001983643
-0.412017464637756348 1.94884085655212402 -1.21036243438720703
-0.716700196266174316 2.221038818359375 -1.17498135566711426
1.87531137466430664 4.09668684005737305 -0.670104384422302246
-0.160921573638916016 2.25187325477600098 -1.21037173271179199
0.378613650798797607 3.65904927253723145 -1.07307517528533936
-1.08759856224060059 2.47767400741577148 -1.06492006778717041
1.11971962451934814 2.61930108070373535 -1.07542026042938232
-1.1867988109588623 2.02507781982421875 -1.14724040031433105
0.478965699672698975 4.08571815490722656 -0.624102652072906494
-0.0556004941463470459 3.44046950340270996 -1.16541397571563721
-0.0674876868724822998 3.23256707191467285 -0.938602566719055176
-0.610442757606506348 1.9053877592086792 -1.16215693950653076
0.128929615020751953 2.83327054977416992 -1.14787745475769043
-0.277907073497772217 3.91760087013244629 -1.09317493438720703
-0.516026973724365234 2.00918245315551758 -1.19572556018829346
0.202825427055358887 1.354836106300354 -1.1175074577331543
-1.67423152923583984 3.29695320129394531 -1.20637917518615723
-1.12050330638885498 3.07700657844543457 -0.777190983295440674
-0.744142353534698486 3.18445396423339844 -1.15611469745635986
1.49303412437438965 4.0647282600402832 -1.15020608901977539
-1.50538754463195801 2.72455096244812012 -1.16095006465911865
0.726477146148681641 4.28795480728149414 -0.419570773839950562
0.875763237476348877 4.69431447982788086 -0.655254900455474854
-1.06876564025878906 3.45524144172668457 -1.23897063732147217
-0.290619194507598877 2.93447542190551758 -1.2392280101776123
0.00226770713925361633 2.58438301086425781 -1.15612220764160156
0.14962884783744812 3.1097102165222168 -1.17640995979309082
0.235132813453674316 2.47388219833374023 -1.1350560188293457
0.671228408813476562 2.17110610008239746 -1.11225199699401855
-0.312097311019897461 3.5656120777130127 -1.22380638122558594
1.20620238780975342 4.10296773910522461 -0.234981685876846313
0.666668117046356201 2.15782904624938965 -1.1019827127456665
-0.92506706714630127 4.1230311393737793 -0.943268954753875732
-1.07962441444396973 2.48360705375671387 -1.11258578300476074
-1.49286305904388428 3.51317143440246582 -1.01636660099029541
-0.598750174045562744 2.65857791900634766 -0.929363071918487549
1.13017332553863525 2.61604142189025879 -1.07770323753356934
0.546342134475708008 4.1138005256652832 -1.10960507392883301
-0.0172832943499088287 2.6396794319152832 -1.15133106708526611
0.223556682467460632 1.41661334037780762 -1.06649136543273926
-0.748552143573760986 4.2529149055480957 -0.311062991619110107
0.448028147220611572 4.37956428527832031 -0.571089267730712891
1.21131551265716553 3.94271945953369141 -0.616006731986999512
0.656178951263427734 2.17649650573730469 -1.11876177787780762
-0.687039971351623535 3.39337730407714844 -1.11778938770294189
-1.72987675666809082 2.97115445137023926 -1.01233601570129395
-1.27252352237701416 2.16059017181396484 -1.05997884273529053
0.381699144840240479 5.04978513717651367 -0.578937828540802002
-0.201573684811592102 2.20144033432006836 -1.16681540012359619
1.09569394588470459 2.63415360450744629 -1.08008980751037598
-0.94619596004486084 2.72064447402954102 -1.18670773506164551
-0.274008214473724365 2.31029105186462402 -1.16514480113983154
1.75522279739379883 3.97646832466125488 -1.13371515274047852
-1.43800854682922363 2.98539519309997559 -1.18240988254547119
0.432912856340408325 2.98967361450195312 -1.14152419567108154
-0.154635816812515259 3.41613531112670898 -0.947145581245422363
-1.4711604118347168 0.720513820648193359 -1.09880220890045166
-0.0425767898559570312 1.92267632484436035 -1.20091629028320312
0.45554468035697937 2.75010466575622559 -1.11188018321990967
1.07666373252868652 2.62394523620605469 -1.07980430126190186
1.99916684627532959 0.924100875854492188 -1.09362697601318359
0.0820634886622428894 2.83225202560424805 -1.17215728759765625
0.661246359348297119 2.16726422309875488 -1.10461258888244629
1.13188266754150391 2.61518335342407227 -1.07878923416137695
-1.30203080177307129 3.62055635452270508 -1.04208076000213623
0.363212287425994873 1.58928203582763672 -1.3224179744720459
-0.439101129770278931 2.29765844345092773 -1.19474422931671143
1.14840364456176758 4.62472057342529297 -1.02124404907226562
0.725844860076904297 3.38548755645751953 -1.11566293239593506
-0.312805473804473877 3.66914105415344238 -0.667965054512023926
-1.02951157093048096 3.3680415153503418 -0.886598587036132812
-0.896433353424072266 4.14128398895263672 -0.823471128940582275
0.748418033123016357 3.52907514572143555 -1.11287069320678711
1.11243867874145508 2.61719655990600586 -1.0695575475692749
1.02889752388000488 4.27351284027099609 -0.487050741910934448
-0.281085342168807983 3.36558127403259277 -1.14507412910461426
-0.0994301885366439819 2.26682233810424805 -1.21271324157714844
0.126060128211975098 2.63857436180114746 -1.15932154655456543
-0.829492866992950439 3.893768310546875 -1.079825758934021
-0.0939783528447151184 2.58079028129577637 -1.13545668125152588
0.055787254124879837 2.82274651527404785 -1.16530072689056396
0.818593978881835938 4.36643600463867188 -0.664638042449951172
1.12042844295501709 2.64423608779907227 -1.07710647583007812
-0.00336401909589767456 2.72169208526611328 -1.15519595146179199
-0.253867566585540771 1.16673970222473145 -1.36287105083465576
1.1172785758972168 2.61521530151367188 -1.07136774063110352
-0.729254364967346191 2.18889379501342773 -0.909128308296203613
-2.28919148445129395 1.90338826179504395 -0.795287609100341797
-1.00542593002319336 3.23186779022216797 -1.17049634456634521
-0.406502693891525269 2.7223513126373291 -1.10097551345825195
0.206582054495811462 1.33947598934173584 -1.0911029577255249
0.745629489421844482 3.52849388122558594 -1.11325788497924805
0.750579953193664551 4.45888805389404297 -0.722846627235412598
0.920968770980834961 3.27012920379638672 -0.989352941513061523
0.423953115940093994 4.16572093963623047 -1.10878562927246094
0.741179406642913818 3.5518345832824707 -1.09572315216064453
-0.276323854923248291 3.91493964195251465 -1.09224569797515869
0.65788346529006958 2.17510080337524414 -1.1120840311050415
0.188434764742851257 1.37615585327148438 -1.10260486602783203
1.94490623474121094 1.87039685249328613 -0.99535667896270752
0.661000609397888184 2.16021084785461426 -1.10484790802001953
-0.00149866566061973572 2.71460270881652832 -1.16835391521453857
0.313811779022216797 4.54912805557250977 -0.685223400592803955
0.853453993797302246 3.47922348976135254 -1.01598954200744629
0.670310258865356445 4.18140554428100586 -1.0983356237411499
0.215537294745445251 1.34972000122070312 -1.09807693958282471
-0.413037389516830444 2.40089273452758789 -1.20979833602905273
0.049443364143371582 2.82270288467407227 -1.15410315990447998
0.198777839541435242 1.33639025688171387 -1.11848092079162598
-1.49558842182159424 1.86853218078613281 -1.06599521636962891
0.744278252124786377 3.48671889305114746 -1.1086726188659668
-0.0830838829278945923 3.49604296684265137 -0.902600347995758057
1.81076323986053467 4.40543556213378906 -0.591959595680236816
0.1330147385597229 2.7364804744720459 -1.16022861003875732
1.42714953422546387 3.23754310607910156 -0.937320947647094727
-0.00753114372491836548 2.8386385440826416 -1.17453968524932861
-2.46730947494506836 0.496817350387573242 -1.10227131843566895
-0.170948386192321777 2.25537514686584473 -1.20924115180969238
0.156175434589385986 2.77525639533996582 -1.15912985801696777
-1.09756159782409668 2.47731232643127441 -1.09105753898620605
-1.79733741283416748 1.8049769401550293 -0.769673764705657959
1.94658136367797852 1.55773282051086426 -1.13632488250732422
1.11872994899749756 2.63744306564331055 -1.10753703117370605
-2.29502081871032715 0.954674959182739258 -1.07322835922241211
-0.116377286612987518 2.38132715225219727 -1.16984832286834717
1.09405505657196045 4.49245262145996094 -0.697191119194030762
0.870414972305297852 4.01756572723388672 -1.04149258136749268
-1.90667271614074707 4.04242801666259766 -1.0547177791595459
-0.345314890146255493 1.94115889072418213 -1.19255852699279785
1.12187802791595459 2.61937856674194336 -1.07693314552307129
-1.661995530128479 2.84069299697875977 -1.17854154109954834
1.12813472747802734 4.38440513610839844 -0.688565373420715332
1.045570969581604 3.53084659576416016 -1.15076851844787598
0.0618386417627334595 2.61182451248168945 -1.17041492462158203
-1.59648692607879639 2.80058717727661133 -0.695526659488677979
-1.14030814170837402 2.75382041931152344 -1.19888198375701904
-0.723668158054351807 3.99209284782409668 -1.02697086334228516
-0.274804651737213135 3.90975260734558105 -1.10033285617828369
-0.203252598643302917 1.99924874305725098 -1.19482016563415527
-0.197429865598678589 2.55275368690490723 -1.13760852813720703
1.06689512729644775 4.26757287979125977 -0.6725311279296875
-1.79960334300994873 2.99326205253601074 -1.15965747833251953
-0.197070270776748657 0.590545654296875 -1.30681157112121582
0.748335957527160645 3.5279850959777832 -1.11037051677703857
